<?xml version="1.0" standalone="no"?>
<!DOCTYPE svg PUBLIC "-//W3C//DTD SVG 1.1//EN" "http://www.w3.org/Graphics/SVG/1.1/DTD/svg11.dtd" >
<svg xmlns="http://www.w3.org/2000/svg" xmlns:xlink="http://www.w3.org/1999/xlink" version="1.1">
<metadata>
Created by FontForge 20161003 at Fri Nov 23 10:49:21 2018
 By www-data
</metadata>
<defs>
<font id="Kafka" horiz-adv-x="209" >
  <font-face 
    font-family="Kafka"
    font-weight="400"
    font-stretch="normal"
    units-per-em="1000"
    panose-1="0 0 0 0 0 0 0 0 0 0"
    ascent="800"
    descent="-200"
    x-height="404"
    cap-height="647"
    bbox="-236 -206 1237 827"
    underline-thickness="50"
    underline-position="-200"
    unicode-range="U+000A-F02A"
  />
<missing-glyph horiz-adv-x="527" 
d="M50 700h427v-700h-427v700zM78 680l185 -309l186 309h-371zM251 350l-180 300v-601zM264 329l-185 -308h370zM276 350l181 -303v605z" />
    <glyph glyph-name="th.liga" unicode="th" horiz-adv-x="674" 
d="M672 456q-3 -20 -9 -34t-12.5 -19.5t-12.5 -9t-9.5 -2.5t-4.5 0q10 58 -176 77q-1 -5 -4 -9q-34 -62 -97 -194q-34 -72 -35 -72q-7 -12 -14 -30t-11 -30l-4 -11q19 28 28 41q7 9 18.5 25.5t13.5 19.5q11 17 32 47.5t31 43.5q14 22 24 34.5t27 27.5t35 22q47 20 92 -6
q8 -4 13 -11t7.5 -14.5t3 -16t-2.5 -16.5q-1 -6 -3.5 -10.5t-8 -11.5t-6.5 -9q-12 -17 -21 -35q-41 -76 -47 -161q-1 -19 5 -27q14 -18 50 17q39 39 84 114q9 15 12 15q2 -1 2 -7q-7 -48 -39 -97q-31 -49 -71 -79q-48 -36 -87 -26q-46 11 -59 56q-11 37 3 92
q12 43 17.5 62.5t19.5 52.5t30 57q-5 -7 -32.5 -43t-41.5 -56q3 5 10 14t8 11q-86 -123 -146 -215q-9 -14 -16 -18q-16 -10 -40 0q-37 16 -53 52q-6 13 -7 29q-24 -35 -53 -59q-39 -33 -74 -33h-3q-49 5 -65 48q-9 25 -5 69q7 62 48 193q12 38 45 161q-96 -3 -116 -2
q-36 0 -59.5 8t-32 18.5t-11.5 21t-1 18.5l2 7q7 -19 233 -14l31 122l5 -2.5l13 -6.5t18.5 -10t22 -13t23.5 -14.5t22 -16t18 -16.5t12 -16.5t3 -15.5q0 -2 -1 -5q27 1 62 2q11 38 16 55l1 1q0 -1 2 -2h1q42 -24 76 -50q51 2 72 2q43 0 78.5 -4t65.5 -14t44.5 -28.5
t10.5 -43.5zM233 325q18 47 51 151q-31 1 -63 1l-100 -250q-2 -4 -5.5 -12t-12 -29t-15 -40t-11.5 -38t-4 -30.5t9 -11.5q18 0 42 25q25 30 57 84q0 1 4 12t6 17q23 73 42 121z" />
    <glyph glyph-name="ss.liga" unicode="ss" horiz-adv-x="565" 
d="M561 223q3 0 3 -7q-4 -49 -33 -99q-4 -8 -15 -28.5t-18 -33.5t-17.5 -28.5t-19.5 -23.5q-40 -33 -75 -33h-2q-5 1 -7 1q-37 -7 -81 9q-54 21 -69 109q-23 -32 -50 -55q-39 -33 -74 -33h-2q-5 0 -8 1q-36 -8 -80 9q-22 8 -38 25t-23.5 35.5t-11.5 35.5t-4 28v11
q9 10 39.5 65.5t43.5 90.5q7 20 22 47t36 55.5t40 45.5q23 20 40 20q20 1 44.5 -9t38.5 -21l14 -10q-20 -11 -37 -57q-7 -20 -11 -93q-7 -142 -24 -188q-2 -7 -4 -11q4 3 8 8q6 7 31 48t52.5 91.5t36.5 73.5q11 32 40.5 77t57.5 71q23 20 40 20q13 0 27.5 -4t26.5 -9.5
t22 -11.5t16 -11l5 -4q-21 -11 -37 -57q-7 -20 -11 -93q-9 -167 -27 -219q-3 -7 -4 -11q3 4 8 8q9 11 22 35.5t30.5 59.5t28.5 55q6 15 10 15zM98 187q0 20 4 58.5t7 66.5l4 29q-25 -25 -49 -77q-1 -1 -1.5 -2.5t-1.5 -2.5q-11 -25 -29.5 -58t-30.5 -54l-13 -22
q12 -49 43 -55q8 -2 19 -1q21 2 34 40.5t14 77.5zM385 187q0 20 4 58.5t7 66.5l4 29q-25 -25 -49 -77q-1 -1 -1.5 -2.5t-1.5 -2.5q-7 -15 -17 -34.5t-19.5 -36.5t-18 -31.5t-13.5 -22.5l-6 -9l7.5 -28.5t8 -25t11.5 -23t13 -9.5q9 -2 20 0q20 2 35 54.5t16 93.5z" />
    <glyph glyph-name="tj.liga" unicode="tj" horiz-adv-x="481" 
d="M476 472q-6 -17 -19.5 -29t-30 -15.5t-34.5 1.5q-26 8 -39 32.5t-4 51.5q5 17 18.5 29t30 15.5t34.5 -1.5q27 -9 39.5 -33.5t4.5 -50.5zM407 396q11 -3 19.5 -11.5t12 -20t0.5 -23.5l-19 -70q-24 -87 -57 -186q-34 -97 -81 -169q-23 -36 -44.5 -56t-50.5 -34
q-4 -2 -11.5 -4t-22 -4t-29 0t-31 11t-28.5 25.5t-20 47t-8 72.5q12 -27 26.5 -44.5t28 -23.5t26 -5.5t21.5 6t15 13.5q51 82 89 213q-103 -127 -146 -138h-3q-7 -1 -16 -1t-27 2t-34.5 14t-25.5 33q-10 22 -5 69q6 63 48 193q12 38 45 163q-17 5 -44 14t-44 14t-29 7
q-20 3 -38 1.5t-33 -6t-25.5 -9t-16.5 -7.5l-7 -4q8 39 20 65t24 40.5t31 17t32.5 1.5t38.5 -13t39 -20.5t43 -26.5q16 -11 24 -16l31 119l1 -1q124 -59 135 -101q1 -5 1 -9q-1 -6 -15 -44q9 0 18.5 1.5t17 2.5t14.5 2.5t12 3t8.5 2.5t5.5 2l2 1v-3q0 -15 -7 -28t-19 -21
t-27 -10q-21 -2 -44 -2l-89 -222q-6 -12 -14 -31t-21.5 -58.5t-13.5 -57.5q1 -15 10 -15l13 13t30.5 36t43 57.5t45 74t40.5 88.5q16 40 54.5 60.5t80.5 9.5z" />
    <glyph glyph-name="ti.liga" unicode="ti" horiz-adv-x="434" 
d="M434 222q2 0 3 -7q-5 -49 -33.5 -99t-67 -83t-73.5 -33h-3q-51 6 -68 46q-13 30 -13 70v2.5v2.5q0 -1 -1 -2.5t-1 -2.5q-28 -50 -67.5 -83t-74.5 -33h-2q-49 5 -65 48q-9 25 -5 69q6 62 48 194q12 38 45 162q-95 27 -147 35q-21 4 -38.5 4.5t-30 -1.5t-23 -5.5
t-16.5 -8.5t-11 -9.5t-7 -9.5t-3.5 -9t-1.5 -6v-2q-7 40 0.5 68t26.5 41t45 17.5t55.5 -0.5t58.5 -14t53.5 -22t39.5 -26q5 -3 11 -7l34 132l2 -1q15 -7 30 -15.5t43.5 -25.5t45.5 -35.5t16 -33.5q-1 -8 -25 -70l77 -9q0 -15 -11.5 -25.5t-26.5 -8.5q-22 2 -52 9l-85 -211
q-2 -5 -5.5 -13t-12.5 -29t-15 -39.5t-11.5 -38t-4 -31t9.5 -11.5q18 0 41 26q29 34 68 101q6 32 20 78q3 9 10 27.5t12.5 33.5t9.5 32t2 29t-11 19q67 -7 104 -15q26 -5 38 -29.5t0 -49.5v-1q-27 -54 -45 -107q-15 -40 -24.5 -82.5t-10.5 -62t1 -24.5q39 4 131 170
q8 15 11 15zM418 477.5q-8 -26.5 -32.5 -39t-51 -4t-39 32.5t-4 50.5t33 39t50.5 4.5t38.5 -32.5t4.5 -51z" />
    <glyph glyph-name=".notdef" horiz-adv-x="527" 
d="M50 700h427v-700h-427v700zM78 680l185 -309l186 309h-371zM251 350l-180 300v-601zM264 329l-185 -308h370zM276 350l181 -303v605z" />
    <glyph glyph-name=".null" horiz-adv-x="0" 
 />
    <glyph glyph-name=".null" horiz-adv-x="0" 
 />
    <glyph glyph-name="nonmarkingreturn" horiz-adv-x="333" 
 />
    <glyph glyph-name="controlLF" unicode="&#xa;" horiz-adv-x="0" 
 />
    <glyph glyph-name="controlCR" unicode="&#xd;" horiz-adv-x="0" 
 />
    <glyph glyph-name="space" unicode=" " 
 />
    <glyph glyph-name="exclam" unicode="!" horiz-adv-x="391" 
d="M287 724q27 0 42.5 -22.5t4.5 -48.5q-106 -253 -175 -528h-3h-1q-34 0 -54 28t-9 61q4 16 4 23q0 118 75 383l10 36q1 6 3 10q30 58 102 58h1zM111 -19q-24 0 -41 17t-17 41t17 41t41 17t41 -17t17 -41t-17 -41t-41 -17z" />
    <glyph glyph-name="quotedbl" unicode="&#x22;" horiz-adv-x="316" 
d="M120 633q24 0 32 -16q5 -10 5 -22q0 -7 -2.5 -22t-16.5 -36.5t-34.5 -36.5t-44.5 -15q-7 0 -7 2t12 12q28 22 28 40v2l-8 -1q-25 0 -25 28.5t23 49.5q16 15 38 15zM227 633q37 0 37 -39q0 -6 -3 -21q-2 -15 -16 -36.5t-34.5 -37t-45.5 -15.5q-6 0 -6 2q0 4 12 13
q27 22 27 40v2l-8 -1q-14 0 -20 10q-5 8 -5 18q0 30 23 50q17 15 39 15z" />
    <glyph glyph-name="numbersign" unicode="#" horiz-adv-x="755" 
d="M698 362l-175 10l-33 -119l95 -5l-4 -76l-112 7l-23 -82l-73 20l18 66l-93 5l-25 -91l-73 20l21 76l-169 9l5 76l185 -10l33 118l-105 6l4 76l122 -7l46 166l73 -21l-42 -149l93 -6l49 176l73 -21l-44 -159l158 -9zM412 258l33 118l-93 6l-33 -119z" />
    <glyph glyph-name="dollar" unicode="$" horiz-adv-x="690" 
d="M495 340q49 15 143 42q-9 -22 -35 -30q-88 -26 -179 -61q31 -15 45 -39t11.5 -47.5t-9 -41t-13.5 -27.5q-41 -51 -129 -79l-26 -155l-75 13l21 125q-30 -5 -59 -6q-47 -2 -78 9q-42 15 -55 46q-16 37 19 75q23 26 75 49q74 33 136 57l3 19q-27 6 -37 9q-116 36 -100 135
q6 39 36 82q61 88 163 146l28 166l75 -13l-19 -115q49 16 90 14q23 -1 39 -8.5t27 -23t18 -40.5q14 -66 11 -113.5t-21.5 -80.5t-41.5 -51t-50 -22.5t-56.5 5.5t-42 19t-21.5 16l-17 -100q13 -5 19 -7q54 18 105 33zM543 641q-24 22 -124 -43l-31 -182q24 9 45 22.5t37 27.5
t29.5 30t22.5 31.5t15.5 30.5t9.5 28t4 24t-1.5 19t-6.5 12zM290 342q2 -1 5 -2t4 -1l32 193q-50 -44 -69 -75q-26 -41 -18 -69q9 -28 46 -46zM154 108q56 4 109 20l18 104q-33 -15 -45 -21q-29 -14 -101 -62q-25 -16 -19 -29q6 -15 38 -12zM400 194q20 23 12 46
q-6 18 -42 30h-1t-1.5 -0.5t-2 -1l-1.5 -0.5l-18 -109q1 0 4 1.5l5 2.5q31 16 45 31z" />
    <glyph glyph-name="percent" unicode="%" horiz-adv-x="730" 
d="M558 795l89 -33l-478 -834l-76 30zM152 473q-26 0 -48 13q-43 25 -50.5 79.5t24.5 109.5q30 52 78 73q54 25 98.5 -1t50.5 -84q5 -53 -24.5 -104.5t-78.5 -73.5q-25 -12 -50 -12zM131 645q-18 -32 -17 -63.5t20 -42.5q18 -10 43 1q31 14 51 48.5t16 68.5q-2 27 -20 37
q-8 5 -18 5q-12 0 -25 -6q-30 -14 -50 -48zM676 171q6 -53 -24 -104q-23 -40 -57.5 -62.5t-70.5 -22.5q-26 0 -49 13q-42 24 -49.5 79t24 109.5t82.5 75.5t94 -3q44 -26 50 -85zM599 97q20 35 17 68q-3 28 -20 38q-8 4 -18 4t-20 -3.5t-20 -10.5t-19.5 -17.5t-16.5 -22.5
q-18 -31 -17 -63t20.5 -43t47.5 4t46 46z" />
    <glyph glyph-name="ampersand" unicode="&#x26;" horiz-adv-x="763" 
d="M532 134q19 -19 73.5 -36t105.5 -15l-90 -68q-26 -19 -58 -11.5t-46 37t-24 38.5q-1 0 -1.5 -1.5t-1.5 -1.5q-29 -36 -57 -60q-33 -30 -68 -51q-41 -25 -80 -38q-49 -16 -96 -12q-26 1 -55 13q-31 13 -52 38q-19 24 -27 59q-3 21 -2 29v14l1 14q6 42 30 90q20 38 50 74
q43 49 125 109l-3.5 7t-5.5 10q-20 39 -32 77q-14 44 -17 85l-1 23q0 1 1 22q0 6 2 22q2 14 3 22q10 48 31 86q26 46 67 72q47 31 101 29q56 -2 100 -37q40 -31 60 -85q15 -44 12 -96q-3 -48 -21 -90q-29 -74 -107 -141q-27 -24 -65 -52l16 -24q34 -45 77 -94q53 59 45 100
l22 -32q15 -22 16 -49t-12 -50zM320 660q-31 -49 -29 -120q2 -31 11 -65q9 -32 24 -66l1 -2l1 -2q31 22 51 38q58 50 79 99q11 27 13.5 58t-4.5 55q-8 24 -25.5 39t-40.5 16q-23 2 -45 -11q-21 -13 -36 -39zM425 137l1 2q1 0 2 1q-48 47 -89 98q-7 9 -19 24
q-68 -49 -101 -89q-22 -25 -35 -52q-16 -31 -19 -54v-6v-5v-3.5v-3v-2.5q3 -8 5 -10q4 -4 9 -7q13 -4 19 -4q22 -3 55 6q28 7 60 24q56 29 112 81z" />
    <glyph glyph-name="quotesingle" unicode="'" 
d="M152 617q5 -10 5 -22q0 -7 -2.5 -22t-16.5 -36.5t-34.5 -36.5t-44.5 -15q-7 0 -7 2t12 12q28 22 28 40v2l-8 -1q-25 0 -25 28.5t23 49.5q16 15 38 15q24 0 32 -16z" />
    <glyph glyph-name="parenleft" unicode="(" horiz-adv-x="301" 
d="M176.5 40q24.5 -120 71.5 -185q-46 13 -77.5 34.5t-55.5 80.5q-45 110 -57 242t1 208.5t21 105.5q21 82 59 141q5 8 17.5 20t32 17t44.5 -2l12 -4q-41 -40 -64 -128q-30 -116 -29 -274q0 -136 24.5 -256z" />
    <glyph glyph-name="parenright" unicode=")" horiz-adv-x="301" 
d="M241.5 420.5q13.5 -76.5 1.5 -208.5t-57 -242q-25 -59 -56 -80.5t-77 -34.5q47 65 71.5 185t24.5 256q1 158 -29 274q-23 88 -64 128l12 4q25 7 44.5 2t31.5 -16.5t17 -20.5q39 -59 60 -141q7 -29 20.5 -105.5z" />
    <glyph glyph-name="asterisk" unicode="*" horiz-adv-x="279" 
d="M227 655l-43 -68l-36 24l12 -51h-67l10 47l-48 -21l-3 65l50 -8l-44 39l76 44l5 -44l29 46l54 -43l-51 -28z" />
    <glyph glyph-name="plus" unicode="+" horiz-adv-x="393" 
d="M230 231l110 2v-79h-112v-96h-83v96h-93v76h93v107h83z" />
    <glyph glyph-name="comma" unicode="," 
d="M120 117q37 0 37 -38q0 -6 -2.5 -21t-16.5 -37t-34.5 -37.5t-44.5 -15.5q-6 0 -6 3q0 2 10 11q11 9 20 20q9 10 9 23l-8 -1q-25 0 -25 27q0 8 2 17q5 20 21 34.5t38 14.5z" />
    <glyph glyph-name="hyphen" unicode="-" horiz-adv-x="453" 
d="M52 252l349 2v-81h-349v79z" />
    <glyph glyph-name="period" unicode="." horiz-adv-x="237" 
d="M118.5 -23q-27.5 0 -47 19.5t-19.5 46.5t19.5 46.5t47 19.5t46.5 -19.5t19 -46.5t-19 -46.5t-46.5 -19.5z" />
    <glyph glyph-name="slash" unicode="/" horiz-adv-x="391" 
d="M237 698h101l-175 -789h-111z" />
    <glyph glyph-name="zero" unicode="0" horiz-adv-x="491" 
d="M405 552q33 -56 33 -138q0 -9 -2 -57q-2 -51 -38 -143t-96 -152q-57 -58 -130 -58h-7q-47 0 -75 42q-38 53 -38 149q0 53 13 113q16 85 50 153.5t78.5 109.5t92.5 41h3q81 0 116 -60zM315 362q4 30 4 54q0 19 -4 46q-4 26 -25 26q-19 0 -38 -36t-33 -89q-26 -97 -26 -167
q0 -15 3 -41q2 -26 22 -26q21 0 41 37t35 90q14 53 21 106z" />
    <glyph glyph-name="one" unicode="1" horiz-adv-x="382" 
d="M327 552q3 -7 3 -13q-2 -13 -75 -197q-39 -132 -60 -268q-4 -27 -7 -51l-2 -17q-10 2 -19 5q-21 -11 -41 -11h-2q-49 5 -65 48q-9 25 -5 69q6 63 43 179q7 27 16 59q10 32 16 51v1q6 23 21 78l43 165l4.5 -2t12.5 -6.5t17.5 -9.5t22 -12t22.5 -14q46 -30 55 -54z" />
    <glyph glyph-name="two" unicode="2" horiz-adv-x="600" 
d="M510 393q-37 -72 -108 -142q-71 -72 -152 -110q14 -4 196 22l-2 -7q-9 -41 -23 -76q-7 -16 -122 -48t-154 -32h-9q-43 5 -67 42t-13 79l2 8q59 32 135 86q74 53 126 114q77 93 78 133q1 17 -6.5 24.5t-24.5 7.5q-38 1 -71.5 -21.5t-47 -57.5t2.5 -76q8 -17 -15.5 -33.5
t-51.5 -23.5l-28 -8q-33 33 -40 89q-2 12 -2 25q0 120 115 193q87 49 177 49q27 0 50 -5q80 -21 90 -84q2 -13 2 -25q0 -53 -37 -123z" />
    <glyph glyph-name="three" unicode="3" horiz-adv-x="568" 
d="M135 446q-3 61 10.5 102t44 63t68.5 30.5t93 8.5q95 0 133 -44.5t29 -117.5q-3 -25 -14 -49.5t-25.5 -41.5t-28 -30.5t-22.5 -20.5l-10 -6q27 -4 38 -47.5t9 -98.5q-2 -33 -25 -77.5t-64.5 -80.5t-85.5 -36q-83 0 -137.5 14.5t-79.5 55.5q-16 33 -15 73t10 74l9 33
l103 -4q-1 -3 -3 -8.5t-5.5 -22t-5 -30.5t0 -31t7.5 -28t19 -17t33 -2q57 10 96 88q15 28 1 56.5t-46 37.5q-4 1 -9 2q-13 5 -24 13t-17 16t-10 15.5t-5 11.5l-1 5q106 -8 149 67q31 52 14 103q-14 44 -50 39q-4 0 -8 -1q-26 -8 -41.5 -22.5t-19 -30t-3.5 -29.5t3 -23l3 -9
h-118z" />
    <glyph glyph-name="four" unicode="4" horiz-adv-x="544" 
d="M490 552q2 -7 2 -13q-2 -13 -75 -197q-39 -132 -60 -268q-4 -27 -7 -51l-2 -17q-10 2 -19 5q-21 -11 -41 -11h-2q-49 5 -65 48q-9 25 -5 69q5 52 26 122q-28 -3 -52 -3q-50 0 -84 12q-29 11 -43 41q-9 20 -10.5 50t4 65t13.5 68.5t19 68.5t19 57.5t15 42.5l50 -16
q33 -10 46.5 -41t-0.5 -62q-7 -15 -17 -36t-16.5 -35t-15 -32t-12.5 -28.5t-9 -24.5t-5 -19.5v-14.5q43 -12 125 3q5 16 6 20q10 32 16 51v1q7 23 21 78l43 165l4.5 -2t12.5 -6.5t18 -9.5t22 -12t22 -14q46 -30 56 -54z" />
    <glyph glyph-name="five" unicode="5" horiz-adv-x="591" 
d="M538 650q-5 -39 -39.5 -63.5t-80 -31.5t-90 -8.5t-74.5 1.5l-31 4l-32 -127q59 -6 101.5 -20t66.5 -31.5t37.5 -42.5t17 -48t3.5 -55v-2q1 -6 1 -9q0 -23 -6 -46q-7 -34 -21.5 -62.5t-40 -54t-68 -40t-97.5 -14.5h-1q-85 1 -116 67v1q-15 34 -15.5 81t6.5 77l7 30l86 -2
q-1 -3 -3.5 -9.5t-7 -25t-7 -35.5t-1.5 -37.5t7 -35t21.5 -25t38.5 -10.5q42 -1 77 31t50.5 73.5t6 84t-48.5 60.5q-29 14 -60.5 19.5t-54 4.5t-45 -5.5t-31 -7.5t-14.5 -6h-1l86 320h373z" />
    <glyph glyph-name="six" unicode="6" horiz-adv-x="506" 
d="M428 624q22 -25 26 -118q-69 -4 -129 -52q117 -34 117 -170q0 -43 -21 -108q-20 -65 -86 -126q-64 -58 -154 -58h-9q-77 14 -103 90q-17 46 -17 101q0 38 14 111q13 73 73 172q61 99 160 156q51 28 83 28q23 0 46 -26zM312 194q13 35 13 70q0 32 -13 55q-12 22 -41 22
q-23 0 -44.5 -35.5t-32.5 -80.5q-6 -27 -6 -51q0 -15 4 -39q5 -23 36 -24q28 2 50 25q21 23 34 58z" />
    <glyph glyph-name="seven" unicode="7" horiz-adv-x="512" 
d="M459 650q-152 -486 -166 -576q-4 -27 -7 -51l-2 -17q-9 2 -18 5q-21 -11 -42 -11h-2q-49 5 -65 48q-9 25 -5 69q7 63 44 179q6 27 16 59q9 32 15 51l1 1q6 23 21 78l13 52l-210 -2v115h407z" />
    <glyph glyph-name="eight" unicode="8" horiz-adv-x="517" 
d="M343 650q81 -4 107 -56q15 -28 15 -63q0 -26 -13 -72q-14 -48 -69 -94q49 -50 49 -131q0 -53 -26 -111q-25 -59 -84 -100q-53 -37 -128 -37l-19 1q-50 0 -80 28q-42 40 -42 114q0 32 8 68q30 109 110 170q-24 37 -24 82q0 16 8 58q8 41 57.5 90t130.5 53zM309 162
q24 37 24 73q0 4 -2 28q-2 22 -50 26q-34 -3 -56 -44q-21 -42 -21 -83t32 -44q45 4 73 44zM348 427q24 30 24 72q0 47 -29 47q-29 -2 -47.5 -35t-18.5 -66v-19q0 -17 28 -21q27 1 43 22z" />
    <glyph glyph-name="nine" unicode="9" horiz-adv-x="478" 
d="M143 14q-27 18 -50 102q66 19 114 76q-121 4 -149 127q-9 39 -3 103q6 63 57 133q50 67 138 87l8 2q78 5 120 -58q25 -38 36 -87q8 -35 11 -104t-35 -172t-122 -177q-45 -37 -76 -44q-22 -6 -49 12zM165 430q-5 -35 2 -66q7 -29 24 -47q16 -18 44 -11q23 5 36.5 42
t14.5 80q0 27 -5 48q-3 14 -12 34q-10 20 -40 14q-27 -8 -43 -34q-16 -25 -21 -60z" />
    <glyph glyph-name="colon" unicode=":" 
d="M104.5 261q-21.5 0 -37 15.5t-15.5 37t15.5 37t37 15.5t37 -15.5t15.5 -37t-15.5 -37t-37 -15.5zM104.5 16q-21.5 0 -37 15t-15.5 37t15.5 37t37 15t37 -15t15.5 -37t-15.5 -37t-37 -15z" />
    <glyph glyph-name="semicolon" unicode=";" 
d="M120 117q37 0 37 -38q0 -7 -2.5 -21.5t-16.5 -36.5t-35 -37.5t-45 -15.5q-5 0 -5 2q0 4 10 12q11 9 20 19q9 11 9 22v2l-8 -1q-15 0 -21 10q-5 7 -5 18q0 7 2 16q6 20 22 34.5t38 14.5zM104.5 261q-21.5 0 -37 15.5t-15.5 37t15.5 37t37 15.5t37 -15.5t15.5 -37
t-15.5 -37t-37 -15.5z" />
    <glyph glyph-name="less" unicode="&#x3c;" horiz-adv-x="407" 
d="M185 200l169 -128l-46 -61l-256 194l259 165l41 -64z" />
    <glyph glyph-name="equal" unicode="=" horiz-adv-x="330" 
d="M52 109v63l226 -2v-61h-226zM52 277l226 -2v-61h-226v63z" />
    <glyph glyph-name="greater" unicode="&#x3e;" horiz-adv-x="407" 
d="M96 370l258 -165l-256 -194l-46 61l169 128l-166 106z" />
    <glyph glyph-name="question" unicode="?" horiz-adv-x="428" 
d="M133.5 0q-27.5 0 -46.5 19.5t-19 46.5t19 46.5t46.5 19.5t46.5 -19.5t19 -46.5t-19 -46.5t-46.5 -19.5zM214 738q66 0 113.5 -47t47.5 -114v-11q0 -59 -38 -104l-136 -161q-13 -15 -13 -35v-106h-107v106q0 59 38 104l137 161q13 15 13 35v11q0 23 -16 39t-39 16t-39 -16
t-16 -39v-63h-107v63q0 44 22 81t59 58.5t81 21.5z" />
    <glyph glyph-name="at" unicode="@" horiz-adv-x="804" 
d="M740 497q18 -76 7 -177q-8 -75 -31 -120q-32 -65 -88 -85q-14 -5 -29.5 -5.5t-32.5 3.5t-30.5 8.5t-32 13.5t-28.5 15t-28 16q-2 1 -3.5 2l-3 2t-3.5 2l-7.5 4t-9.5 5.5t-8 5.5t-9 7l-7 7t-6.5 8t-3.5 9q-30 -30 -62.5 -43.5t-60.5 -4.5q-53 15 -72.5 85.5t4.5 154.5
q24 81 89.5 130.5t119.5 33.5q57 -16 69 -92l58 30q12 -9 16.5 -30t2 -45.5t-8 -52t-12.5 -49.5t-13 -38q-25 -59 -17 -77q22 -24 49.5 -38t58 -10.5t50.5 32.5q18 24 28 75q21 98 12 168q-13 95 -72 150q-37 36 -90.5 50t-108.5 7q-52 -6 -99.5 -29t-85.5 -59.5t-63 -81.5
q-36 -69 -37 -150t34 -150.5t101 -116.5t143 -59q-1 -3 -6 -22t-8.5 -29.5t-10.5 -25t-16 -21.5t-20 -7q-34 0 -111 49q-105 66 -156 176q-40 85 -38.5 183t44.5 182t121.5 143t171.5 76q72 14 143.5 -1.5t122.5 -61.5q53 -48 77 -126q4 -13 7 -26zM427 406q14 71 -13 78
q-16 4 -34 -18t-29.5 -47t-20.5 -54q-13 -36 -19 -67.5t-2.5 -55.5t19.5 -28q14 -4 29 14t29 47q9 49 41 131z" />
    <glyph glyph-name="A" unicode="A" horiz-adv-x="848" 
d="M654 192q-3 -25 -7 -84q0 -1 -1 -14t-1.5 -20.5t-0.5 -23t1.5 -26.5t5.5 -24.5t9.5 -23t15 -17.5t22.5 -11q-43 -24 -89 -5.5t-59 66.5q-12 44 -5 103v1v1q-1 1 -3 1t-4 1q-42 10 -79 33q-70 -87 -160.5 -165t-146.5 -98q-71 -26 -109 22q-22 28 -22 68v6
q23 -23 47 -28.5t36.5 -0.5t23.5 12q39 30 129.5 111.5t122.5 129.5q-27 16 -50 20q-37 6 -69 -12q-16 -8 -28 -21q-4 -5 -10.5 -15.5t-9.5 -14.5l2 54q1 30 26 46q15 9 31 15q35 12 70 5q33 -6 68 -31q62 93 101.5 150t89 120.5t80.5 89.5q12 11 27 5l60 -21
q14 -5 22.5 -16t2.5 -22q-17 -31 -37 -71.5t-38 -79.5t-31 -74t-17 -53q-12 -58 -16 -88zM559 211q7 30 26.5 96t27.5 80q-6 -4 -15.5 -15.5t-23 -32.5t-25 -40t-31.5 -52.5t-33 -55.5q17 -14 29 -22q16 -11 33 -20q4 26 12 62z" />
    <glyph glyph-name="A" unicode="&#xc5;" horiz-adv-x="848" 
d="M654 192q-3 -25 -7 -84q0 -1 -1 -14t-1.5 -20.5t-0.5 -23t1.5 -26.5t5.5 -24.5t9.5 -23t15 -17.5t22.5 -11q-43 -24 -89 -5.5t-59 66.5q-12 44 -5 103v1v1q-1 1 -3 1t-4 1q-42 10 -79 33q-70 -87 -160.5 -165t-146.5 -98q-71 -26 -109 22q-22 28 -22 68v6
q23 -23 47 -28.5t36.5 -0.5t23.5 12q39 30 129.5 111.5t122.5 129.5q-27 16 -50 20q-37 6 -69 -12q-16 -8 -28 -21q-4 -5 -10.5 -15.5t-9.5 -14.5l2 54q1 30 26 46q15 9 31 15q35 12 70 5q33 -6 68 -31q62 93 101.5 150t89 120.5t80.5 89.5q12 11 27 5l60 -21
q14 -5 22.5 -16t2.5 -22q-17 -31 -37 -71.5t-38 -79.5t-31 -74t-17 -53q-12 -58 -16 -88zM559 211q7 30 26.5 96t27.5 80q-6 -4 -15.5 -15.5t-23 -32.5t-25 -40t-31.5 -52.5t-33 -55.5q17 -14 29 -22q16 -11 33 -20q4 26 12 62z" />
    <glyph glyph-name="A" unicode="&#xc4;" horiz-adv-x="848" 
d="M654 192q-3 -25 -7 -84q0 -1 -1 -14t-1.5 -20.5t-0.5 -23t1.5 -26.5t5.5 -24.5t9.5 -23t15 -17.5t22.5 -11q-43 -24 -89 -5.5t-59 66.5q-12 44 -5 103v1v1q-1 1 -3 1t-4 1q-42 10 -79 33q-70 -87 -160.5 -165t-146.5 -98q-71 -26 -109 22q-22 28 -22 68v6
q23 -23 47 -28.5t36.5 -0.5t23.5 12q39 30 129.5 111.5t122.5 129.5q-27 16 -50 20q-37 6 -69 -12q-16 -8 -28 -21q-4 -5 -10.5 -15.5t-9.5 -14.5l2 54q1 30 26 46q15 9 31 15q35 12 70 5q33 -6 68 -31q62 93 101.5 150t89 120.5t80.5 89.5q12 11 27 5l60 -21
q14 -5 22.5 -16t2.5 -22q-17 -31 -37 -71.5t-38 -79.5t-31 -74t-17 -53q-12 -58 -16 -88zM559 211q7 30 26.5 96t27.5 80q-6 -4 -15.5 -15.5t-23 -32.5t-25 -40t-31.5 -52.5t-33 -55.5q17 -14 29 -22q16 -11 33 -20q4 26 12 62z" />
    <glyph glyph-name="A" unicode="&#xc3;" horiz-adv-x="848" 
d="M654 192q-3 -25 -7 -84q0 -1 -1 -14t-1.5 -20.5t-0.5 -23t1.5 -26.5t5.5 -24.5t9.5 -23t15 -17.5t22.5 -11q-43 -24 -89 -5.5t-59 66.5q-12 44 -5 103v1v1q-1 1 -3 1t-4 1q-42 10 -79 33q-70 -87 -160.5 -165t-146.5 -98q-71 -26 -109 22q-22 28 -22 68v6
q23 -23 47 -28.5t36.5 -0.5t23.5 12q39 30 129.5 111.5t122.5 129.5q-27 16 -50 20q-37 6 -69 -12q-16 -8 -28 -21q-4 -5 -10.5 -15.5t-9.5 -14.5l2 54q1 30 26 46q15 9 31 15q35 12 70 5q33 -6 68 -31q62 93 101.5 150t89 120.5t80.5 89.5q12 11 27 5l60 -21
q14 -5 22.5 -16t2.5 -22q-17 -31 -37 -71.5t-38 -79.5t-31 -74t-17 -53q-12 -58 -16 -88zM559 211q7 30 26.5 96t27.5 80q-6 -4 -15.5 -15.5t-23 -32.5t-25 -40t-31.5 -52.5t-33 -55.5q17 -14 29 -22q16 -11 33 -20q4 26 12 62z" />
    <glyph glyph-name="A" unicode="&#xc2;" horiz-adv-x="848" 
d="M654 192q-3 -25 -7 -84q0 -1 -1 -14t-1.5 -20.5t-0.5 -23t1.5 -26.5t5.5 -24.5t9.5 -23t15 -17.5t22.5 -11q-43 -24 -89 -5.5t-59 66.5q-12 44 -5 103v1v1q-1 1 -3 1t-4 1q-42 10 -79 33q-70 -87 -160.5 -165t-146.5 -98q-71 -26 -109 22q-22 28 -22 68v6
q23 -23 47 -28.5t36.5 -0.5t23.5 12q39 30 129.5 111.5t122.5 129.5q-27 16 -50 20q-37 6 -69 -12q-16 -8 -28 -21q-4 -5 -10.5 -15.5t-9.5 -14.5l2 54q1 30 26 46q15 9 31 15q35 12 70 5q33 -6 68 -31q62 93 101.5 150t89 120.5t80.5 89.5q12 11 27 5l60 -21
q14 -5 22.5 -16t2.5 -22q-17 -31 -37 -71.5t-38 -79.5t-31 -74t-17 -53q-12 -58 -16 -88zM559 211q7 30 26.5 96t27.5 80q-6 -4 -15.5 -15.5t-23 -32.5t-25 -40t-31.5 -52.5t-33 -55.5q17 -14 29 -22q16 -11 33 -20q4 26 12 62z" />
    <glyph glyph-name="A" unicode="&#xc1;" horiz-adv-x="848" 
d="M654 192q-3 -25 -7 -84q0 -1 -1 -14t-1.5 -20.5t-0.5 -23t1.5 -26.5t5.5 -24.5t9.5 -23t15 -17.5t22.5 -11q-43 -24 -89 -5.5t-59 66.5q-12 44 -5 103v1v1q-1 1 -3 1t-4 1q-42 10 -79 33q-70 -87 -160.5 -165t-146.5 -98q-71 -26 -109 22q-22 28 -22 68v6
q23 -23 47 -28.5t36.5 -0.5t23.5 12q39 30 129.5 111.5t122.5 129.5q-27 16 -50 20q-37 6 -69 -12q-16 -8 -28 -21q-4 -5 -10.5 -15.5t-9.5 -14.5l2 54q1 30 26 46q15 9 31 15q35 12 70 5q33 -6 68 -31q62 93 101.5 150t89 120.5t80.5 89.5q12 11 27 5l60 -21
q14 -5 22.5 -16t2.5 -22q-17 -31 -37 -71.5t-38 -79.5t-31 -74t-17 -53q-12 -58 -16 -88zM559 211q7 30 26.5 96t27.5 80q-6 -4 -15.5 -15.5t-23 -32.5t-25 -40t-31.5 -52.5t-33 -55.5q17 -14 29 -22q16 -11 33 -20q4 26 12 62z" />
    <glyph glyph-name="A" unicode="&#xc0;" horiz-adv-x="848" 
d="M654 192q-3 -25 -7 -84q0 -1 -1 -14t-1.5 -20.5t-0.5 -23t1.5 -26.5t5.5 -24.5t9.5 -23t15 -17.5t22.5 -11q-43 -24 -89 -5.5t-59 66.5q-12 44 -5 103v1v1q-1 1 -3 1t-4 1q-42 10 -79 33q-70 -87 -160.5 -165t-146.5 -98q-71 -26 -109 22q-22 28 -22 68v6
q23 -23 47 -28.5t36.5 -0.5t23.5 12q39 30 129.5 111.5t122.5 129.5q-27 16 -50 20q-37 6 -69 -12q-16 -8 -28 -21q-4 -5 -10.5 -15.5t-9.5 -14.5l2 54q1 30 26 46q15 9 31 15q35 12 70 5q33 -6 68 -31q62 93 101.5 150t89 120.5t80.5 89.5q12 11 27 5l60 -21
q14 -5 22.5 -16t2.5 -22q-17 -31 -37 -71.5t-38 -79.5t-31 -74t-17 -53q-12 -58 -16 -88zM559 211q7 30 26.5 96t27.5 80q-6 -4 -15.5 -15.5t-23 -32.5t-25 -40t-31.5 -52.5t-33 -55.5q17 -14 29 -22q16 -11 33 -20q4 26 12 62z" />
    <glyph glyph-name="B" unicode="B" horiz-adv-x="663" 
d="M571 177q56 4 103 0q-10 -15 -29 -15q-26 0 -68 -5q2 -11 3 -23q0 -22 -1 -32q-4 -32 -24 -62q-32 -44 -89 -71q-42 -20 -98 -32q-99 -20 -198 -9q-30 4 -51 9q-14 4 -25 8q-19 8 -28 15q-12 10 -16 22q-5 14 1 29q6 13 22 28q16 13 44 28q35 17 77 32q-22 15 -17 41
q15 85 60 245q7 24 22.5 43.5t36.5 32t46 16.5l79 11q-64 -101 -78 -130q-22 -45 -40 -91v-0.5v-1.5q40 9 83 26t72 33t44 29q8 6 17 16.5t19 29t12.5 37t-9 39.5t-40.5 37q-9 5 -28.5 10.5t-53 11t-80 -2t-91.5 -29.5q-47 -23 -81 -49.5t-50.5 -49.5t-25.5 -41.5t-12 -32
l-3 -13.5l-25 30q-13 16 -21.5 36.5t-11 45.5t7.5 51.5t31 52.5t62 51t98 44q64 21 120.5 29t96 5t73.5 -14.5t54 -25t36.5 -31t22.5 -27.5t10 -19q14 -28 15.5 -56.5t-8.5 -53t-23 -45.5t-30 -38t-28.5 -26.5t-19.5 -14.5q-36 -22 -79 -38q20 -5 38 -13q30 -14 49 -36
q17 -19 27 -46zM272 172q-7 -23 -14 -52q19 5 41 11q93 25 184 37q-9 14 -25 25q-26 18 -74 32q-26 7 -70 16q-10 -1 -21 -1q-13 -38 -21 -68zM494 114q0 2 1 16q-1 9 -2 14q-1 0 -2 -0.5t-2 -0.5q-74 -14 -180 -47q-32 -10 -59 -20h-0.5t-0.5 -1l-1 1q-102 -37 -92 -58
q9 -22 105 -17q49 2 88 12q36 8 78 31t56 46q9 12 11 24z" />
    <glyph glyph-name="C" unicode="C" horiz-adv-x="506" 
d="M175 74q25 -42 65.5 -46.5t81.5 20t81.5 62t70 76.5t42.5 67l13 -8q-53 -105 -117 -176q-40 -44 -82 -74q-59 -41 -114 -49q-39 -5 -74 6q-41 14 -68 46q-44 51 -50 133q-5 56 9 122q11 54 35 107q22 47 57 97q37 52 75 88q43 42 99 66t114 22h1q29 -1 54.5 -16t41.5 -40
q10 -15 16 -31.5t8 -29.5t0.5 -29t-3.5 -26.5t-7.5 -25.5t-8.5 -21.5t-9.5 -19t-7.5 -14.5q-22 -45 -79 -67.5t-99 2.5l-26 17q39 11 107 85q78 86 77 131q0 32 -51 25q-26 -4 -96 -76.5t-103 -143t-47.5 -136t-13.5 -99t8 -44.5z" />
    <glyph glyph-name="C" unicode="&#xc7;" horiz-adv-x="506" 
d="M175 74q25 -42 65.5 -46.5t81.5 20t81.5 62t70 76.5t42.5 67l13 -8q-53 -105 -117 -176q-40 -44 -82 -74q-59 -41 -114 -49q-39 -5 -74 6q-41 14 -68 46q-44 51 -50 133q-5 56 9 122q11 54 35 107q22 47 57 97q37 52 75 88q43 42 99 66t114 22h1q29 -1 54.5 -16t41.5 -40
q10 -15 16 -31.5t8 -29.5t0.5 -29t-3.5 -26.5t-7.5 -25.5t-8.5 -21.5t-9.5 -19t-7.5 -14.5q-22 -45 -79 -67.5t-99 2.5l-26 17q39 11 107 85q78 86 77 131q0 32 -51 25q-26 -4 -96 -76.5t-103 -143t-47.5 -136t-13.5 -99t8 -44.5z" />
    <glyph glyph-name="D" unicode="D" horiz-adv-x="744" 
d="M145 84q-13 5 -20 18t-4 27q15 85 60 245q10 37 39 62t66 30l79 11q-64 -101 -78 -130q-23 -45 -40 -91q-19 -49 -32 -95q-11 -37 -22 -97zM520 628q154 -43 178 -163t-89 -294q-44 -67 -106.5 -117.5t-125 -77.5t-124 -40.5t-109 -13t-75.5 11.5q-25 10 -39 29
t-16.5 38.5t-1.5 38t5 29.5l3 12l3 -18q22 -61 160 -46q24 3 51 7q130 24 226 147q81 104 90 211q8 105 -63 139q-21 10 -48 12q-65 6 -121.5 -1.5t-94.5 -23.5t-68.5 -37t-48.5 -43t-30 -40.5t-16 -29.5l-5 -12l2.5 50t10.5 89t24 77q56 67 164.5 86t263.5 -20z" />
    <glyph glyph-name="E" unicode="E" horiz-adv-x="653" 
d="M591 585q10 -24 10 -50q0 -3 -1 -19t-18 -41q-17 -20 -67 -24h-15q-42 0 -80 19q33 10 61 40t38 59q4 10 4 17q0 13 -13 15h-8q-39 0 -79 -22.5t-70 -57.5q-43 -48 -43 -82q0 -22 22 -34.5t59 -14.5q40 0 60 3l-11 -64q-89 -28 -147 -84q-59 -56 -82 -117
q-15 -39 -15 -71q0 -18 8.5 -47t64.5 -30q37 1 72 38t55 92q16 44 16 88q0 11 -1 22q49 -1 76.5 -40t27.5 -79q-4 -65 -43.5 -101t-96 -50t-109.5 -14q-71 0 -118 26t-71.5 68t-24.5 94q0 48 24.5 95.5t73.5 85.5t126 58q-134 2 -134 103q0 56 50 105q40 40 113 64
q63 22 150 22l23 -1q84 -4 113 -71z" />
    <glyph glyph-name="E" unicode="&#xcb;" horiz-adv-x="653" 
d="M591 585q10 -24 10 -50q0 -3 -1 -19t-18 -41q-17 -20 -67 -24h-15q-42 0 -80 19q33 10 61 40t38 59q4 10 4 17q0 13 -13 15h-8q-39 0 -79 -22.5t-70 -57.5q-43 -48 -43 -82q0 -22 22 -34.5t59 -14.5q40 0 60 3l-11 -64q-89 -28 -147 -84q-59 -56 -82 -117
q-15 -39 -15 -71q0 -18 8.5 -47t64.5 -30q37 1 72 38t55 92q16 44 16 88q0 11 -1 22q49 -1 76.5 -40t27.5 -79q-4 -65 -43.5 -101t-96 -50t-109.5 -14q-71 0 -118 26t-71.5 68t-24.5 94q0 48 24.5 95.5t73.5 85.5t126 58q-134 2 -134 103q0 56 50 105q40 40 113 64
q63 22 150 22l23 -1q84 -4 113 -71z" />
    <glyph glyph-name="E" unicode="&#xca;" horiz-adv-x="653" 
d="M591 585q10 -24 10 -50q0 -3 -1 -19t-18 -41q-17 -20 -67 -24h-15q-42 0 -80 19q33 10 61 40t38 59q4 10 4 17q0 13 -13 15h-8q-39 0 -79 -22.5t-70 -57.5q-43 -48 -43 -82q0 -22 22 -34.5t59 -14.5q40 0 60 3l-11 -64q-89 -28 -147 -84q-59 -56 -82 -117
q-15 -39 -15 -71q0 -18 8.5 -47t64.5 -30q37 1 72 38t55 92q16 44 16 88q0 11 -1 22q49 -1 76.5 -40t27.5 -79q-4 -65 -43.5 -101t-96 -50t-109.5 -14q-71 0 -118 26t-71.5 68t-24.5 94q0 48 24.5 95.5t73.5 85.5t126 58q-134 2 -134 103q0 56 50 105q40 40 113 64
q63 22 150 22l23 -1q84 -4 113 -71z" />
    <glyph glyph-name="E" unicode="&#xc9;" horiz-adv-x="653" 
d="M591 585q10 -24 10 -50q0 -3 -1 -19t-18 -41q-17 -20 -67 -24h-15q-42 0 -80 19q33 10 61 40t38 59q4 10 4 17q0 13 -13 15h-8q-39 0 -79 -22.5t-70 -57.5q-43 -48 -43 -82q0 -22 22 -34.5t59 -14.5q40 0 60 3l-11 -64q-89 -28 -147 -84q-59 -56 -82 -117
q-15 -39 -15 -71q0 -18 8.5 -47t64.5 -30q37 1 72 38t55 92q16 44 16 88q0 11 -1 22q49 -1 76.5 -40t27.5 -79q-4 -65 -43.5 -101t-96 -50t-109.5 -14q-71 0 -118 26t-71.5 68t-24.5 94q0 48 24.5 95.5t73.5 85.5t126 58q-134 2 -134 103q0 56 50 105q40 40 113 64
q63 22 150 22l23 -1q84 -4 113 -71z" />
    <glyph glyph-name="E" unicode="&#xc8;" horiz-adv-x="653" 
d="M591 585q10 -24 10 -50q0 -3 -1 -19t-18 -41q-17 -20 -67 -24h-15q-42 0 -80 19q33 10 61 40t38 59q4 10 4 17q0 13 -13 15h-8q-39 0 -79 -22.5t-70 -57.5q-43 -48 -43 -82q0 -22 22 -34.5t59 -14.5q40 0 60 3l-11 -64q-89 -28 -147 -84q-59 -56 -82 -117
q-15 -39 -15 -71q0 -18 8.5 -47t64.5 -30q37 1 72 38t55 92q16 44 16 88q0 11 -1 22q49 -1 76.5 -40t27.5 -79q-4 -65 -43.5 -101t-96 -50t-109.5 -14q-71 0 -118 26t-71.5 68t-24.5 94q0 48 24.5 95.5t73.5 85.5t126 58q-134 2 -134 103q0 56 50 105q40 40 113 64
q63 22 150 22l23 -1q84 -4 113 -71z" />
    <glyph glyph-name="F" unicode="F" horiz-adv-x="532" 
d="M102 573q10 24 38 33.5t66.5 7t85 -9.5t99 -11t102.5 -2t100.5 20.5t88.5 55.5q-1 -6 -2 -14.5t-8 -32t-18 -42.5t-33.5 -37t-52 -24t-55 -8t-40 -1t-25 3t-14.5 5l-4 2l-54 -217l90 -2l-9 -66h-108q-2 -7 -4 -17.5t-10.5 -42t-17.5 -60.5t-23 -64.5t-28.5 -61.5
t-33.5 -44.5t-38.5 -21t-37.5 1t-31.5 10t-25.5 15t-20.5 17.5t-14.5 17l-9 12l-3 5l21 2q72 19 138 159q65 134 112 363q-107 6 -132 0q-13 -3 -22 -24.5t-4.5 -46.5t26.5 -35l-34 15q-90 50 -56 137q0 2 1 4z" />
    <glyph glyph-name="G" unicode="G" horiz-adv-x="634" 
d="M436 409q29 23 45 40.5t28 44.5q11 24 11.5 56.5t-15.5 37.5q-19 4 -45.5 -4t-58 -28.5t-67 -61.5t-66.5 -96q-62 -110 -59 -233q2 -86 34 -104q9 -4 18 -2q27 5 62.5 42t58.5 70l22 34q-29 -9 -49 14t-7 50q1 2 1.5 4.5t2.5 8.5t4 9t3 1q14 -12 32 -19t34.5 -8.5
t31 -1.5t23.5 2l8 2q15 0 22.5 -13.5t-0.5 -25.5q-26 -41 -41.5 -89.5t-20 -94t-4 -77t3.5 -59.5q1 -10 -6.5 -15.5t-16.5 -2.5q-30 12 -47.5 39t-16.5 59l3 81q-29 -40 -65.5 -59.5t-70 -18t-66 17.5t-56.5 42.5t-39 62t-15 71.5q1 125 41 215.5t131 172.5
q59 52 135.5 71.5t136.5 2t76 -63.5q7 -19 8.5 -41.5t-1.5 -43.5t-8 -41.5t-11.5 -37.5t-12 -30.5t-9.5 -20.5l-4 -7q-40 -1 -81 -1q-19 0 -25.5 18.5t8.5 30.5z" />
    <glyph glyph-name="H" unicode="H" horiz-adv-x="605" 
d="M614 637q13 -21 -9 -92t-93 -243q-29 -72 -42.5 -135.5t-11 -102.5t9.5 -68t15 -41l8 -12q-5 -1 -12.5 -3.5t-29.5 -7t-41 -5.5t-41.5 4t-37.5 17.5t-22 39.5t-1 66q9 56 33 143h-123q-18 -65 -31.5 -131.5t-18.5 -101.5l-4 -34q-1 1 -11 0t-26 2t-31.5 8t-27.5 18
t-13 32q-6 70 150 486q14 37 21 67.5t6.5 47t-2.5 27.5t-5 15l-3 4q36 -1 59 -9.5t33.5 -27t12.5 -41.5t-6.5 -59.5t-21 -74t-34.5 -91.5q-15 -37 -28 -78h121q25 82 58.5 179t54.5 152l21 56q2 7 -5 13.5t-16 9.5l-9 2q5 0 14.5 -0.5t34 -2.5t44 -5t38 -9t23.5 -14z" />
    <glyph glyph-name="I" unicode="I" horiz-adv-x="341" 
d="M335 591q13 -57 -19.5 -180t-90.5 -249q-21 -45 -34 -87t-16 -70t-3 -49t2 -31l2 -10q0 2 -12 0t-30 3t-35.5 12t-29 26.5t-9.5 47.5q1 35 86 235q100 235 108 298q6 44 -18 43q-8 0 -20 -6q-39 -19 -64.5 -56t-33.5 -76t-10.5 -75.5t0.5 -59.5l3 -24q-44 9 -67.5 29.5
t-28.5 46t4.5 60.5t25.5 67t41 71q22 34 53 56.5t62 29.5t59.5 4t48.5 -18t26 -38z" />
    <glyph glyph-name="I" unicode="&#xcf;" horiz-adv-x="341" 
d="M335 591q13 -57 -19.5 -180t-90.5 -249q-21 -45 -34 -87t-16 -70t-3 -49t2 -31l2 -10q0 2 -12 0t-30 3t-35.5 12t-29 26.5t-9.5 47.5q1 35 86 235q100 235 108 298q6 44 -18 43q-8 0 -20 -6q-39 -19 -64.5 -56t-33.5 -76t-10.5 -75.5t0.5 -59.5l3 -24q-44 9 -67.5 29.5
t-28.5 46t4.5 60.5t25.5 67t41 71q22 34 53 56.5t62 29.5t59.5 4t48.5 -18t26 -38z" />
    <glyph glyph-name="I" unicode="&#xce;" horiz-adv-x="341" 
d="M335 591q13 -57 -19.5 -180t-90.5 -249q-21 -45 -34 -87t-16 -70t-3 -49t2 -31l2 -10q0 2 -12 0t-30 3t-35.5 12t-29 26.5t-9.5 47.5q1 35 86 235q100 235 108 298q6 44 -18 43q-8 0 -20 -6q-39 -19 -64.5 -56t-33.5 -76t-10.5 -75.5t0.5 -59.5l3 -24q-44 9 -67.5 29.5
t-28.5 46t4.5 60.5t25.5 67t41 71q22 34 53 56.5t62 29.5t59.5 4t48.5 -18t26 -38z" />
    <glyph glyph-name="I" unicode="&#xcd;" horiz-adv-x="341" 
d="M335 591q13 -57 -19.5 -180t-90.5 -249q-21 -45 -34 -87t-16 -70t-3 -49t2 -31l2 -10q0 2 -12 0t-30 3t-35.5 12t-29 26.5t-9.5 47.5q1 35 86 235q100 235 108 298q6 44 -18 43q-8 0 -20 -6q-39 -19 -64.5 -56t-33.5 -76t-10.5 -75.5t0.5 -59.5l3 -24q-44 9 -67.5 29.5
t-28.5 46t4.5 60.5t25.5 67t41 71q22 34 53 56.5t62 29.5t59.5 4t48.5 -18t26 -38z" />
    <glyph glyph-name="I" unicode="&#xcc;" horiz-adv-x="341" 
d="M335 591q13 -57 -19.5 -180t-90.5 -249q-21 -45 -34 -87t-16 -70t-3 -49t2 -31l2 -10q0 2 -12 0t-30 3t-35.5 12t-29 26.5t-9.5 47.5q1 35 86 235q100 235 108 298q6 44 -18 43q-8 0 -20 -6q-39 -19 -64.5 -56t-33.5 -76t-10.5 -75.5t0.5 -59.5l3 -24q-44 9 -67.5 29.5
t-28.5 46t4.5 60.5t25.5 67t41 71q22 34 53 56.5t62 29.5t59.5 4t48.5 -18t26 -38z" />
    <glyph glyph-name="J" unicode="J" horiz-adv-x="461" 
d="M396 214q14 -1 27.5 -5t32.5 -11.5t26 -9.5l-4 -15q-50 12 -102 12q-22 -39 -46 -73q-38 -57 -80 -99q-29 -28 -51 -43q-38 -24 -71 -29q-21 -2 -40 1q-29 4 -46 23q-20 21 -16 52q2 18 12 38q14 28 40 55q22 22 50 40q52 34 115 50q3 0 30 82.5t50 181t16 132.5
q-16 70 -75 -13l-9 -14q-42 -62 -69 -115.5t-37.5 -87t-14.5 -56.5t-3.5 -36.5t-0.5 -15.5q-45 16 -74 55.5t-31 84.5t21 90q27 44 64 75q59 51 110.5 81.5t87.5 39.5t66 5.5t48.5 -17t31.5 -33t19 -38t7 -36.5q4 -23 1.5 -53t-5.5 -54t-10.5 -53t-14 -50t-15.5 -45
t-14.5 -38.5t-12.5 -29.5t-9.5 -19.5t-3.5 -8.5zM185 71q26 36 52 87q-45 -19 -80 -47q-22 -18 -38 -38q-21 -24 -26 -42q-2 -7 -2.5 -12t1 -7t4 -3t5.5 -0.5t5.5 1t5.5 1.5t4 2q16 4 35 21q17 15 34 37z" />
    <glyph glyph-name="K" unicode="K" horiz-adv-x="687" 
d="M624 626q-71 -46 -116 -86q-39 -33 -89 -83q8 -38 25 -96t40 -125t47 -127.5t49.5 -107t43.5 -60.5q21 -15 41 -20.5t34 -1.5t24.5 10t16.5 12l5 6q-9 -25 -25 -47.5t-41 -40.5t-55.5 -20t-68.5 15q-30 15 -66 82.5t-68.5 162t-51.5 156t-34 116.5l-6 -6l-5 -5
q-24 -65 -52 -127q-22 -47 -35.5 -90.5t-16.5 -72t-3 -50.5t2 -33l2 -10q0 2 -12.5 0t-31.5 3t-36.5 12.5t-29.5 27.5t-11 49q2 37 88 240q102 240 113 307q8 52 -18 51q-8 -1 -20 -6q-41 -20 -67.5 -58.5t-34.5 -79t-10.5 -78.5t0.5 -62l3 -24q-46 9 -70.5 30.5t-29.5 48
t5 62.5t26.5 69t42.5 74q22 36 54.5 59t64.5 30t62 4t50.5 -18.5t26.5 -39.5q13 -55 -17 -173q37 52 79 97q69 73 126 106q40 23 80 35h1q35 9 65 -11.5t35 -55.5l9 -60q-20 24 -46.5 30.5t-49 0t-44.5 -20.5z" />
    <glyph glyph-name="L" unicode="L" horiz-adv-x="561" 
d="M263 36h4q45 -1 65.5 -2.5t53 -5.5t47 -11t34 -20t26.5 -32t11.5 -46.5t2.5 -64.5q-1 4 -3.5 10t-16 21.5t-33 28t-57.5 22.5t-86 10q-11 1 -32 1q-45 0 -66.5 0.5t-57 4.5t-50.5 11t-33 21t-19.5 34.5t5.5 52t28 71.5q-1 -2 -2.5 -7t-1 -17.5t5.5 -24t21.5 -24.5
t42.5 -20q-4 14 -3 32q2 37 87 238q101 239 111 304q7 48 -19 47q-8 -1 -19 -6q-41 -20 -66.5 -58t-34 -78t-10.5 -77t1 -61l3 -24q-45 10 -69.5 31t-29.5 47t4.5 61.5t26.5 68t42 72.5q16 26 37.5 45t43.5 29.5t45 15.5t44 3t38.5 -9t29.5 -20t16 -29q14 -59 -19.5 -184.5
t-92.5 -253.5q-54 -116 -55 -207z" />
    <glyph glyph-name="M" unicode="M" horiz-adv-x="928" 
d="M818 663q4 -1 10.5 -3.5t20 -14.5t21 -28.5t6 -48.5t-18.5 -72q-9 -22 -35.5 -82t-44.5 -103t-39 -105.5t-28.5 -108.5t-2 -92t30.5 -75q-3 0 -9 -1t-23 -1t-32.5 2t-34 9.5t-31.5 19.5t-21 34t-7 51q1 40 15.5 90t33.5 92.5t37.5 79.5t31.5 59l13 21l-259 -336
q-20 1 -33.5 13.5t-13.5 29.5v168q-1 -7 -3.5 -18t-11.5 -43.5t-19.5 -62.5t-27 -67.5t-35 -65.5t-43.5 -49.5t-52 -26.5q-35 -7 -64.5 0.5t-48.5 25.5t-29.5 33t-17.5 32q-2 4 2 7t8 1q14 -7 28.5 -11t36.5 -3.5t42 9t41.5 32t37.5 61.5q58 136 106 313.5t36 234.5
q5 0 13 -1t28.5 -9t35 -22.5t24 -45.5t4.5 -73q-7 -79 -6.5 -150t4.5 -121l4 -49q6 9 17.5 24t43.5 59.5t61.5 85.5t65.5 93.5t63 92.5t47 72.5t22 43.5z" />
    <glyph glyph-name="N" unicode="N" horiz-adv-x="801" 
d="M785 596q30 -16 39.5 -47t-6.5 -59q-29 -54 -56.5 -109.5t-57.5 -130t-46 -149.5t-11 -134q2 -19 -15.5 -30t-35.5 -1q-77 39 -103 142q-18 69 -31.5 129.5t-17.5 86.5l-5 26q-1 -7 -3 -19t-9.5 -47t-16 -68t-22.5 -75t-29 -74.5t-35 -59.5t-41 -37q-28 -14 -64 -18
t-70.5 1t-64 17.5t-48 35t-18.5 49.5q6 -2 15 -4.5t36.5 -5.5t54 0.5t61 20t63 45.5t55 83.5t41.5 129.5q17 84 25.5 150t8.5 100t-2.5 55.5t-6.5 27.5l-4 6q6 -2 15 -5.5t32 -17t40.5 -29.5t31.5 -43t14 -58q0 -108 15 -226t46 -153q3 12 7.5 33.5t20.5 83t35 118.5
t49 126.5t62 120.5q8 13 23.5 16.5t28.5 -3.5z" />
    <glyph glyph-name="N" unicode="&#xd1;" horiz-adv-x="801" 
d="M785 596q30 -16 39.5 -47t-6.5 -59q-29 -54 -56.5 -109.5t-57.5 -130t-46 -149.5t-11 -134q2 -19 -15.5 -30t-35.5 -1q-77 39 -103 142q-18 69 -31.5 129.5t-17.5 86.5l-5 26q-1 -7 -3 -19t-9.5 -47t-16 -68t-22.5 -75t-29 -74.5t-35 -59.5t-41 -37q-28 -14 -64 -18
t-70.5 1t-64 17.5t-48 35t-18.5 49.5q6 -2 15 -4.5t36.5 -5.5t54 0.5t61 20t63 45.5t55 83.5t41.5 129.5q17 84 25.5 150t8.5 100t-2.5 55.5t-6.5 27.5l-4 6q6 -2 15 -5.5t32 -17t40.5 -29.5t31.5 -43t14 -58q0 -108 15 -226t46 -153q3 12 7.5 33.5t20.5 83t35 118.5
t49 126.5t62 120.5q8 13 23.5 16.5t28.5 -3.5z" />
    <glyph glyph-name="O" unicode="O" horiz-adv-x="635" 
d="M341 610q57 13 113 -1t93 -55.5t35 -100.5q-3 -109 -61 -223q-53 -105 -174 -242q-52 -59 -91 -74q-33 -14 -69 -3.5t-51 41.5q-33 63 -21 154q-38 17 -52.5 58.5t-9.5 82.5t19 82q38 107 97 174q74 85 172 107zM491 382q11 32 4.5 69t-32.5 59q-38 31 -96 18
q-42 -10 -88 -48q-61 -50 -103 -121.5t-51 -145.5q-3 -27 4 -41q9 29 20 55q15 34 29 61q8 15 16 26q8 13 23.5 16.5t28.5 -5.5l5 -3q11 -8 14 -20t-2 -23q-4 -7 -15 -26.5t-16 -30.5q-19 -41 -28 -81q49 3 87 45q11 -22 1.5 -44t-33.5 -30q-21 -7 -34 -10q-15 -4 -29 -5
q-4 -38 1 -70q3 -19 22.5 -26t34.5 6q11 7 21 17q28 27 61 71q35 46 68 101q63 108 87 186z" />
    <glyph glyph-name="O" unicode="&#xd8;" horiz-adv-x="635" 
d="M341 610q57 13 113 -1t93 -55.5t35 -100.5q-3 -109 -61 -223q-53 -105 -174 -242q-52 -59 -91 -74q-33 -14 -69 -3.5t-51 41.5q-33 63 -21 154q-38 17 -52.5 58.5t-9.5 82.5t19 82q38 107 97 174q74 85 172 107zM491 382q11 32 4.5 69t-32.5 59q-38 31 -96 18
q-42 -10 -88 -48q-61 -50 -103 -121.5t-51 -145.5q-3 -27 4 -41q9 29 20 55q15 34 29 61q8 15 16 26q8 13 23.5 16.5t28.5 -5.5l5 -3q11 -8 14 -20t-2 -23q-4 -7 -15 -26.5t-16 -30.5q-19 -41 -28 -81q49 3 87 45q11 -22 1.5 -44t-33.5 -30q-21 -7 -34 -10q-15 -4 -29 -5
q-4 -38 1 -70q3 -19 22.5 -26t34.5 6q11 7 21 17q28 27 61 71q35 46 68 101q63 108 87 186z" />
    <glyph glyph-name="O" unicode="&#xd6;" horiz-adv-x="635" 
d="M341 610q57 13 113 -1t93 -55.5t35 -100.5q-3 -109 -61 -223q-53 -105 -174 -242q-52 -59 -91 -74q-33 -14 -69 -3.5t-51 41.5q-33 63 -21 154q-38 17 -52.5 58.5t-9.5 82.5t19 82q38 107 97 174q74 85 172 107zM491 382q11 32 4.5 69t-32.5 59q-38 31 -96 18
q-42 -10 -88 -48q-61 -50 -103 -121.5t-51 -145.5q-3 -27 4 -41q9 29 20 55q15 34 29 61q8 15 16 26q8 13 23.5 16.5t28.5 -5.5l5 -3q11 -8 14 -20t-2 -23q-4 -7 -15 -26.5t-16 -30.5q-19 -41 -28 -81q49 3 87 45q11 -22 1.5 -44t-33.5 -30q-21 -7 -34 -10q-15 -4 -29 -5
q-4 -38 1 -70q3 -19 22.5 -26t34.5 6q11 7 21 17q28 27 61 71q35 46 68 101q63 108 87 186z" />
    <glyph glyph-name="O" unicode="&#xd5;" horiz-adv-x="635" 
d="M341 610q57 13 113 -1t93 -55.5t35 -100.5q-3 -109 -61 -223q-53 -105 -174 -242q-52 -59 -91 -74q-33 -14 -69 -3.5t-51 41.5q-33 63 -21 154q-38 17 -52.5 58.5t-9.5 82.5t19 82q38 107 97 174q74 85 172 107zM491 382q11 32 4.5 69t-32.5 59q-38 31 -96 18
q-42 -10 -88 -48q-61 -50 -103 -121.5t-51 -145.5q-3 -27 4 -41q9 29 20 55q15 34 29 61q8 15 16 26q8 13 23.5 16.5t28.5 -5.5l5 -3q11 -8 14 -20t-2 -23q-4 -7 -15 -26.5t-16 -30.5q-19 -41 -28 -81q49 3 87 45q11 -22 1.5 -44t-33.5 -30q-21 -7 -34 -10q-15 -4 -29 -5
q-4 -38 1 -70q3 -19 22.5 -26t34.5 6q11 7 21 17q28 27 61 71q35 46 68 101q63 108 87 186z" />
    <glyph glyph-name="O" unicode="&#xd4;" horiz-adv-x="635" 
d="M341 610q57 13 113 -1t93 -55.5t35 -100.5q-3 -109 -61 -223q-53 -105 -174 -242q-52 -59 -91 -74q-33 -14 -69 -3.5t-51 41.5q-33 63 -21 154q-38 17 -52.5 58.5t-9.5 82.5t19 82q38 107 97 174q74 85 172 107zM491 382q11 32 4.5 69t-32.5 59q-38 31 -96 18
q-42 -10 -88 -48q-61 -50 -103 -121.5t-51 -145.5q-3 -27 4 -41q9 29 20 55q15 34 29 61q8 15 16 26q8 13 23.5 16.5t28.5 -5.5l5 -3q11 -8 14 -20t-2 -23q-4 -7 -15 -26.5t-16 -30.5q-19 -41 -28 -81q49 3 87 45q11 -22 1.5 -44t-33.5 -30q-21 -7 -34 -10q-15 -4 -29 -5
q-4 -38 1 -70q3 -19 22.5 -26t34.5 6q11 7 21 17q28 27 61 71q35 46 68 101q63 108 87 186z" />
    <glyph glyph-name="O" unicode="&#xd3;" horiz-adv-x="635" 
d="M341 610q57 13 113 -1t93 -55.5t35 -100.5q-3 -109 -61 -223q-53 -105 -174 -242q-52 -59 -91 -74q-33 -14 -69 -3.5t-51 41.5q-33 63 -21 154q-38 17 -52.5 58.5t-9.5 82.5t19 82q38 107 97 174q74 85 172 107zM491 382q11 32 4.5 69t-32.5 59q-38 31 -96 18
q-42 -10 -88 -48q-61 -50 -103 -121.5t-51 -145.5q-3 -27 4 -41q9 29 20 55q15 34 29 61q8 15 16 26q8 13 23.5 16.5t28.5 -5.5l5 -3q11 -8 14 -20t-2 -23q-4 -7 -15 -26.5t-16 -30.5q-19 -41 -28 -81q49 3 87 45q11 -22 1.5 -44t-33.5 -30q-21 -7 -34 -10q-15 -4 -29 -5
q-4 -38 1 -70q3 -19 22.5 -26t34.5 6q11 7 21 17q28 27 61 71q35 46 68 101q63 108 87 186z" />
    <glyph glyph-name="O" unicode="&#xd2;" horiz-adv-x="635" 
d="M341 610q57 13 113 -1t93 -55.5t35 -100.5q-3 -109 -61 -223q-53 -105 -174 -242q-52 -59 -91 -74q-33 -14 -69 -3.5t-51 41.5q-33 63 -21 154q-38 17 -52.5 58.5t-9.5 82.5t19 82q38 107 97 174q74 85 172 107zM491 382q11 32 4.5 69t-32.5 59q-38 31 -96 18
q-42 -10 -88 -48q-61 -50 -103 -121.5t-51 -145.5q-3 -27 4 -41q9 29 20 55q15 34 29 61q8 15 16 26q8 13 23.5 16.5t28.5 -5.5l5 -3q11 -8 14 -20t-2 -23q-4 -7 -15 -26.5t-16 -30.5q-19 -41 -28 -81q49 3 87 45q11 -22 1.5 -44t-33.5 -30q-21 -7 -34 -10q-15 -4 -29 -5
q-4 -38 1 -70q3 -19 22.5 -26t34.5 6q11 7 21 17q28 27 61 71q35 46 68 101q63 108 87 186z" />
    <glyph glyph-name="P" unicode="P" horiz-adv-x="661" 
d="M583 548q20 -26 24.5 -62.5t-6.5 -77.5t-41.5 -86t-76.5 -86q-107 -92 -229 -83q-19 -41 -30.5 -79t-14 -63.5t-2.5 -44.5t2 -28l2 -9q-1 1 -13 -0.5t-31 3t-37 11.5t-30 26t-10 46q1 25 28 90t71 161.5t65 149.5q54 49 116 52q-20 -95 -70 -213q84 -2 176 87
q38 37 57.5 71.5t18 61t-22.5 45t-63.5 24.5t-106.5 0q-43 -5 -79 -20t-58 -35t-38.5 -42.5t-24.5 -44.5t-12.5 -40t-5.5 -28l-1 -11q-40 8 -63 27t-24.5 45.5t13.5 56.5t49 61.5t83 59.5q47 27 98 40t94 11.5t82 -11.5t67 -27.5t44 -37.5z" />
    <glyph glyph-name="Q" unicode="Q" horiz-adv-x="574" 
d="M406 114q53 -69 82.5 -88t55.5 -13q-7 -8 -20 -19t-45.5 -29t-55.5 -17q-36 3 -87 95q-14 -17 -27 -32q-52 -58 -91 -74q-33 -14 -69 -3t-51 42q-33 62 -21 154q-23 10 -38 30t-20 43t-4 50.5t6 51.5t13 47q38 108 97 175q74 85 172 106q57 13 113 -1t93 -55t35 -101
q-3 -109 -61 -223q-32 -63 -84 -131q1 -1 3 -3.5t4 -4.5zM366 220q63 107 87 185q11 32 4.5 69.5t-32.5 58.5q-38 32 -96 18q-42 -10 -88 -47q-40 -33 -72.5 -76t-54 -92.5t-27.5 -98.5q-3 -27 4 -42q9 29 20 56q15 34 29 60q9 15 16 27q8 13 23.5 16t28.5 -5l5 -4
q11 -7 14 -19t-2 -23q-4 -8 -10 -18.5t-11.5 -20.5t-9.5 -18q-19 -42 -28 -82q49 4 87 45q11 -21 1.5 -43.5t-33.5 -30.5q-21 -7 -34 -10q-15 -3 -29 -5q-4 -37 1 -69q3 -19 22.5 -26t34.5 5q10 8 21 18q28 26 61 70l0.5 0.5l0.5 0.5q-5 10 -6 13q-10 20 -12.5 39t-0.5 27
l3 8q21 3 58 -25q17 25 25 39z" />
    <glyph glyph-name="R" unicode="R" horiz-adv-x="610" 
d="M396 81q21 -23 63 -28.5t74 1.5l32 6q-3 -6 -8 -15.5t-21.5 -32.5t-35 -40t-46.5 -27.5t-58 -4.5q-26 5 -49.5 29t-40 59t-27.5 65.5t-19 63.5q-25 -2 -47 -1q-19 -41 -30.5 -79t-14 -63.5t-2.5 -44.5t2 -28l2 -9q-1 1 -13 -0.5t-31 3t-37 11.5t-30 26t-10 46q1 25 28 90
t71 161.5t65 149.5q54 49 116 52q-20 -95 -70 -213q84 -2 176 87q38 37 57.5 71.5t18 61t-22.5 45t-63.5 24.5t-106.5 0q-43 -5 -79 -20t-58 -35t-38.5 -42.5t-24.5 -44.5t-12.5 -40t-5.5 -29l-1 -10q-40 8 -63 27t-24.5 45.5t13.5 56.5t49 61.5t83 59.5q39 23 81.5 35.5
t80 15t73 -2.5t64.5 -16t51 -25.5t35 -32.5q20 -25 24.5 -61.5t-6.5 -77.5t-41.5 -86.5t-77.5 -85.5q-47 -41 -102 -62q23 -57 57 -96z" />
    <glyph glyph-name="S" unicode="S" horiz-adv-x="582" 
d="M345 325q30 12 55.5 29.5t42.5 36.5t30.5 39t20.5 38.5t10 34.5t1 27t-7 16q-17 15 -63.5 -15.5t-92.5 -78.5t-69 -85q-7 -12 -16 -36.5t-13 -48t6 -28.5q18 -9 52.5 -20t45.5 -15l87 -28q31 -15 43 -36.5t7 -43t-12 -35.5t-15 -24q-36 -46 -126.5 -71t-179.5 -29
q-45 -2 -77 9q-41 14 -53 44q-16 37 18 75q7 7 18 15q11 -49 21 -59q6 -15 38 -12q106 9 197 54q30 16 43 31q21 22 13 44q-6 18 -42 30q-31 12 -48 13q-63 13 -66 14q-113 36 -98 132q6 39 35 81q74 107 205 166q70 31 125 28q34 -2 53.5 -18.5t28.5 -52.5q14 -64 11 -111
t-21 -79t-41 -49.5t-49 -22.5q-19 -2 -36.5 0.5t-32 9.5t-25.5 13.5t-17 12.5z" />
    <glyph glyph-name="T" unicode="T" horiz-adv-x="511" 
d="M459 681q32 -6 70.5 -9.5t74 -4t71 0.5t65 3.5t52 4.5t35.5 3l12 2q0 -2 -1 -6.5t-6.5 -17t-14.5 -25.5t-27.5 -30.5t-43.5 -32.5q-23 -15 -52.5 -15t-56 9t-73 18.5t-92.5 10.5q1 -64 -30 -168.5t-79 -207.5q-20 -44 -32 -84t-15 -66.5t-3 -47t2 -29.5l2 -10q-1 2 -12 0
t-28.5 3t-34 11.5t-27.5 25.5t-10 45q2 31 49.5 143.5t93 227.5t44.5 156q0 5 -59 -4.5t-70 -13.5q-66 -22 -113 -65q-35 -33 -56 -76q-16 -31 -14 -34q-27 43 -27.5 86t21 77t60 63t90 44.5t111.5 20.5t124 -8z" />
    <glyph glyph-name="U" unicode="U" horiz-adv-x="912" 
d="M893 554q-89 -213 -139 -367q-11 -31 -16.5 -60.5t-6 -51t1 -40.5t5 -32t7 -22t6.5 -13l3 -5q-18 -11 -35 -17t-36.5 -2.5t-34 20.5t-23 56.5t-6.5 99.5q0 19 2 39q-110 -212 -182 -237q-25 -9 -45.5 -9t-34.5 6.5t-25 20t-17 27.5t-10.5 33.5t-6 34.5t-3.5 34
q-1 28 27.5 147t48.5 218.5t2 101.5q-32 5 -72.5 -46t-87.5 -157q-13 -29 -18.5 -55t-4 -44t6.5 -33t12.5 -24.5t14.5 -16t12 -9.5l4 -3q-50 -13 -85 -10.5t-57.5 12t-33 29.5t-13 43.5t3 52.5t15 56.5t23.5 56.5q22 46 61 85.5t82.5 65.5t88 41.5t82.5 17.5
q35 2 58.5 -20.5t32 -61.5t6 -87t-14.5 -99q-7 -26 -16.5 -60t-18.5 -64t-18.5 -61t-16.5 -55.5t-11 -44.5t-3 -31t8 -11q25 -2 62 25.5t69 76.5q35 52 121 271q10 30 21 60.5t20 52t17 39t12 26.5l4 9q13 9 28 14t29 4.5t28.5 -3t26.5 -6.5t21 -8t14 -7z" />
    <glyph glyph-name="U" unicode="&#xdc;" horiz-adv-x="912" 
d="M893 554q-89 -213 -139 -367q-11 -31 -16.5 -60.5t-6 -51t1 -40.5t5 -32t7 -22t6.5 -13l3 -5q-18 -11 -35 -17t-36.5 -2.5t-34 20.5t-23 56.5t-6.5 99.5q0 19 2 39q-110 -212 -182 -237q-25 -9 -45.5 -9t-34.5 6.5t-25 20t-17 27.5t-10.5 33.5t-6 34.5t-3.5 34
q-1 28 27.5 147t48.5 218.5t2 101.5q-32 5 -72.5 -46t-87.5 -157q-13 -29 -18.5 -55t-4 -44t6.5 -33t12.5 -24.5t14.5 -16t12 -9.5l4 -3q-50 -13 -85 -10.5t-57.5 12t-33 29.5t-13 43.5t3 52.5t15 56.5t23.5 56.5q22 46 61 85.5t82.5 65.5t88 41.5t82.5 17.5
q35 2 58.5 -20.5t32 -61.5t6 -87t-14.5 -99q-7 -26 -16.5 -60t-18.5 -64t-18.5 -61t-16.5 -55.5t-11 -44.5t-3 -31t8 -11q25 -2 62 25.5t69 76.5q35 52 121 271q10 30 21 60.5t20 52t17 39t12 26.5l4 9q13 9 28 14t29 4.5t28.5 -3t26.5 -6.5t21 -8t14 -7z" />
    <glyph glyph-name="U" unicode="&#xdb;" horiz-adv-x="912" 
d="M893 554q-89 -213 -139 -367q-11 -31 -16.5 -60.5t-6 -51t1 -40.5t5 -32t7 -22t6.5 -13l3 -5q-18 -11 -35 -17t-36.5 -2.5t-34 20.5t-23 56.5t-6.5 99.5q0 19 2 39q-110 -212 -182 -237q-25 -9 -45.5 -9t-34.5 6.5t-25 20t-17 27.5t-10.5 33.5t-6 34.5t-3.5 34
q-1 28 27.5 147t48.5 218.5t2 101.5q-32 5 -72.5 -46t-87.5 -157q-13 -29 -18.5 -55t-4 -44t6.5 -33t12.5 -24.5t14.5 -16t12 -9.5l4 -3q-50 -13 -85 -10.5t-57.5 12t-33 29.5t-13 43.5t3 52.5t15 56.5t23.5 56.5q22 46 61 85.5t82.5 65.5t88 41.5t82.5 17.5
q35 2 58.5 -20.5t32 -61.5t6 -87t-14.5 -99q-7 -26 -16.5 -60t-18.5 -64t-18.5 -61t-16.5 -55.5t-11 -44.5t-3 -31t8 -11q25 -2 62 25.5t69 76.5q35 52 121 271q10 30 21 60.5t20 52t17 39t12 26.5l4 9q13 9 28 14t29 4.5t28.5 -3t26.5 -6.5t21 -8t14 -7z" />
    <glyph glyph-name="U" unicode="&#xda;" horiz-adv-x="912" 
d="M893 554q-89 -213 -139 -367q-11 -31 -16.5 -60.5t-6 -51t1 -40.5t5 -32t7 -22t6.5 -13l3 -5q-18 -11 -35 -17t-36.5 -2.5t-34 20.5t-23 56.5t-6.5 99.5q0 19 2 39q-110 -212 -182 -237q-25 -9 -45.5 -9t-34.5 6.5t-25 20t-17 27.5t-10.5 33.5t-6 34.5t-3.5 34
q-1 28 27.5 147t48.5 218.5t2 101.5q-32 5 -72.5 -46t-87.5 -157q-13 -29 -18.5 -55t-4 -44t6.5 -33t12.5 -24.5t14.5 -16t12 -9.5l4 -3q-50 -13 -85 -10.5t-57.5 12t-33 29.5t-13 43.5t3 52.5t15 56.5t23.5 56.5q22 46 61 85.5t82.5 65.5t88 41.5t82.5 17.5
q35 2 58.5 -20.5t32 -61.5t6 -87t-14.5 -99q-7 -26 -16.5 -60t-18.5 -64t-18.5 -61t-16.5 -55.5t-11 -44.5t-3 -31t8 -11q25 -2 62 25.5t69 76.5q35 52 121 271q10 30 21 60.5t20 52t17 39t12 26.5l4 9q13 9 28 14t29 4.5t28.5 -3t26.5 -6.5t21 -8t14 -7z" />
    <glyph glyph-name="U" unicode="&#xd9;" horiz-adv-x="912" 
d="M893 554q-89 -213 -139 -367q-11 -31 -16.5 -60.5t-6 -51t1 -40.5t5 -32t7 -22t6.5 -13l3 -5q-18 -11 -35 -17t-36.5 -2.5t-34 20.5t-23 56.5t-6.5 99.5q0 19 2 39q-110 -212 -182 -237q-25 -9 -45.5 -9t-34.5 6.5t-25 20t-17 27.5t-10.5 33.5t-6 34.5t-3.5 34
q-1 28 27.5 147t48.5 218.5t2 101.5q-32 5 -72.5 -46t-87.5 -157q-13 -29 -18.5 -55t-4 -44t6.5 -33t12.5 -24.5t14.5 -16t12 -9.5l4 -3q-50 -13 -85 -10.5t-57.5 12t-33 29.5t-13 43.5t3 52.5t15 56.5t23.5 56.5q22 46 61 85.5t82.5 65.5t88 41.5t82.5 17.5
q35 2 58.5 -20.5t32 -61.5t6 -87t-14.5 -99q-7 -26 -16.5 -60t-18.5 -64t-18.5 -61t-16.5 -55.5t-11 -44.5t-3 -31t8 -11q25 -2 62 25.5t69 76.5q35 52 121 271q10 30 21 60.5t20 52t17 39t12 26.5l4 9q13 9 28 14t29 4.5t28.5 -3t26.5 -6.5t21 -8t14 -7z" />
    <glyph glyph-name="V" unicode="V" horiz-adv-x="641" 
d="M562 609q4 -1 10 -4t22.5 -14.5t23 -29.5t11 -49.5t-13.5 -74.5q-22 -66 -99 -196t-142 -227l-66 -97l-56 31q-33 19 -47.5 53t-3.5 69q98 320 107 402q5 53 -33 51q-41 -2 -86 -51q-27 -30 -40 -63q-10 -27 -14 -54t-2 -45.5t5.5 -33.5t7.5 -22l3 -8q-30 1 -54 20
t-34 50.5t-7.5 67.5t28 75t69.5 70q55 38 102 51t77 3t48.5 -32t24.5 -53q5 -23 -2 -75.5t-19.5 -112t-25.5 -115.5t-23 -92l-10 -37q162 262 207 372q20 50 28 92.5t6 60.5z" />
    <glyph glyph-name="W" unicode="W" horiz-adv-x="781" 
d="M771 536q9 -34 -30 -141t-94.5 -217.5t-117.5 -193t-95 -71.5q-59 19 -46 198q-14 -22 -28 -45t-25.5 -42t-22.5 -36.5t-19.5 -31t-15 -23.5t-9.5 -15l-3 -5l-55 32q-33 20 -47.5 55.5t-3.5 72.5q96 332 105 419q6 54 -32 52q-39 -2 -83 -52q-27 -31 -40 -67
q-17 -51 -17 -88.5t8 -59.5l9 -21q-30 1 -53.5 21t-33.5 52.5t-7.5 70t27.5 78t68 72.5q44 32 82.5 47t66 13.5t49 -14t33.5 -32.5t17 -46q7 -37 -13 -149.5t-43 -206.5l-23 -94q159 273 204 388q19 51 27 95.5t6 63.5l-3 18q2 0 6 -1.5t13.5 -7t17.5 -13t16 -22t11 -32
t1 -44.5t-12 -58q-21 -65 -92 -194q1 -20 2 -43t2 -42t2.5 -38t3.5 -33.5t3 -25.5t2 -17l1 -6q7 11 21 32t52 99t72 169q16 42 27 80t17 65t9 50t3 38t-0.5 25t-1.5 15l-1 4h3.5t9 -2.5t13 -6t15 -10.5t16 -17t15 -25.5t11.5 -35.5z" />
    <glyph glyph-name="X" unicode="X" horiz-adv-x="782" 
d="M597 59q12 -25 30 -40.5t35.5 -20.5t33 -6.5t24.5 -0.5l10 2q-1 -1 -1.5 -2.5t-4 -6.5t-9 -9t-16.5 -9.5t-25 -10t-36 -8.5t-48 -5q-38 -3 -70.5 33t-60.5 101q-14 -16 -23 -26q-50 -58 -108.5 -95.5t-105 -50t-86.5 -16.5t-62 0l-22 3q2 0 4 1t11.5 6t22.5 13t36.5 25.5
t51.5 40t70.5 59.5t91.5 82q40 37 76 78q-9 28 -32 107t-34 109q-15 39 -35.5 66.5t-39.5 38.5t-36.5 16.5t-27.5 4.5l-10 -1q130 87 224 1q28 -26 84 -210q37 63 60.5 127.5t28.5 96.5l5 33q46 -16 73.5 -38.5t38.5 -46.5t6.5 -55t-17 -59.5t-38.5 -66t-51 -68t-61 -71.5
q28 -91 43 -121z" />
    <glyph glyph-name="Y" unicode="Y" horiz-adv-x="818" 
d="M788 553l38 -6q-22 -107 -49 -191q-27 -86 -67 -180q-33 -77 -71 -143q35 2 66 0v-16q-38 0 -80 -8q-1 0 -1.5 -2t-1.5 -3q-63 -100 -129 -153q-48 -37 -96 -49q-21 -7 -55 -8q-28 1 -51 4q-18 3 -29 7q-9 3 -16 7q-13 8 -19 17q-10 14 -8 31q1 11 8 23t21 24
q30 25 87 52q84 38 181 58q2 1 3.5 1t3 0.5t2.5 0.5q9 16 18 31q20 39 41 88q-59 -57 -104 -79t-76 -15.5t-64 36.5q-20 19 -25.5 54.5t1.5 81t17 88t23 90.5t16 73q12 70 -19 67q-33 -2 -83 -82q-4 -7 -9 -15q-19 -32 -28.5 -63t-10 -53t1.5 -39t6 -25l4 -9h-8t-20.5 1
t-29 3t-33 5.5t-33 9t-29 14t-20.5 20.5t-8.5 27t8.5 35q44 92 141 158t205 66q36 0 59 -18t31.5 -48.5t11 -63.5t-3.5 -72t-11.5 -65.5t-12.5 -50.5q-9 -33 -13.5 -57t-5 -46t10.5 -30t32 -1q16 6 40 38t46 74t42 83t32 69l12 28h4q10 38 17 66q8 30 34 47t56 13zM442 -89
q29 27 56 65q-82 -28 -141 -61q-64 -36 -34 -49q8 -4 17 -3q25 3 37 7q32 12 65 41z" />
    <glyph glyph-name="Y" unicode="&#xdd;" horiz-adv-x="818" 
d="M788 553l38 -6q-22 -107 -49 -191q-27 -86 -67 -180q-33 -77 -71 -143q35 2 66 0v-16q-38 0 -80 -8q-1 0 -1.5 -2t-1.5 -3q-63 -100 -129 -153q-48 -37 -96 -49q-21 -7 -55 -8q-28 1 -51 4q-18 3 -29 7q-9 3 -16 7q-13 8 -19 17q-10 14 -8 31q1 11 8 23t21 24
q30 25 87 52q84 38 181 58q2 1 3.5 1t3 0.5t2.5 0.5q9 16 18 31q20 39 41 88q-59 -57 -104 -79t-76 -15.5t-64 36.5q-20 19 -25.5 54.5t1.5 81t17 88t23 90.5t16 73q12 70 -19 67q-33 -2 -83 -82q-4 -7 -9 -15q-19 -32 -28.5 -63t-10 -53t1.5 -39t6 -25l4 -9h-8t-20.5 1
t-29 3t-33 5.5t-33 9t-29 14t-20.5 20.5t-8.5 27t8.5 35q44 92 141 158t205 66q36 0 59 -18t31.5 -48.5t11 -63.5t-3.5 -72t-11.5 -65.5t-12.5 -50.5q-9 -33 -13.5 -57t-5 -46t10.5 -30t32 -1q16 6 40 38t46 74t42 83t32 69l12 28h4q10 38 17 66q8 30 34 47t56 13zM442 -89
q29 27 56 65q-82 -28 -141 -61q-64 -36 -34 -49q8 -4 17 -3q25 3 37 7q32 12 65 41z" />
    <glyph glyph-name="Z" unicode="Z" horiz-adv-x="702" 
d="M359 20q147 -77 250 -13q-2 -3 -6.5 -8t-18.5 -18.5t-28 -26.5t-32.5 -28.5t-35 -26.5t-34 -19t-30.5 -9q-27 -1 -72.5 23t-94 53t-73.5 35q-29 8 -59.5 10t-47.5 0l-16 -2q-12 27 -6.5 56t27.5 50q188 173 258 269l87 118q-6 -3 -16.5 -8t-41 -18.5t-57 -20.5t-60 -14.5
t-56.5 -1t-39 22t-14 52t23 90.5q3 -2 7.5 -4t18.5 -8t29 -11.5t36.5 -11t41.5 -8.5t44 -3t45 4q28 6 65.5 10.5t71 6t62.5 2t46 0.5h17q-2 -8 -7 -21.5t-24.5 -53.5t-44.5 -77.5t-69.5 -86.5t-96.5 -87q-83 -62 -139 -103.5t-70 -51.5l-13 -11q9 -1 25.5 -2.5t62 -14
t85.5 -33.5z" />
    <glyph glyph-name="bracketleft" unicode="[" horiz-adv-x="275" 
d="M144 -50q32 0 55 -23t23 -55v-9h-169v840l168 4v-8q1 -32 -21.5 -56t-55.5 -25v-668z" />
    <glyph glyph-name="backslash" unicode="\" horiz-adv-x="391" 
d="M154 698l184 -789h-110l-176 789h102z" />
    <glyph glyph-name="bracketright" unicode="]" horiz-adv-x="275" 
d="M54 707l168 -4v-840h-170v9q0 32 23.5 55t55.5 23v668q-33 1 -55.5 25t-22.5 56z" />
    <glyph glyph-name="asciicircum" unicode="^" horiz-adv-x="337" 
d="M226 710l59 -170l-58 -19l-40 117l-87 -108l-48 39l122 150q11 14 29 11t23 -20z" />
    <glyph glyph-name="underscore" unicode="_" horiz-adv-x="453" 
d="M52 31l349 2v-55h-349v53z" />
    <glyph glyph-name="a" unicode="a" horiz-adv-x="410" 
d="M406 222q3 0 3 -6q-4 -50 -33 -100q-28 -50 -67 -83t-74 -33h-3q-63 7 -76 67q-30 -30 -63 -43.5t-61 -4.5q-52 15 -72 85.5t5 154.5q24 81 89.5 130.5t119.5 33.5q56 -16 68 -92l58 30q15 -11 18.5 -39.5t-2.5 -62t-14 -63t-17 -50.5t-13.5 -37t-5 -24.5t1.5 -14t4 -6.5
t5 -1q34 0 91 96q28 47 33 59q3 4 5 4zM196 255q14 71 -12 78q-16 4 -34 -17.5t-30 -47t-21 -54.5q-9 -26 -14.5 -51t-7.5 -46.5t3 -36t17 -17.5q10 -2 20.5 6t20 22t18.5 33q9 49 40 131z" />
    <glyph glyph-name="a" unicode="&#xe5;" horiz-adv-x="410" 
d="M406 222q3 0 3 -6q-4 -50 -33 -100q-28 -50 -67 -83t-74 -33h-3q-63 7 -76 67q-30 -30 -63 -43.5t-61 -4.5q-52 15 -72 85.5t5 154.5q24 81 89.5 130.5t119.5 33.5q56 -16 68 -92l58 30q15 -11 18.5 -39.5t-2.5 -62t-14 -63t-17 -50.5t-13.5 -37t-5 -24.5t1.5 -14t4 -6.5
t5 -1q34 0 91 96q28 47 33 59q3 4 5 4zM196 255q14 71 -12 78q-16 4 -34 -17.5t-30 -47t-21 -54.5q-9 -26 -14.5 -51t-7.5 -46.5t3 -36t17 -17.5q10 -2 20.5 6t20 22t18.5 33q9 49 40 131z" />
    <glyph glyph-name="a" unicode="&#xe4;" horiz-adv-x="410" 
d="M406 222q3 0 3 -6q-4 -50 -33 -100q-28 -50 -67 -83t-74 -33h-3q-63 7 -76 67q-30 -30 -63 -43.5t-61 -4.5q-52 15 -72 85.5t5 154.5q24 81 89.5 130.5t119.5 33.5q56 -16 68 -92l58 30q15 -11 18.5 -39.5t-2.5 -62t-14 -63t-17 -50.5t-13.5 -37t-5 -24.5t1.5 -14t4 -6.5
t5 -1q34 0 91 96q28 47 33 59q3 4 5 4zM196 255q14 71 -12 78q-16 4 -34 -17.5t-30 -47t-21 -54.5q-9 -26 -14.5 -51t-7.5 -46.5t3 -36t17 -17.5q10 -2 20.5 6t20 22t18.5 33q9 49 40 131z" />
    <glyph glyph-name="a" unicode="&#xe3;" horiz-adv-x="410" 
d="M406 222q3 0 3 -6q-4 -50 -33 -100q-28 -50 -67 -83t-74 -33h-3q-63 7 -76 67q-30 -30 -63 -43.5t-61 -4.5q-52 15 -72 85.5t5 154.5q24 81 89.5 130.5t119.5 33.5q56 -16 68 -92l58 30q15 -11 18.5 -39.5t-2.5 -62t-14 -63t-17 -50.5t-13.5 -37t-5 -24.5t1.5 -14t4 -6.5
t5 -1q34 0 91 96q28 47 33 59q3 4 5 4zM196 255q14 71 -12 78q-16 4 -34 -17.5t-30 -47t-21 -54.5q-9 -26 -14.5 -51t-7.5 -46.5t3 -36t17 -17.5q10 -2 20.5 6t20 22t18.5 33q9 49 40 131z" />
    <glyph glyph-name="a" unicode="&#xe2;" horiz-adv-x="410" 
d="M406 222q3 0 3 -6q-4 -50 -33 -100q-28 -50 -67 -83t-74 -33h-3q-63 7 -76 67q-30 -30 -63 -43.5t-61 -4.5q-52 15 -72 85.5t5 154.5q24 81 89.5 130.5t119.5 33.5q56 -16 68 -92l58 30q15 -11 18.5 -39.5t-2.5 -62t-14 -63t-17 -50.5t-13.5 -37t-5 -24.5t1.5 -14t4 -6.5
t5 -1q34 0 91 96q28 47 33 59q3 4 5 4zM196 255q14 71 -12 78q-16 4 -34 -17.5t-30 -47t-21 -54.5q-9 -26 -14.5 -51t-7.5 -46.5t3 -36t17 -17.5q10 -2 20.5 6t20 22t18.5 33q9 49 40 131z" />
    <glyph glyph-name="a" unicode="&#xe1;" horiz-adv-x="410" 
d="M406 222q3 0 3 -6q-4 -50 -33 -100q-28 -50 -67 -83t-74 -33h-3q-63 7 -76 67q-30 -30 -63 -43.5t-61 -4.5q-52 15 -72 85.5t5 154.5q24 81 89.5 130.5t119.5 33.5q56 -16 68 -92l58 30q15 -11 18.5 -39.5t-2.5 -62t-14 -63t-17 -50.5t-13.5 -37t-5 -24.5t1.5 -14t4 -6.5
t5 -1q34 0 91 96q28 47 33 59q3 4 5 4zM196 255q14 71 -12 78q-16 4 -34 -17.5t-30 -47t-21 -54.5q-9 -26 -14.5 -51t-7.5 -46.5t3 -36t17 -17.5q10 -2 20.5 6t20 22t18.5 33q9 49 40 131z" />
    <glyph glyph-name="a" unicode="&#xe0;" horiz-adv-x="410" 
d="M406 222q3 0 3 -6q-4 -50 -33 -100q-28 -50 -67 -83t-74 -33h-3q-63 7 -76 67q-30 -30 -63 -43.5t-61 -4.5q-52 15 -72 85.5t5 154.5q24 81 89.5 130.5t119.5 33.5q56 -16 68 -92l58 30q15 -11 18.5 -39.5t-2.5 -62t-14 -63t-17 -50.5t-13.5 -37t-5 -24.5t1.5 -14t4 -6.5
t5 -1q34 0 91 96q28 47 33 59q3 4 5 4zM196 255q14 71 -12 78q-16 4 -34 -17.5t-30 -47t-21 -54.5q-9 -26 -14.5 -51t-7.5 -46.5t3 -36t17 -17.5q10 -2 20.5 6t20 22t18.5 33q9 49 40 131z" />
    <glyph glyph-name="b" unicode="b" horiz-adv-x="393" 
d="M271 397q50 -27 61 -106.5t-30 -157.5q-42 -77 -105.5 -112.5t-111.5 -9.5q-25 13 -39 45q-7 -26 -9 -42q-2 1 -5 3t-12.5 7.5t-18 11.5t-19 14.5t-18 16.5t-13 17.5t-5.5 17.5q26 118 53 201q12 36 34 121t38 152l17 67q6 -3 15.5 -8t34.5 -19t43 -27t32 -29t11 -28
q-2 -9 -6 -18q-2 -6 -44 -123q53 30 97 6zM176 197q10 19 17.5 38.5t14 41.5t5 39.5t-12.5 23.5q-25 16 -71 -57q-13 -30 -23 -56q0 -1 -1 -2.5t-1 -2.5q-5 -12 -6 -16q-1 -2 -3 -7q-20 -53 -34 -95q2 -11 9 -16q21 -12 50 21t56 88z" />
    <glyph glyph-name="c" unicode="c" horiz-adv-x="314" 
d="M310 214q3 0 3 -6q-4 -49 -32 -97q-19 -37 -47 -63q-34 -32 -81 -43q-22 -5 -43 -5q-25 0 -61 10q-34 10 -60 51q-24 41 -24 102q0 35 10 76q10 42 34.5 83.5t61.5 67.5t85 26q41 0 66.5 -21.5t35.5 -52.5q7 -21 7 -43q0 -52 -33 -67q-14 -6 -30 -6q-14 0 -28 4
q12 7 33 58q25 61 3 63q-11 1 -30.5 -20.5t-34.5 -46.5q-25 -37 -39 -87q-10 -35 -10 -65q0 -14 4 -40.5t41 -38.5q6 -1 13 -1q16 0 41 11q45 20 102 131q2 4 5.5 9.5l3.5 5.5q3 5 4 5z" />
    <glyph glyph-name="c" unicode="&#xe7;" horiz-adv-x="314" 
d="M310 214q3 0 3 -6q-4 -49 -32 -97q-19 -37 -47 -63q-34 -32 -81 -43q-22 -5 -43 -5q-25 0 -61 10q-34 10 -60 51q-24 41 -24 102q0 35 10 76q10 42 34.5 83.5t61.5 67.5t85 26q41 0 66.5 -21.5t35.5 -52.5q7 -21 7 -43q0 -52 -33 -67q-14 -6 -30 -6q-14 0 -28 4
q12 7 33 58q25 61 3 63q-11 1 -30.5 -20.5t-34.5 -46.5q-25 -37 -39 -87q-10 -35 -10 -65q0 -14 4 -40.5t41 -38.5q6 -1 13 -1q16 0 41 11q45 20 102 131q2 4 5.5 9.5l3.5 5.5q3 5 4 5z" />
    <glyph glyph-name="d" unicode="d" horiz-adv-x="429" 
d="M419 222q3 0 3 -6q-4 -50 -32 -100q-29 -50 -68 -83t-74 -33h-2q-66 7 -78 68l2 2q-1 0 -1 1q-1 2 -2 3q1 -3 1 -6q-30 -31 -63 -44.5t-62 -4.5q-52 15 -72 85.5t5 154.5q24 81 89.5 130.5t119.5 33.5q33 -9 51 -41q3 -4 4 -8q2 8 45 183l18 74q14 -6 30 -15
q1 -1 17.5 -9.5t23.5 -12t21.5 -13t22 -16.5t14.5 -17t8 -20q1 -7 -27.5 -88t-38.5 -105q-25 -61 -53 -130l-3.5 -7.5t-6.5 -15t-7.5 -19t-8.5 -22.5t-7.5 -22.5t-5.5 -21.5t-2 -18t2.5 -12.5t7.5 -4.5q35 1 92 97q27 47 32 59q3 4 5 4zM212 298q0 31 -17 35q-16 4 -34 -18
t-30 -47t-21 -54q-9 -26 -14.5 -51t-7.5 -46.5t3.5 -36t16.5 -17.5q15 -4 31.5 16.5t31.5 52.5v1q1 2 4 10q7 17 12 33q19 63 23 95q2 15 2 27z" />
    <glyph glyph-name="e" unicode="e" horiz-adv-x="313" 
d="M309 215q3 0 3 -6q-6 -71 -54 -130.5t-116 -75.5q-18 -4 -37 -3q-35 0 -66.5 14.5t-51.5 41.5q-26 34 -30 84q-3 39 9 90q15 65 45 108q37 55 91 72q28 10 59 6.5t55 -20.5q22 -16 34.5 -40.5t13.5 -52.5q0 -57 -45 -94q-27 -22 -62 -28q-22 -4 -35 -1q-5 1 -15.5 6
t-10.5 8l-1 -10t-1 -14.5t-1 -15.5t-0.5 -18t1 -17.5t2.5 -17.5t4 -15t6.5 -14t9.5 -9q24 -16 55 -8q25 6 48 28q12 11 23.5 27t17 24.5t19.5 32.5t16 28l9 15q3 5 5 5zM116 248q-6 -11 -9 -23l14 -1q34 0 55 14q30 18 30 54q0 9 -4.5 21.5t-17.5 12.5q-17 -2 -35.5 -23.5
t-32.5 -54.5z" />
    <glyph glyph-name="e" unicode="&#xeb;" horiz-adv-x="313" 
d="M309 215q3 0 3 -6q-6 -71 -54 -130.5t-116 -75.5q-18 -4 -37 -3q-35 0 -66.5 14.5t-51.5 41.5q-26 34 -30 84q-3 39 9 90q15 65 45 108q37 55 91 72q28 10 59 6.5t55 -20.5q22 -16 34.5 -40.5t13.5 -52.5q0 -57 -45 -94q-27 -22 -62 -28q-22 -4 -35 -1q-5 1 -15.5 6
t-10.5 8l-1 -10t-1 -14.5t-1 -15.5t-0.5 -18t1 -17.5t2.5 -17.5t4 -15t6.5 -14t9.5 -9q24 -16 55 -8q25 6 48 28q12 11 23.5 27t17 24.5t19.5 32.5t16 28l9 15q3 5 5 5zM116 248q-6 -11 -9 -23l14 -1q34 0 55 14q30 18 30 54q0 9 -4.5 21.5t-17.5 12.5q-17 -2 -35.5 -23.5
t-32.5 -54.5z" />
    <glyph glyph-name="e" unicode="&#xea;" horiz-adv-x="313" 
d="M309 215q3 0 3 -6q-6 -71 -54 -130.5t-116 -75.5q-18 -4 -37 -3q-35 0 -66.5 14.5t-51.5 41.5q-26 34 -30 84q-3 39 9 90q15 65 45 108q37 55 91 72q28 10 59 6.5t55 -20.5q22 -16 34.5 -40.5t13.5 -52.5q0 -57 -45 -94q-27 -22 -62 -28q-22 -4 -35 -1q-5 1 -15.5 6
t-10.5 8l-1 -10t-1 -14.5t-1 -15.5t-0.5 -18t1 -17.5t2.5 -17.5t4 -15t6.5 -14t9.5 -9q24 -16 55 -8q25 6 48 28q12 11 23.5 27t17 24.5t19.5 32.5t16 28l9 15q3 5 5 5zM116 248q-6 -11 -9 -23l14 -1q34 0 55 14q30 18 30 54q0 9 -4.5 21.5t-17.5 12.5q-17 -2 -35.5 -23.5
t-32.5 -54.5z" />
    <glyph glyph-name="e" unicode="&#xe9;" horiz-adv-x="313" 
d="M309 215q3 0 3 -6q-6 -71 -54 -130.5t-116 -75.5q-18 -4 -37 -3q-35 0 -66.5 14.5t-51.5 41.5q-26 34 -30 84q-3 39 9 90q15 65 45 108q37 55 91 72q28 10 59 6.5t55 -20.5q22 -16 34.5 -40.5t13.5 -52.5q0 -57 -45 -94q-27 -22 -62 -28q-22 -4 -35 -1q-5 1 -15.5 6
t-10.5 8l-1 -10t-1 -14.5t-1 -15.5t-0.5 -18t1 -17.5t2.5 -17.5t4 -15t6.5 -14t9.5 -9q24 -16 55 -8q25 6 48 28q12 11 23.5 27t17 24.5t19.5 32.5t16 28l9 15q3 5 5 5zM116 248q-6 -11 -9 -23l14 -1q34 0 55 14q30 18 30 54q0 9 -4.5 21.5t-17.5 12.5q-17 -2 -35.5 -23.5
t-32.5 -54.5z" />
    <glyph glyph-name="e" unicode="&#xe8;" horiz-adv-x="313" 
d="M309 215q3 0 3 -6q-6 -71 -54 -130.5t-116 -75.5q-18 -4 -37 -3q-35 0 -66.5 14.5t-51.5 41.5q-26 34 -30 84q-3 39 9 90q15 65 45 108q37 55 91 72q28 10 59 6.5t55 -20.5q22 -16 34.5 -40.5t13.5 -52.5q0 -57 -45 -94q-27 -22 -62 -28q-22 -4 -35 -1q-5 1 -15.5 6
t-10.5 8l-1 -10t-1 -14.5t-1 -15.5t-0.5 -18t1 -17.5t2.5 -17.5t4 -15t6.5 -14t9.5 -9q24 -16 55 -8q25 6 48 28q12 11 23.5 27t17 24.5t19.5 32.5t16 28l9 15q3 5 5 5zM116 248q-6 -11 -9 -23l14 -1q34 0 55 14q30 18 30 54q0 9 -4.5 21.5t-17.5 12.5q-17 -2 -35.5 -23.5
t-32.5 -54.5z" />
    <glyph glyph-name="f" unicode="f" horiz-adv-x="270" 
d="M130 213h139q0 -13 -7 -20t-15 -8l-7 -1l-34 1h-26h-27q2 -3 3.5 -8t3 -10.5t3.5 -9.5q7 -21 11 -38q12 -49 3 -90q-9 -51 -29 -89q-25 -51 -52 -68q-21 -12 -44.5 -15t-45.5 5q-32 14 -42 59q-6 30 -6 69q0 32 6 89q1 7 2 10q8 64 32 155l36 149q6 22 32 130q3 9 5.5 20
t4.5 19.5t3 13.5l18 74q15 -7 30 -15q2 -1 18 -9.5t23 -12.5t21.5 -13.5t22 -16.5t14.5 -17t8 -19q0 -3 -9 -37.5t-19.5 -71t-13.5 -43.5l-1 -2q-1 -3 -62 -178l0.5 -0.5t0.5 -1.5zM124 59q2 23 1 47q-2 39 -9 78q-2 -6 -5 -16v-2q-1 -2 -1 -3q-16 -51 -25 -82q-2 -8 -8 -30
l-2 -8q-3 -11 -4 -19q-7 -29 -8 -46q-3 -23 -3 -35q0 -8 1 -15q5 -23 13 -26q44 63 50 157z" />
    <glyph glyph-name="g" unicode="g" horiz-adv-x="357" 
d="M333 356q11 -36 -15 -154t-56 -183q-29 -62 -53 -99q-24 -36 -45 -56t-51 -34l-10.5 -3.5t-22.5 -4t-29.5 0t-30.5 10.5t-28 25.5t-20 47.5t-8 73q14 -34 31.5 -52t34 -19.5t29 3t21.5 14.5q33 33 64 121q2 4 9 25q-59 -49 -109 -34q-52 15 -72 85.5t5 154.5
q24 82 89.5 131t119.5 33q57 -17 69 -95l57 29l7 4q9 -8 14 -23zM188 195q9 30 12.5 44.5t9.5 45t2.5 47t-16.5 19.5q-16 4 -34 -17.5t-30 -47t-21 -54.5q-12 -36 -18 -67.5t-2.5 -55.5t18.5 -28q20 -5 43.5 33t35.5 81z" />
    <glyph glyph-name="h" unicode="h" horiz-adv-x="436" 
d="M432 225q3 0 3 -6q-4 -49 -33 -100q-28 -50 -66 -83q-45 -38 -85 -31q-47 9 -63 53q-13 35 -2 91q6 29 8 38t8 33.5t10.5 38t12.5 32.5t18 34q-5 -7 -30.5 -44.5t-38.5 -58.5q2 3 4.5 6.5t4.5 6.5t4 6.5t4 6.5q-78 -128 -133 -224q-8 -14 -15 -19q-15 -10 -40 -2
q-37 14 -56 49q-7 15 -9 31q-1 15 -1.5 21.5t2.5 21.5t4.5 21.5t5.5 21.5t6 21q19 74 35 123q31 98 71 275h1l2 -1h1q52 -25 89 -52q49 -36 44 -58q-1 -9 -6 -17q-30 -65 -85 -200q-3 -7 -7.5 -18t-7.5 -19t-7 -18.5t-8 -18.5q-6 -13 -12 -31l-10 -30l-3 -12q18 29 26 43
q19 31 28 47q19 32 57 95q10 16 17 26.5t17.5 24t22 23t24.5 15.5q46 22 93 -1q15 -7 21.5 -23t3.5 -34q-1 -5 -3.5 -10t-7.5 -12.5t-6 -9.5q-10 -17 -19 -36q-36 -78 -37 -164q0 -18 7 -26q15 -17 48 20q38 42 78 119q8 15 10 15z" />
    <glyph glyph-name="i" unicode="i" horiz-adv-x="228" 
d="M224 222q3 0 3 -6q-4 -49 -32.5 -99.5t-67.5 -83.5t-74 -33h-2q-51 6 -68 46q-13 30 -13 71q0 14 3.5 51t22.5 99q3 9 10.5 28t13 34t9.5 31.5t2 29t-11 18.5q66 -7 103 -14q27 -6 38.5 -30.5t0.5 -48.5l-1 -1q-26 -55 -45 -108q-14 -40 -23.5 -82t-10.5 -62t1 -24
q39 3 131 169q7 15 10 15zM209 478q-6 -17 -19 -29t-30 -15.5t-35 1.5q-26 8 -38.5 32.5t-4.5 50.5t32.5 39t51 4.5t39 -33t4.5 -50.5z" />
    <glyph glyph-name="i" unicode="&#xef;" horiz-adv-x="228" 
d="M224 222q3 0 3 -6q-4 -49 -32.5 -99.5t-67.5 -83.5t-74 -33h-2q-51 6 -68 46q-13 30 -13 71q0 14 3.5 51t22.5 99q3 9 10.5 28t13 34t9.5 31.5t2 29t-11 18.5q66 -7 103 -14q27 -6 38.5 -30.5t0.5 -48.5l-1 -1q-26 -55 -45 -108q-14 -40 -23.5 -82t-10.5 -62t1 -24
q39 3 131 169q7 15 10 15zM209 478q-6 -17 -19 -29t-30 -15.5t-35 1.5q-26 8 -38.5 32.5t-4.5 50.5t32.5 39t51 4.5t39 -33t4.5 -50.5z" />
    <glyph glyph-name="i" unicode="&#xee;" horiz-adv-x="228" 
d="M224 222q3 0 3 -6q-4 -49 -32.5 -99.5t-67.5 -83.5t-74 -33h-2q-51 6 -68 46q-13 30 -13 71q0 14 3.5 51t22.5 99q3 9 10.5 28t13 34t9.5 31.5t2 29t-11 18.5q66 -7 103 -14q27 -6 38.5 -30.5t0.5 -48.5l-1 -1q-26 -55 -45 -108q-14 -40 -23.5 -82t-10.5 -62t1 -24
q39 3 131 169q7 15 10 15zM209 478q-6 -17 -19 -29t-30 -15.5t-35 1.5q-26 8 -38.5 32.5t-4.5 50.5t32.5 39t51 4.5t39 -33t4.5 -50.5z" />
    <glyph glyph-name="i" unicode="&#xed;" horiz-adv-x="228" 
d="M224 222q3 0 3 -6q-4 -49 -32.5 -99.5t-67.5 -83.5t-74 -33h-2q-51 6 -68 46q-13 30 -13 71q0 14 3.5 51t22.5 99q3 9 10.5 28t13 34t9.5 31.5t2 29t-11 18.5q66 -7 103 -14q27 -6 38.5 -30.5t0.5 -48.5l-1 -1q-26 -55 -45 -108q-14 -40 -23.5 -82t-10.5 -62t1 -24
q39 3 131 169q7 15 10 15zM209 478q-6 -17 -19 -29t-30 -15.5t-35 1.5q-26 8 -38.5 32.5t-4.5 50.5t32.5 39t51 4.5t39 -33t4.5 -50.5z" />
    <glyph glyph-name="i" unicode="&#xec;" horiz-adv-x="228" 
d="M224 222q3 0 3 -6q-4 -49 -32.5 -99.5t-67.5 -83.5t-74 -33h-2q-51 6 -68 46q-13 30 -13 71q0 14 3.5 51t22.5 99q3 9 10.5 28t13 34t9.5 31.5t2 29t-11 18.5q66 -7 103 -14q27 -6 38.5 -30.5t0.5 -48.5l-1 -1q-26 -55 -45 -108q-14 -40 -23.5 -82t-10.5 -62t1 -24
q39 3 131 169q7 15 10 15zM209 478q-6 -17 -19 -29t-30 -15.5t-35 1.5q-26 8 -38.5 32.5t-4.5 50.5t32.5 39t51 4.5t39 -33t4.5 -50.5z" />
    <glyph glyph-name="j" unicode="j" horiz-adv-x="212" 
d="M202.5 477q-8.5 -26 -33 -39t-51 -4.5t-39 33t-4 50.5t33 39t50.5 4.5t39 -33t4.5 -50.5zM133 400q18 -4 27.5 -20.5t4.5 -34.5l-19 -69q-24 -88 -57 -186t-80 -170q-24 -36 -45 -56t-51 -34l-10.5 -3.5t-22.5 -4t-29.5 0t-30.5 10.5t-28.5 25.5t-20 47.5t-7.5 73
q11 -28 25.5 -45.5t28 -23.5t26 -5.5t22 6t14.5 14.5q32 51 59 122t42.5 135t26 121t14.5 91l4 34z" />
    <glyph glyph-name="k" unicode="k" horiz-adv-x="399" 
d="M396 224q3 0 3 -6q-4 -49 -31 -98q-28 -51 -68 -84q-9 -8 -17.5 -14t-20.5 -11.5t-22 -6.5q-33 -3 -68 13q-19 9 -41 25q0 1 -4.5 4t-9 6.5t-9.5 7t-8 6.5t-2 4q-16 -28 -21 -40q-9 -22 -25 -28t-36 2q-26 9 -43 30.5t-20 49.5q-3 31 14 93q19 72 59 216q5 19 27 89
t27 88q22 81 19 82q15 -7 38 -19q34 -19 57 -36q42 -31 43 -51q0 -4 -3 -9l-27.5 -71.5t-28.5 -70.5q-42 -98 -70 -168q-31 -76 -41 -106q-2 -7 -2 -10l0.5 1t8.5 18.5t17 37t23.5 46t29 49.5t32 44t33.5 31q6 2 16 3t27.5 -9.5t32.5 -30.5q4 -6 2.5 -12.5t-7.5 -9.5
q-44 -25 -69 -51q-35 -36 -69 -85q-2 -2 -2 -3q1 -3 11 -21q16 -27 43 -38q46 -19 102 15q34 20 58 57q26 46 35 62q4 9 7 9z" />
    <glyph glyph-name="l" unicode="l" horiz-adv-x="207" 
d="M204 222q3 0 3 -6q-4 -49 -32 -100q-29 -50 -68 -83t-74 -33h-2q-49 6 -65 48q-9 26 -5 69q6 63 48 194q6 19 17.5 61t24 88.5t23.5 90t19 71.5l7 28l1 -1q15 -7 30.5 -15t44 -25.5t45.5 -36t16 -33.5q-1 -8 -32 -87t-61 -153l-30 -75q-2 -5 -5.5 -12.5t-12.5 -29
t-15 -40t-11.5 -37.5t-4 -31t9.5 -11q18 0 41 25q33 38 78 119q7 15 10 15z" />
    <glyph glyph-name="m" unicode="m" horiz-adv-x="605" 
d="M602 219q3 0 3 -6q-4 -49 -33 -99q-17 -31 -56.5 -72.5t-60.5 -41.5q-35 0 -56.5 18.5t-27.5 50t-5 63t7 67.5l1 1q4 22 10 45t9 35l4 11q-40 -30 -132 -227l-28 -60l-1 -2q-130 13 -64 223q8 25 14 50q-25 -30 -61 -98t-60 -122l-24 -53q-131 13 -65 223q8 26 14.5 54.5
t8.5 44t5.5 42.5t3.5 28q1 8 10 15t17 6q3 -1 17.5 -2.5t29.5 -3.5t24 -4q34 -7 36 -27t-17 -63q-27 -69 -54 -185q66 127 126 211q40 56 64 70q29 -3 41 -6q34 -7 36 -27t-18 -63q-11 -29 -26 -83q-4 -14 -17 -61q-1 -1 0 -1q-3 -14 -6 -30q20 37 43.5 77t55 89t59.5 80
t44 30q21 -1 51.5 -10t49.5 -16l20 -8q-88 -82 -119 -199q-9 -34 -12 -70q-1 -18 -1 -36v-4v-7.5t2.5 -4t8.5 -1.5q34 0 91 97q28 46 33 58q3 4 5 4z" />
    <glyph glyph-name="n" unicode="n" horiz-adv-x="403" 
d="M400 219q3 0 3 -6q-4 -49 -32 -99t-68 -83q-12 -11 -28 -21t-21 -10q-36 0 -57.5 18.5t-27.5 50t-5 63t8 67.5q4 23 10 46t10 35l3 11q-14 -10 -36 -44t-42.5 -74.5t-39.5 -79.5t-31 -65l-11 -26q-131 13 -65 223q7 21 12 42t8.5 40.5t5 33t3.5 31t3 22.5q1 8 10 15t17 6
q3 -1 17.5 -2.5t29.5 -3.5t24 -4q34 -7 36 -27t-17 -63q-27 -69 -54 -185q17 34 40.5 75t56.5 93t62.5 85.5t46.5 32.5q21 -1 51.5 -10t50.5 -16l19 -8q-33 -32 -79 -104q-5 -7 -11 -17q-32 -53 -41 -164q-2 -20 -2 -34q2 -3 12 -3q35 0 92 97q27 46 32 58q4 4 5 4z" />
    <glyph glyph-name="n" unicode="&#xf1;" horiz-adv-x="403" 
d="M400 219q3 0 3 -6q-4 -49 -32 -99t-68 -83q-12 -11 -28 -21t-21 -10q-36 0 -57.5 18.5t-27.5 50t-5 63t8 67.5q4 23 10 46t10 35l3 11q-14 -10 -36 -44t-42.5 -74.5t-39.5 -79.5t-31 -65l-11 -26q-131 13 -65 223q7 21 12 42t8.5 40.5t5 33t3.5 31t3 22.5q1 8 10 15t17 6
q3 -1 17.5 -2.5t29.5 -3.5t24 -4q34 -7 36 -27t-17 -63q-27 -69 -54 -185q17 34 40.5 75t56.5 93t62.5 85.5t46.5 32.5q21 -1 51.5 -10t50.5 -16l19 -8q-33 -32 -79 -104q-5 -7 -11 -17q-32 -53 -41 -164q-2 -20 -2 -34q2 -3 12 -3q35 0 92 97q27 46 32 58q4 4 5 4z" />
    <glyph glyph-name="o" unicode="o" horiz-adv-x="291" 
d="M288 214q3 0 3 -6q-11 -50 -80 -66q-30 -71 -84 -112t-100 -27q-52 15 -72 85.5t5 154.5q24 82 89.5 131t119.5 33q48 -14 64.5 -73.5t-3.5 -136.5q30 -1 53 13q4 4 5 4zM183 203q28 106 -4 114q-16 4 -34 -17.5t-30 -47t-21 -54.5q-12 -36 -18 -67.5t-2.5 -55.5
t18.5 -28q17 -4 36.5 23t34.5 66h-1q-10 0 -15.5 7t-2.5 16q7 18 16 35q7 14 23 9z" />
    <glyph glyph-name="o" unicode="&#xf8;" horiz-adv-x="291" 
d="M288 214q3 0 3 -6q-11 -50 -80 -66q-30 -71 -84 -112t-100 -27q-52 15 -72 85.5t5 154.5q24 82 89.5 131t119.5 33q48 -14 64.5 -73.5t-3.5 -136.5q30 -1 53 13q4 4 5 4zM183 203q28 106 -4 114q-16 4 -34 -17.5t-30 -47t-21 -54.5q-12 -36 -18 -67.5t-2.5 -55.5
t18.5 -28q17 -4 36.5 23t34.5 66h-1q-10 0 -15.5 7t-2.5 16q7 18 16 35q7 14 23 9z" />
    <glyph glyph-name="o" unicode="&#xf6;" horiz-adv-x="291" 
d="M288 214q3 0 3 -6q-11 -50 -80 -66q-30 -71 -84 -112t-100 -27q-52 15 -72 85.5t5 154.5q24 82 89.5 131t119.5 33q48 -14 64.5 -73.5t-3.5 -136.5q30 -1 53 13q4 4 5 4zM183 203q28 106 -4 114q-16 4 -34 -17.5t-30 -47t-21 -54.5q-12 -36 -18 -67.5t-2.5 -55.5
t18.5 -28q17 -4 36.5 23t34.5 66h-1q-10 0 -15.5 7t-2.5 16q7 18 16 35q7 14 23 9z" />
    <glyph glyph-name="o" unicode="&#xf5;" horiz-adv-x="291" 
d="M288 214q3 0 3 -6q-11 -50 -80 -66q-30 -71 -84 -112t-100 -27q-52 15 -72 85.5t5 154.5q24 82 89.5 131t119.5 33q48 -14 64.5 -73.5t-3.5 -136.5q30 -1 53 13q4 4 5 4zM183 203q28 106 -4 114q-16 4 -34 -17.5t-30 -47t-21 -54.5q-12 -36 -18 -67.5t-2.5 -55.5
t18.5 -28q17 -4 36.5 23t34.5 66h-1q-10 0 -15.5 7t-2.5 16q7 18 16 35q7 14 23 9z" />
    <glyph glyph-name="o" unicode="&#xf4;" horiz-adv-x="291" 
d="M288 214q3 0 3 -6q-11 -50 -80 -66q-30 -71 -84 -112t-100 -27q-52 15 -72 85.5t5 154.5q24 82 89.5 131t119.5 33q48 -14 64.5 -73.5t-3.5 -136.5q30 -1 53 13q4 4 5 4zM183 203q28 106 -4 114q-16 4 -34 -17.5t-30 -47t-21 -54.5q-12 -36 -18 -67.5t-2.5 -55.5
t18.5 -28q17 -4 36.5 23t34.5 66h-1q-10 0 -15.5 7t-2.5 16q7 18 16 35q7 14 23 9z" />
    <glyph glyph-name="o" unicode="&#xf3;" horiz-adv-x="291" 
d="M288 214q3 0 3 -6q-11 -50 -80 -66q-30 -71 -84 -112t-100 -27q-52 15 -72 85.5t5 154.5q24 82 89.5 131t119.5 33q48 -14 64.5 -73.5t-3.5 -136.5q30 -1 53 13q4 4 5 4zM183 203q28 106 -4 114q-16 4 -34 -17.5t-30 -47t-21 -54.5q-12 -36 -18 -67.5t-2.5 -55.5
t18.5 -28q17 -4 36.5 23t34.5 66h-1q-10 0 -15.5 7t-2.5 16q7 18 16 35q7 14 23 9z" />
    <glyph glyph-name="o" unicode="&#xf2;" horiz-adv-x="291" 
d="M288 214q3 0 3 -6q-11 -50 -80 -66q-30 -71 -84 -112t-100 -27q-52 15 -72 85.5t5 154.5q24 82 89.5 131t119.5 33q48 -14 64.5 -73.5t-3.5 -136.5q30 -1 53 13q4 4 5 4zM183 203q28 106 -4 114q-16 4 -34 -17.5t-30 -47t-21 -54.5q-12 -36 -18 -67.5t-2.5 -55.5
t18.5 -28q17 -4 36.5 23t34.5 66h-1q-10 0 -15.5 7t-2.5 16q7 18 16 35q7 14 23 9z" />
    <glyph glyph-name="p" unicode="p" horiz-adv-x="404" 
d="M301 403q49 -27 60.5 -106.5t-29.5 -157.5q-42 -77 -105.5 -112.5t-111.5 -9.5q-31 17 -45 61q-1 -2 -1 -3q-5 -12 -6 -16q-1 -2 -3 -7q-21 -55 -45 -130.5t-28 -105.5q-1 0 -3 1t-8 5t-12 7.5t-14.5 9t-15.5 11t-14 12.5t-12.5 13.5t-8.5 14t-3 13.5q4 19 12 49.5
t26.5 98.5t30.5 106q11 36 29 104.5t30 119.5l12 51q80 -38 118 -75q37 39 74.5 51.5t72.5 -5.5zM206 203q9 19 17 38.5t14.5 41.5t5 39.5t-12.5 23.5q-23 14 -64 -45q-12 -25 -35 -78l-6 -14q-16 -35 -35 -83q-2 -25 10 -32q20 -12 49.5 21t56.5 88z" />
    <glyph glyph-name="q" unicode="q" horiz-adv-x="421" 
d="M418 240q3 0 3 -6q-4 -50 -32 -100q-29 -50 -68 -83q-23 -20 -46 -28q5 -20 -0.5 -48t-19.5 -57t-25.5 -49.5t-23.5 -38.5q-9 -15 -24 -6q-72 42 -76 76q-1 3 0 6q12 50 27 104q3 11 -6.5 18.5t-19.5 2.5q-41 -23 -76 -12q-52 15 -72 85.5t5 154.5q24 82 89.5 131
t119.5 33q22 -6 38 -23q7 -7 17 -4t12 13l1 1q2 8 10 12t15 0q17 -9 33 -18q25 -15 43 -28q46 -34 41 -55q-2 -10 -6 -18q-11 -24 -37 -80l-6 -14q-24 -56 -52 -125q3 -4 7 -4q35 0 92 97q27 47 32 59q4 4 5 4zM175 177q9 30 12.5 44.5t9.5 45t2.5 47t-16.5 19.5
q-16 4 -34 -17.5t-30 -47t-21 -54.5q-12 -36 -18 -67.5t-2.5 -55.5t18.5 -28q20 -5 43.5 33t35.5 81z" />
    <glyph glyph-name="r" unicode="r" horiz-adv-x="369" 
d="M337 383q11 -21 11 -51q0 -10 -3 -37t-22 -64t-48 -51q-9 -4 -18 -4q-22 0 -46 22q35 27 35 61q0 25 -17 27q-16 0 -49.5 -40.5t-66.5 -106.5q-25 -50 -39 -105q-4 -16 -17 -25.5t-29 -8.5l-75 9l2.5 21.5t6.5 55t9 76t9 84.5t7 79.5t3.5 61.5t-2.5 31q22 -2 51 -5
q41 -4 65 -38.5t12 -74.5q-5 -18 -15 -58.5t-16 -61.5l17 33q16 32 45 76q28 43 64 77.5t77 42.5h6q31 0 43 -26z" />
    <glyph glyph-name="s" unicode="s" horiz-adv-x="276" 
d="M270 223q3 0 3 -6q-4 -49 -32 -99t-67.5 -83t-74.5 -33h-2q-5 0 -7 1q-37 -8 -81 8q-22 9 -38 26t-23 35t-11 35.5t-5 28.5v11q5 6 21.5 33t35 63t26.5 60q12 31 41 76.5t58 70.5q23 20 39 21q13 0 28 -4t27 -10t22 -12t15 -10l6 -4q-21 -11 -37 -57q-8 -20 -11 -93
q-8 -143 -24 -189q-3 -6 -4 -11q3 4 8 8q32 39 77 119q7 15 10 15zM47 70q21 2 34 40.5t14 77.5q0 19 3.5 57.5t7.5 67.5l3 29q-24 -25 -49 -77q0 -1 -1 -2.5t-1 -2.5q-11 -25 -29.5 -58.5t-31.5 -54.5l-13 -21q12 -50 43 -56q9 -2 20 0z" />
    <glyph glyph-name="s" unicode="&#xdf;" horiz-adv-x="276" 
d="M270 223q3 0 3 -6q-4 -49 -32 -99t-67.5 -83t-74.5 -33h-2q-5 0 -7 1q-37 -8 -81 8q-22 9 -38 26t-23 35t-11 35.5t-5 28.5v11q5 6 21.5 33t35 63t26.5 60q12 31 41 76.5t58 70.5q23 20 39 21q13 0 28 -4t27 -10t22 -12t15 -10l6 -4q-21 -11 -37 -57q-8 -20 -11 -93
q-8 -143 -24 -189q-3 -6 -4 -11q3 4 8 8q32 39 77 119q7 15 10 15zM47 70q21 2 34 40.5t14 77.5q0 19 3.5 57.5t7.5 67.5l3 29q-24 -25 -49 -77q0 -1 -1 -2.5t-1 -2.5q-11 -25 -29.5 -58.5t-31.5 -54.5l-13 -21q12 -50 43 -56q9 -2 20 0z" />
    <glyph glyph-name="t" unicode="t" horiz-adv-x="181" 
d="M423 549q52 -23 24 -91q-3 -9 -9.5 -10.5t-11.5 5.5q-1 2 -5.5 10.5t-8.5 14t-13.5 10.5t-23.5 4q-34 -2 -152 -15l-103 -253q-2 -5 -5.5 -12.5t-12.5 -29t-15 -40t-11 -38t-4 -31t9 -11.5q18 0 42 26q32 38 77 119q7 15 10 15t3 -6q-4 -49 -32 -100q-28 -50 -67.5 -83
t-74.5 -33h-2q-49 6 -65 48q-9 26 -5 69q7 63 48 194q12 36 43 150q-28 -2 -47 -2q-18 0 -47 -2t-46.5 -3t-39 2t-32.5 12t-17.5 28t-4.5 48q1 11 8 15.5t13 -1.5q68 -65 221 -66l43 158l4.5 -2t13 -6.5t19 -10t22 -12.5t23 -14.5t21.5 -16t18 -16.5t12 -16.5t3 -16.5
q0 -4 -10 -30q31 7 58.5 16t42.5 16t30 11.5t28 4t29 -7.5z" />
    <glyph glyph-name="u" unicode="u" horiz-adv-x="449" 
d="M445 222q3 0 3 -6q-5 -49 -33 -99.5t-67 -83.5t-74 -33h-3q-52 6 -69 47q-13 31 -13 72q0 15 1 30q-28 -62 -64.5 -105.5t-76.5 -43.5q-51 5 -70 45q-14 33 -14 79q0 10 2 45t20 98q33 116 13 158q52 -8 102 -16q32 -6 47.5 -35t2.5 -59q0 -1 -1 -1q-22 -52 -41 -108
q-19 -57 -26 -98q-2 -14 -2 -25q0 -20 10 -20q38 0 128 222q9 21 13 31q10 28 22 55q19 37 75 37q17 0 43 -6q25 -6 47 -21q-18 -25 -41 -74q-23 -50 -44 -105q-20 -55 -28 -95q-3 -15 -3 -25q0 -19 11 -19q33 0 87 87q27 44 38 67q3 5 5 5z" />
    <glyph glyph-name="u" unicode="&#xfc;" horiz-adv-x="449" 
d="M445 222q3 0 3 -6q-5 -49 -33 -99.5t-67 -83.5t-74 -33h-3q-52 6 -69 47q-13 31 -13 72q0 15 1 30q-28 -62 -64.5 -105.5t-76.5 -43.5q-51 5 -70 45q-14 33 -14 79q0 10 2 45t20 98q33 116 13 158q52 -8 102 -16q32 -6 47.5 -35t2.5 -59q0 -1 -1 -1q-22 -52 -41 -108
q-19 -57 -26 -98q-2 -14 -2 -25q0 -20 10 -20q38 0 128 222q9 21 13 31q10 28 22 55q19 37 75 37q17 0 43 -6q25 -6 47 -21q-18 -25 -41 -74q-23 -50 -44 -105q-20 -55 -28 -95q-3 -15 -3 -25q0 -19 11 -19q33 0 87 87q27 44 38 67q3 5 5 5z" />
    <glyph glyph-name="u" unicode="&#xfb;" horiz-adv-x="449" 
d="M445 222q3 0 3 -6q-5 -49 -33 -99.5t-67 -83.5t-74 -33h-3q-52 6 -69 47q-13 31 -13 72q0 15 1 30q-28 -62 -64.5 -105.5t-76.5 -43.5q-51 5 -70 45q-14 33 -14 79q0 10 2 45t20 98q33 116 13 158q52 -8 102 -16q32 -6 47.5 -35t2.5 -59q0 -1 -1 -1q-22 -52 -41 -108
q-19 -57 -26 -98q-2 -14 -2 -25q0 -20 10 -20q38 0 128 222q9 21 13 31q10 28 22 55q19 37 75 37q17 0 43 -6q25 -6 47 -21q-18 -25 -41 -74q-23 -50 -44 -105q-20 -55 -28 -95q-3 -15 -3 -25q0 -19 11 -19q33 0 87 87q27 44 38 67q3 5 5 5z" />
    <glyph glyph-name="u" unicode="&#xfa;" horiz-adv-x="449" 
d="M445 222q3 0 3 -6q-5 -49 -33 -99.5t-67 -83.5t-74 -33h-3q-52 6 -69 47q-13 31 -13 72q0 15 1 30q-28 -62 -64.5 -105.5t-76.5 -43.5q-51 5 -70 45q-14 33 -14 79q0 10 2 45t20 98q33 116 13 158q52 -8 102 -16q32 -6 47.5 -35t2.5 -59q0 -1 -1 -1q-22 -52 -41 -108
q-19 -57 -26 -98q-2 -14 -2 -25q0 -20 10 -20q38 0 128 222q9 21 13 31q10 28 22 55q19 37 75 37q17 0 43 -6q25 -6 47 -21q-18 -25 -41 -74q-23 -50 -44 -105q-20 -55 -28 -95q-3 -15 -3 -25q0 -19 11 -19q33 0 87 87q27 44 38 67q3 5 5 5z" />
    <glyph glyph-name="u" unicode="&#xf9;" horiz-adv-x="449" 
d="M445 222q3 0 3 -6q-5 -49 -33 -99.5t-67 -83.5t-74 -33h-3q-52 6 -69 47q-13 31 -13 72q0 15 1 30q-28 -62 -64.5 -105.5t-76.5 -43.5q-51 5 -70 45q-14 33 -14 79q0 10 2 45t20 98q33 116 13 158q52 -8 102 -16q32 -6 47.5 -35t2.5 -59q0 -1 -1 -1q-22 -52 -41 -108
q-19 -57 -26 -98q-2 -14 -2 -25q0 -20 10 -20q38 0 128 222q9 21 13 31q10 28 22 55q19 37 75 37q17 0 43 -6q25 -6 47 -21q-18 -25 -41 -74q-23 -50 -44 -105q-20 -55 -28 -95q-3 -15 -3 -25q0 -19 11 -19q33 0 87 87q27 44 38 67q3 5 5 5z" />
    <glyph glyph-name="v" unicode="v" horiz-adv-x="293" 
d="M131 5q-12 -5 -28 -5q-5 0 -19.5 1.5t-34 9.5t-25.5 17q-44 78 -48 178v25q0 83 21 137q13 27 43 33q12 3 25 3q17 0 42.5 -6t46.5 -21q-15 -15 -35.5 -67.5t-30.5 -117.5q-5 -28 -5 -55q0 -32 8 -62l14 50q31 106 72 190q17 34 28 53.5t15 20.5l3 2q5 0 20.5 -15
t24.5 -33.5t-1 -33.5q-37 -43 -66.5 -103t-48 -115.5t-21.5 -85.5z" />
    <glyph glyph-name="w" unicode="w" horiz-adv-x="472" 
d="M312 5q-13 -5 -29 -5q-6 0 -20.5 1.5t-33.5 9.5t-25 17q-18 30 -28 83q-7 41 -7 79l1 25q-21 -50 -35 -115t-15 -95q-13 -5 -29 -5q-5 0 -19.5 1.5t-34 9.5t-25.5 17q-44 78 -48 178v24q0 158 64 171q13 3 25 3q17 0 43 -6q18 -5 25.5 -22t-0.5 -33q-6 -15 -14 -34
q-20 -52 -31 -117q-4 -29 -4 -55q0 -32 7 -62q1 -3 3 -3t13 47q8 45 24 104q8 28 18 57t20 52t19.5 41.5t16 28.5t9.5 10q36 0 65 -6q16 -4 24.5 -17.5t5.5 -29.5q-7 -30 -15 -81.5t-13.5 -92t-5.5 -48.5q0 -32 7 -62l20 66q24 79 77 195q7 16 25 21t33 -5q37 -25 21 -43
q-36 -43 -66 -103t-48 -116q-19 -55 -20 -85z" />
    <glyph glyph-name="x" unicode="x" horiz-adv-x="244" 
d="M-17 41q-32 -41 -64 -41q-11 0 -23 4q45 48 85 103q-42 86 -42 193q0 39 7 73q10 38 63 38q17 0 42.5 -6t47.5 -21q-26 -78 -26 -145q50 77 102 151q5 4 17 6q7 1 14 1q5 0 14.5 -0.5t14.5 -7.5q2 -3 2 -6q0 -6 -7 -14q-45 -60 -88 -121q-32 -44 -63 -86q10 -46 28.5 -72
t39.5 -26q33 0 90 94q29 47 35 58q3 5 5 5t3 -7q-5 -48 -33 -97.5t-66 -81.5t-72 -32h-3q-63 7 -101 63q-11 -13 -22 -25z" />
    <glyph glyph-name="y" unicode="y" horiz-adv-x="388" 
d="M325 410q23 -4 43 -22q-15 -44 -34 -112q-24 -88 -57 -186t-80 -169.5t-111 -82.5q-4 -1 -11 -1q-10 0 -31.5 3t-48 18.5t-33.5 51.5q25 -19 48 -19q21 0 49 24t58 95q30 73 51 157q-28 -68 -68 -118t-83 -50q-50 5 -70 45q-14 33 -14 79q0 10 2 45t20 98q18 62 40 112
q13 27 45 33q15 3 30 3q16 0 42 -5q26 -6 48 -21q-18 -25 -40 -75q-23 -52 -42 -108q-19 -57 -26 -98q-2 -14 -2 -24q0 -21 10 -21q21 0 51 47t56 108t34 98q6 26 10 53q7 27 38 38q20 7 43 7q10 0 33 -3z" />
    <glyph glyph-name="y" unicode="&#xff;" horiz-adv-x="388" 
d="M325 410q23 -4 43 -22q-15 -44 -34 -112q-24 -88 -57 -186t-80 -169.5t-111 -82.5q-4 -1 -11 -1q-10 0 -31.5 3t-48 18.5t-33.5 51.5q25 -19 48 -19q21 0 49 24t58 95q30 73 51 157q-28 -68 -68 -118t-83 -50q-50 5 -70 45q-14 33 -14 79q0 10 2 45t20 98q18 62 40 112
q13 27 45 33q15 3 30 3q16 0 42 -5q26 -6 48 -21q-18 -25 -40 -75q-23 -52 -42 -108q-19 -57 -26 -98q-2 -14 -2 -24q0 -21 10 -21q21 0 51 47t56 108t34 98q6 26 10 53q7 27 38 38q20 7 43 7q10 0 33 -3z" />
    <glyph glyph-name="y" unicode="&#xfd;" horiz-adv-x="388" 
d="M325 410q23 -4 43 -22q-15 -44 -34 -112q-24 -88 -57 -186t-80 -169.5t-111 -82.5q-4 -1 -11 -1q-10 0 -31.5 3t-48 18.5t-33.5 51.5q25 -19 48 -19q21 0 49 24t58 95q30 73 51 157q-28 -68 -68 -118t-83 -50q-50 5 -70 45q-14 33 -14 79q0 10 2 45t20 98q18 62 40 112
q13 27 45 33q15 3 30 3q16 0 42 -5q26 -6 48 -21q-18 -25 -40 -75q-23 -52 -42 -108q-19 -57 -26 -98q-2 -14 -2 -24q0 -21 10 -21q21 0 51 47t56 108t34 98q6 26 10 53q7 27 38 38q20 7 43 7q10 0 33 -3z" />
    <glyph glyph-name="z" unicode="z" horiz-adv-x="445" 
d="M270 196q-36 -32 -58.5 -56t-24.5 -39l19 7q72 29 116 29q7 0 26.5 -1.5t34.5 -32.5q7 -14 7 -37q0 -26 -9 -65q-29 10 -146.5 10.5t-138.5 -5.5q-25 -5 -32 -5q-44 1 -44 32q0 1 2 20t34.5 71t75.5 105t77.5 91t42.5 45h-86q-89 -21 -89 1q0 18 13 33.5t39 15.5h260
q36 -7 36 -39q0 -24 -17 -45q-72 -81 -138 -135z" />
    <glyph glyph-name="braceleft" unicode="{" horiz-adv-x="364" 
d="M207 323.5q-17 -31.5 -49 -50.5q28 -6 47 -46q12 -25 18 -51q4 -16 5 -34t1 -46q4 -109 15 -158q3 -13 11 -37t32 -25q-47 -10 -80 9q-45 26 -64 114q-11 47 -14 111q-4 55 -10 84l-0.5 1t-1 2.5t-0.5 3t-1 4.5l-2 6q-3 15 -18.5 28.5t-43.5 26.5q70 38 76 110
q11 100 37 200q21 76 52 104t94 42q-30 -18 -46 -68.5t-23.5 -111.5t-10.5 -109l-4 -47q-3 -31 -20 -62.5z" />
    <glyph glyph-name="braceright" unicode="}" horiz-adv-x="364" 
d="M236 376q5 -72 75 -110q-27 -13 -42.5 -26.5t-19.5 -28.5l-4 -17q-6 -29 -10 -84q-4 -64 -14 -111q-20 -88 -64 -114q-33 -19 -80 -9q24 1 32 25t11 37q11 49 14 158q1 27 2 46q1 17 5 34q6 26 18 51q19 40 46 46q-31 19 -48 50.5t-21 62.5l-3 47q-4 49 -11 109
q-7 61 -23 111.5t-46 68.5q63 -14 93.5 -42t51.5 -104q27 -99 38 -200z" />
    <glyph glyph-name="asciitilde" unicode="~" horiz-adv-x="409" 
d="M335 340q10 -7 16 -27t6 -30q0 -9 -20 -22t-76 -15q-26 1 -60 6q-38 8 -73 8q-37 0 -64 -19q-10 6 -11.5 37t7.5 38q16 15 62 23l18 1q32 0 78 -13q32 -10 59 -11q12 0 30.5 7t27.5 17z" />
    <glyph glyph-name="nonbreakingspace" unicode="&#xa0;" horiz-adv-x="655" 
 />
    <glyph glyph-name="softhyphen" unicode="&#xad;" horiz-adv-x="0" 
 />
    <glyph glyph-name="quoteleft" unicode="&#x2018;" 
d="M126.5 600q-8.5 -10 -8.5 -21v-2h8q14 0 19.5 -9.5t5.5 -20.5q0 -6 -2 -14q-6 -20 -22 -34t-38 -14q-36 0 -37 37q0 7 3 21.5t16.5 36.5t34 37.5t45.5 15.5q6 0 6 -2q0 -4 -11 -12.5t-19.5 -18.5z" />
    <glyph glyph-name="quoteright" unicode="&#x2019;" 
d="M152 617q5 -10 5 -22q0 -7 -2.5 -22t-16.5 -36.5t-34.5 -36.5t-44.5 -15q-6 0 -6 2t11 12q28 22 28 40v2l-8 -1q-25 0 -25 28.5t24 49.5q15 15 37 15q24 0 32 -16z" />
    <glyph glyph-name="quotedblleft" unicode="&#x201c;" horiz-adv-x="316" 
d="M105.5 617.5q20.5 15.5 45.5 15.5q6 0 6 -2q0 -4 -10.5 -12.5t-19.5 -19t-9 -21.5v-1h8q15 0 20 -10q5 -8 5 -19q0 -7 -2 -15q-5 -20 -21 -34t-39 -14q-36 0 -37 37q0 7 3 21.5t16.5 36.5t34 37.5zM232 577q25 0 25 -29t-23 -49q-16 -14 -38 -14q-37 0 -37 38q0 7 3 21
t16.5 36t34 37.5t44.5 15.5q6 0 6 -2q0 -4 -10.5 -12.5t-19.5 -19t-9 -21.5v-1h8z" />
    <glyph glyph-name="quotedblright" unicode="&#x201d;" horiz-adv-x="316" 
d="M120 633q24 0 32 -16q5 -10 5 -22q0 -7 -2.5 -22t-16.5 -36.5t-34.5 -36.5t-44.5 -15q-7 0 -7 2t12 12q28 22 28 40v2l-8 -1q-25 0 -25 28.5t23 49.5q16 15 38 15zM227 633q37 0 37 -39q0 -6 -3 -21q-2 -15 -16 -36.5t-34.5 -37t-45.5 -15.5q-6 0 -6 2q0 4 12 13
q27 22 27 40v2l-8 -1q-14 0 -20 10q-5 8 -5 18q0 30 23 50q17 15 39 15z" />
    <glyph glyph-name="quotedblbase" unicode="&#x201e;" horiz-adv-x="312" 
d="M120 117q37 0 37 -38q0 -7 -2.5 -21.5t-16.5 -36.5t-35 -37.5t-45 -15.5q-5 0 -5 2q0 4 10.5 12.5t19.5 19t9 21.5v2l-8 -1q-15 0 -21 10q-5 8 -5 18q0 7 2 16q6 20 22 34.5t38 14.5zM222 118q37 0 37 -39q0 -6 -2.5 -21t-16 -36.5t-34.5 -37t-45 -15.5q-6 0 -6 2
q0 3 10.5 12t19.5 19t9 21v2h-8q-15 0 -21 10q-4 7 -4 18q0 7 2 15q5 21 21 35.5t38 14.5z" />
    <glyph glyph-name="daggerdbl" unicode="&#x2021;" horiz-adv-x="445" 
d="M392 394h-128v-175h128v-76h-128v-156h-76v156h-136v76h136v175h-136v76h136v143h76v-143h128v-76z" />
    <glyph glyph-name="bullet" unicode="&#x2022;" horiz-adv-x="262" 
d="M130.5 157q-32.5 0 -55.5 23t-23 55.5t23 55.5t55.5 23t55.5 -23t23 -55.5t-23 -55.5t-55.5 -23z" />
    <glyph glyph-name="ellipsis" unicode="&#x2026;" horiz-adv-x="482" 
d="M108.5 2q-23.5 0 -39.5 16.5t-16 39.5t16 39.5t39.5 16.5t40 -16.5t16.5 -39.5t-16.5 -39.5t-40 -16.5zM235.5 2q-23.5 0 -40 16.5t-16.5 39.5t16.5 39.5t40 16.5t40 -16.5t16.5 -39.5t-16.5 -39.5t-40 -16.5zM373.5 2q-23.5 0 -40 16.5t-16.5 39.5t16.5 39.5t40 16.5
t40 -16.5t16.5 -39.5t-16.5 -39.5t-40 -16.5z" />
    <glyph glyph-name="guilsinglleft" unicode="&#x2039;" horiz-adv-x="407" 
d="M185 276l169 -128l-46 -60l-256 194l259 164l41 -64z" />
    <glyph glyph-name="guilsinglright" unicode="&#x203a;" horiz-adv-x="407" 
d="M96 446l258 -164l-256 -194l-46 60l169 128l-166 106z" />
    <glyph glyph-name="franc" unicode="&#x20a3;" horiz-adv-x="764" 
d="M708 640q3 -18 3 -35q0 -32 -15 -57q-18 -23 -78 -29q-41 -4 -94 -4q-26 0 -55 1q-28 -68 -62 -163l-18 -47h23q34 0 61 -7q32 -9 32 -47l-1 -13l-7 1q-24 7 -60 7q-27 0 -71 -7l-2 -4q-8 -29 -22 -67q41 4 67 15q2 -10 2 -20q0 -17 -9 -31q-16 -19 -83 -19
q-57 -128 -133 -145q-9 -2 -18 -2q-36 0 -78 32q-38 32 -38 79q0 9 5 43.5t55.5 89t131.5 76.5q38 140 72 239q-24 1 -46 3h-5q-33 3 -64 4q28 44 58 64q25 17 71 17h16q70 -4 131 -4q42 0 107 3q66 3 124 27zM225 206l5 18q-76 -22 -108 -73q-26 -42 -26 -80q0 -7 3.5 -32
t39.5 -26q35 3 66 107q-21 0 -41 2q-19 0 -38 2q15 25 31 35t43 10h17q5 21 8 37z" />
    <glyph glyph-name="lira" unicode="&#x20a4;" horiz-adv-x="647" 
d="M546 400l-81 40q21 33 21 52q0 4 -1 8q-6 17 -30 17h-2q-60 -2 -93 -43q-32 -41 -49 -101h80v-45h-91l-7 -29l-6 -28l-6 -35h84v-45h-94q-13 -57 -36 -90q41 -5 78.5 -23t62.5 -18t41 33l90 -20q-31 -70 -63 -94q-27 -21 -57 -21q-5 0 -25.5 2.5t-62.5 17.5t-93 23
q-15 3 -31 3q-38 0 -81 -13q-11 -4 -19 -4q-3 0 -8 1q-9 3 -9 27q-2 14 -4 19q-2 7 -2 15q0 6 2 16q2 9 23 22q35 16 56 47q17 25 29 57h-81v45h95l9 35l8 35l4 22h-90v45h99q14 65 40.5 120.5t80.5 88.5q51 31 139 31h11q104 -6 116 -63q2 -10 2 -21q0 -53 -49 -129z" />
    <glyph glyph-name="Euro" unicode="&#x20ac;" horiz-adv-x="536" 
d="M469 543q14 -19 14 -48q0 -20 -7 -44q-31 16 -60 16q-20 0 -38 -8q-62 -30 -96 -93l-7 -18h102v-45h-119l-4 -11q-3 -11 -4 -23q-1 -10 -1 -22h87v-46h-89q0 -5 1 -5q7 -62 47 -94q22 -18 55 -18q26 0 59 11q-34 -123 -126 -123q-9 0 -18 2q-77 13 -112.5 76.5
t-35.5 150.5h-64v46h67l2 22l6 33h-35v46h50l6 18q24 66 67.5 120t103.5 85q29 14 61 14q10 0 37 -4.5t51 -37.5z" />
    <glyph glyph-name="numero" unicode="&#x2116;" horiz-adv-x="1289" 
d="M852 538q-30 -53 -57 -108.5t-57 -130.5t-46 -149.5t-11 -133.5q2 -20 -15.5 -30.5t-35.5 -0.5q-77 39 -103 141q-18 70 -31.5 130.5t-17.5 86.5l-5 26q-1 -7 -3 -19t-9.5 -47.5t-16 -68t-22.5 -74.5t-29 -74.5t-35 -59.5t-41 -38q-35 -16 -81.5 -18.5t-86.5 8.5
t-68.5 36.5t-28.5 59.5l15 -5t36.5 -5.5t54 1t61 19.5t63 45t55 84t41.5 129q17 85 25.5 151t8.5 99.5t-2.5 55.5t-6.5 28l-4 6q3 -1 8 -3t18.5 -8.5t26 -14.5t28 -21t26.5 -28t18.5 -35.5t7.5 -42.5q0 -108 15 -226t46 -153q59 301 174 482q8 13 23.5 16.5t28.5 -4.5
q30 -16 39.5 -46.5t-6.5 -59.5zM989.5 98q-68.5 13 -104 89t-17.5 170t79 151.5t129.5 44.5t104.5 -89t18 -170.5t-79.5 -151.5t-130 -44zM939 348.5q-13 -69.5 13 -125.5t76.5 -65.5t95.5 33t58.5 111.5t-13 125t-77 66t-95.5 -32.5t-58 -112zM1237 -45h-443v76h443v-76z
" />
    <glyph glyph-name="trademark" unicode="&#x2122;" horiz-adv-x="1150" 
d="M472 543q1 -64 -30 -168.5t-79 -207.5q-14 -32 -24.5 -62t-15.5 -53t-8 -43.5t-2.5 -34.5t1.5 -24t2 -15l1 -5q-1 2 -12 0t-28.5 3t-34 11.5t-27.5 25.5t-10 45q2 31 49.5 143t93 227.5t44.5 156.5q0 5 -59 -5t-70 -13q-66 -22 -113 -65q-35 -33 -56 -76q-16 -31 -14 -34
q-27 43 -27.5 86t21 77t60 63t90 44.5t111.5 20.5t124 -8q70 -14 165 -14t155 7l60 7q0 -2 -1 -6.5t-6.5 -17.5t-14.5 -25.5t-27.5 -30t-43.5 -32.5q-23 -15 -52.5 -15t-56 9t-73 18.5t-92.5 10.5zM1094 181q3 0 3 -7q-4 -49 -32 -99q-17 -30 -57 -72t-60 -42
q-36 0 -57.5 18.5t-27.5 50.5t-5 63.5t8 67.5q4 23 10 46t10 34l4 12q-41 -30 -133 -227q-14 -30 -27 -60l-1 -3q-130 14 -64 224q8 24 13 50q-15 -19 -35.5 -54t-39 -72t-35 -70.5t-25.5 -55.5l-10 -22q-130 14 -64 224q8 25 14 54t8.5 44t5.5 42.5t3 28.5q1 8 10.5 15
t17.5 5q3 0 17 -1.5t29.5 -3.5t24.5 -4q34 -7 36 -27t-18 -64q-26 -69 -54 -185q66 127 127 211q39 56 64 71q29 -4 40 -6q35 -7 36.5 -27t-17.5 -64q-11 -29 -27 -83q-4 -14 -17 -61v-1q-3 -13 -5 -30q20 37 43.5 77.5t54.5 89.5t59 80t44 29q14 0 31 -4t32.5 -9t29 -9.5
t21.5 -7.5l7 -4q-87 -82 -118 -198q-10 -35 -12 -70q-2 -18 -2 -37v-3q0 -6 0.5 -8t3 -4t7.5 -2q35 0 92 97q27 46 33 58q3 5 4 5z" />
    <glyph glyph-name="minus" unicode="&#x2212;" horiz-adv-x="510" 
d="M73 227l385 2l-24 -75h-382z" />
    <glyph glyph-name="infinity" unicode="&#x221e;" horiz-adv-x="566" 
d="M494 335q19 -21 19 -57q0 -17 -4 -38q-14 -50 -53 -81.5t-87 -33.5q-49 0 -72 31q-55 -50 -130 -53h-2q-59 0 -90 34q-22 25 -22 62q0 14 3 31q20 80 77 119q51 35 102 35q7 0 40 -3t60 -56q44 37 94 37q40 0 65 -27zM257 238q11 13 11 22q0 5 -8 13t-35 9
q-27 0 -52 -10.5t-32 -31.5q-1 -5 -1 -10q0 -25 36 -25q13 0 36 6.5t45 26.5zM434 217.5q18 13.5 18 39.5q-1 15 -18 21.5t-39 6.5q-22 -1 -37 -9q-12 -5 -12 -16l1 -4q12 -43 38 -50q7 -2 14 -2q17 0 35 13.5z" />
    <glyph glyph-name="lessequal" unicode="&#x2264;" horiz-adv-x="510" 
d="M73 49l385 2l-24 -75h-382zM384 148l-46 -60l-256 194l259 164l41 -64l-167 -106z" />
    <glyph glyph-name="greaterequal" unicode="&#x2265;" horiz-adv-x="510" 
d="M73 49l385 2l-24 -75h-382zM172 88l-46 60l169 128l-167 106l41 64l259 -164z" />
    <glyph glyph-name="r.alt1" unicode="&#xf01c;" horiz-adv-x="415" 
d="M317 213q26 -1 99 39q-20 -32 -41.5 -51.5t-41 -26t-35.5 -4t-30 11.5q-29 20 -34 55v10v18q-1 19 -17 20q-15 0 -48 -40q-34 -40 -67 -106q-25 -51 -39 -106q-4 -16 -17 -25t-29 -8l-75 8l2.5 22t6.5 55.5t9 76t9 84t7 79.5t3.5 62t-2.5 31q22 -2 51 -5q41 -4 65 -38.5
t12 -74.5q-5 -19 -15 -59.5t-16 -60.5l17 33q16 32 45 76q28 43 64 77.5t77 42.5h6q4 0 6 -1q26 -2 37 -25q3 -5 4 -10q10 -28 -7 -59q-14 -26 -18.5 -53.5t2.5 -39.5q3 -7 10 -8z" />
    <glyph glyph-name="n.alt1" unicode="&#xf01d;" horiz-adv-x="350" 
d="M265 423q21 -1 51.5 -9.5t50.5 -16.5l19 -8q-33 -31 -79 -103q-5 -7 -11 -17q-32 -54 -41 -165q-2 -20 -2 -33q-2 -32 -1 -61v-1h-4q-36 0 -57.5 18.5t-27.5 49.5t-5 62.5t8 67.5q4 22 10 45t10 35l3 12q-40 -30 -132 -228q-14 -30 -27 -60l-1 -2q-131 14 -65 224
q8 24 14 50q7 30 11 65q40 56 65 70q28 -3 40 -5q34 -7 36 -27.5t-17 -63.5q-11 -29 -27 -83q-4 -14 -17 -61v-1q-9 -32 -10 -40q4 9 5 10q20 37 43 77.5t54.5 89.5t59.5 79.5t44 29.5z" />
    <glyph glyph-name="m.alt1" unicode="&#xf01e;" horiz-adv-x="572" 
d="M466 414q22 -1 52 -9.5t50 -16.5l20 -8q-34 -31 -80 -103q-4 -7 -10 -17q-33 -54 -42 -165q-1 -20 -2 -33q-1 -32 0 -61v-1h-4h-1q-35 0 -56.5 18t-27.5 49.5t-5.5 62.5t7.5 68q4 22 10 45t10 35l4 12q-40 -30 -133 -228q-14 -30 -27 -60l-1 -2q-130 14 -64 224
q8 24 13 50q-24 -30 -60.5 -98.5t-60.5 -122.5l-24 -53q-130 14 -64 224q7 20 12 41t8 41t5 33.5t4 31t3 22.5q1 8 10 14.5t17 5.5q3 0 17.5 -2t29.5 -4t24 -3q34 -7 36 -27.5t-18 -63.5q-26 -69 -54 -185q67 127 127 211q40 56 64 70q29 -3 41 -5q34 -7 36 -27.5t-18 -63.5
q-11 -29 -26 -83q-4 -14 -17 -61l-1 -1q-2 -13 -5 -30q20 37 43.5 77.5t54.5 89.5t59 79.5t44 29.5z" />
    <glyph glyph-name="a.alt1" unicode="&#xf01f;" horiz-adv-x="395" 
d="M297 146q-25 -61 -6 -76q14 -8 35 16l-1 -11q-3 -28 -22 -49.5t-47 -24.5q-4 -1 -9 -1h-2q-64 7 -77 66q-30 -30 -63 -43t-61 -5q-52 16 -72 86t5 154q24 82 89.5 131.5t119.5 33.5q56 -17 68 -92l59 29q9 -7 14 -23t4.5 -36t-3.5 -41.5t-8.5 -43.5t-11 -39.5
t-11.5 -30.5zM110 62q13 -3 28.5 14.5t29.5 47.5q9 48 40 131q14 71 -12 77q-16 4 -34 -17.5t-29.5 -47t-21.5 -53.5q-12 -36 -18 -67.5t-2.5 -56t19.5 -28.5z" />
    <glyph glyph-name="g.alt1" unicode="&#xf021;" horiz-adv-x="391" 
d="M492 -24q5 0 7 -5.5t2 -15t-1.5 -21t-4 -24t-4.5 -23t-4 -20t-2 -12.5q-1 -12 -11.5 -18t-21.5 -1q-63 34 -256 66q-36 -50 -84 -72q-3 -2 -10 -4t-20.5 -4t-27 -1t-29 8.5t-28 20.5t-22 38t-12.5 60q-6 4 -5 10q3 32 14 40q2 2 4 1q12 -7 68.5 -18.5t65.5 -11.5
q17 31 33 76q1 5 8 25q-58 -49 -108 -34q-53 15 -72.5 85.5t4.5 154.5q24 82 89.5 131.5t119.5 33.5q58 -17 69 -95l57 28l7 4q10 -7 15 -22q11 -36 -15.5 -154.5t-56.5 -183.5q-10 -22 -21 -44q155 5 253 2zM108 80q20 -5 43 33.5t36 80.5l12 45t10 45t2 46.5t-17 19.5
q-16 4 -34 -17.5t-29.5 -47t-20.5 -53.5q-13 -37 -18.5 -68t-2.5 -55.5t19 -28.5zM-19 -57q17 -25 37 -32.5t34 -3t25 15.5l-60 14q-6 2 -36 6z" />
    <glyph glyph-name="u.alt1" unicode="&#xf027;" horiz-adv-x="816" 
d="M749 258q14 -30 14.5 -64t-13.5 -66t-40 -59t-69 -45t-97 -21q-96 -7 -155.5 3t-86.5 34t-31 66q-2 -2 -16.5 -20.5t-27.5 -31.5t-37.5 -24t-52.5 -9q-51 4 -70 44q-15 34 -15 79q0 11 3 46q2 34 20 97q33 116 13 158q41 -6 85 -13q3 -1 8.5 -2t8.5 -1q32 -6 47.5 -35
t2.5 -59l-1 -1q-22 -51 -41 -108t-26 -98q-2 -14 -2 -24q0 -21 10 -21q12 0 28 21q38 48 100 201q5 12 8 20q1 2 2.5 5.5t2.5 5.5q11 30 22 55q3 6 7 10q21 27 68 27q17 0 43 -6q25 -5 47 -21q-18 -23 -41 -74q-24 -52 -44 -105q-17 -47 -26 -84q2 -17 7 -34q2 -10 9 -19
q10 -15 29 -26q48 -28 103 -15q97 25 115 94q13 51 -21 90q-24 26 -56 25q-12 -1 -32 -6q-10 -2 -15 6.5t2 15.5l60 67q5 1 12 2t28 -0.5t39 -8t39 -24.5t33 -47z" />
    <glyph glyph-name="a.alt2" unicode="&#xf028;" horiz-adv-x="708" 
d="M657 258q13 -30 13.5 -64t-13.5 -66t-40 -59t-69 -45t-96 -21q-142 -10 -205 15.5t-69 87.5q-29 -30 -62 -43t-61 -5q-52 15 -72 85.5t5 154.5q24 82 89.5 131t119.5 33q56 -16 68 -92l58 30q15 -11 18.5 -39.5t-2.5 -62t-14 -63t-17 -49.5q-2 -6 -4 -11q0 -3 -0.5 -11
t1.5 -26t6 -34q6 -21 28 -37.5t51.5 -23t62.5 0.5q96 25 114 94q13 51 -21 90q-23 26 -55 25q-13 -1 -33 -6q-9 -2 -14.5 6.5t1.5 15.5l61 67q4 1 11.5 2t28 -0.5t38.5 -8t39 -24.5t34 -47zM120 102q14 -3 29.5 14.5t29.5 46.5q8 48 40 131q14 72 -12 78q-10 2 -21 -5
t-20 -19.5t-18 -30t-15 -33t-11 -30.5q-12 -37 -18 -68.5t-2.5 -55.5t18.5 -28z" />
    <glyph glyph-name="a.alt3" unicode="&#xf029;" horiz-adv-x="819" 
d="M740 86q19 -22 25 -57q3 -15 -9.5 -24t-26.5 -2q-39 19 -109 22.5t-169.5 -1.5t-129.5 -5q-40 1 -68.5 12t-40.5 27t-18.5 31.5t-6.5 25.5l1 11q-30 -30 -63 -43t-61 -5q-52 15 -72 85.5t5 154.5q24 82 89.5 131.5t119.5 33.5q56 -16 68 -92l58 29q15 -11 18.5 -39.5
t-2.5 -62t-14 -62.5t-17 -50q-13 -31 -15.5 -64t9.5 -46q13 -12 36 -16q34 -6 82 5q50 13 109.5 21t121 5t80.5 -25zM129 123q14 -4 29.5 13.5t29.5 47.5q9 48 40 131q14 71 -12 77q-16 4 -34 -17.5t-30 -47t-21 -53.5q-12 -36 -18 -67.5t-2.5 -56t18.5 -27.5z" />
    <glyph glyph-name="slash.alt1" unicode="&#xf02a;" horiz-adv-x="606" 
d="M448 698h105l-409 -789h-92z" />
    </font>
</defs>
</svg>
