<?xml version="1.0" standalone="no"?>
<!DOCTYPE svg PUBLIC "-//W3C//DTD SVG 1.1//EN" "http://www.w3.org/Graphics/SVG/1.1/DTD/svg11.dtd" >
<svg xmlns="http://www.w3.org/2000/svg" xmlns:xlink="http://www.w3.org/1999/xlink" version="1.1">
<metadata>
Created by FontForge 20161003 at Fri Nov 23 10:49:40 2018
 By www-data
Copyright (c) 2017  by Trustha Studio. All rights reserved.
</metadata>
<defs>
<font id="Medinah" horiz-adv-x="250" >
  <font-face 
    font-family="Medinah"
    font-weight="400"
    font-stretch="normal"
    units-per-em="1000"
    panose-1="0 0 0 0 0 0 0 0 0 0"
    ascent="750"
    descent="-250"
    x-height="392"
    cap-height="699"
    bbox="-275.684 -259.878 789.125 1072.11"
    underline-thickness="50"
    underline-position="-150"
    unicode-range="U+000D-007A"
  />
<missing-glyph 
 />
    <glyph glyph-name=".notdef" 
 />
    <glyph glyph-name=".null" horiz-adv-x="0" 
 />
    <glyph glyph-name="nonmarkingreturn" unicode="&#xd;" 
 />
    <glyph glyph-name="NULL" horiz-adv-x="0" 
 />
    <glyph glyph-name="NULL" horiz-adv-x="0" 
 />
    <glyph glyph-name="space" unicode=" " 
 />
    <glyph glyph-name="zero" unicode="0" horiz-adv-x="483" 
d="M390 612q37 -31 58 -83t26 -113.5t-6 -126.5t-36.5 -121.5t-66 -99t-94.5 -57.5q-66 -19 -116 -7t-84.5 44.5t-52.5 79.5t-18 98q0 45 4.5 93t21.5 96q11 32 28.5 65t40 62.5t51 52.5t61.5 36q22 8 39 11q40 5 76 1t68 -31zM255 101q25 13 47.5 41.5t39.5 65.5t27 80
t11 86.5t-8.5 84t-32.5 72.5q-18 27 -43 30t-51 -11.5t-45.5 -40t-30 -59t-5.5 -69.5q2 -18 9.5 -35t21.5 -32q4 -4 5.5 -8.5t-9.5 -6.5q-25 -3 -44.5 1.5t-35.5 15.5q-8 -26 -8.5 -56t6 -59.5t19 -54.5t31.5 -40t43 -18t53 13z" />
    <glyph glyph-name="one" unicode="1" horiz-adv-x="326" 
d="M116 638q29 9 62 10.5t59 -10.5t40.5 -39t6.5 -74q-9 -48 -21.5 -106t-26 -117t-27 -114t-23.5 -97h4q29 1 42.5 -12.5t17.5 -30.5q4 -19 1 -45l-186 1q-23 1 -35.5 7t-19 17t-8 25.5t-2.5 31.5q0 4 2 6q3 3 6 3q11 -1 29.5 -1.5t42.5 -1.5q2 22 8.5 47.5t13.5 54.5
q2 9 7 32.5t12 55.5t15.5 69t16.5 72.5t15.5 67.5t13.5 53t-7.5 29.5t-32 1t-36 -33.5t-19.5 -73q0 -6 -4 -7q-5 -2 -8 1q-36 27 -46.5 54t-2 50.5t32.5 42.5t57 30z" />
    <glyph glyph-name="two" unicode="2" horiz-adv-x="562" 
d="M403 113q28 1 47.5 -8t30.5 -24t15.5 -34t2.5 -37q0 -7 -8 -7q-38 1 -92.5 0.5t-118.5 -1t-134 0t-138 2.5q-3 0 -6 3q-2 1 -2 6q3 31 25.5 66.5t56.5 73.5t75.5 77.5t82 77t76 72.5t58.5 65q35 47 35 74t-20 36t-53.5 2t-64.5 -27t-52.5 -53t-18.5 -75q0 -5 -3 -8
q-4 -2 -8 -1q-14 4 -38.5 14.5t-41.5 28.5t-19.5 44.5t27.5 61.5q30 36 73.5 58t92 32t96 7.5t86 -17t62.5 -39.5t25 -61q1 -28 -19.5 -63.5t-53.5 -75t-74 -80.5t-82.5 -78t-79.5 -68.5t-63 -52.5l41 3q44 1 92 2t90 3z" />
    <glyph glyph-name="three" unicode="3" horiz-adv-x="495" 
d="M333 361q62 -24 90.5 -59.5t30 -74t-19.5 -77.5t-57.5 -71t-85 -53t-100.5 -25q-48 -3 -87.5 10t-65.5 36.5t-35 54.5t6 63q12 27 44.5 43.5t70.5 21.5q4 1 8 -3q3 -4 1 -9q-11 -20 -13 -45t5.5 -46.5t24 -35t41.5 -11.5q18 2 42 14.5t46.5 32.5t39 44.5t19 50.5
t-13.5 50.5t-57 44.5l-3 2h-1l-1 1q-6 2 -9 4h-1q-4 2 -5 2q-12 5 -31 10l-2 2q-5 2 -10 3t-10 3q-10 3 -10 7t4 6q2 0 4 2q39 20 74 49t64 63q20 23 20 41.5t-13 31.5t-35 19.5t-46.5 5.5t-48.5 -9.5t-40 -26t-20.5 -44.5t9.5 -64q1 -5 -2 -8q-3 -5 -8 -3q-41 8 -64 27
t-29.5 42.5t2 49t30 47.5t55.5 38t79 20q99 9 159.5 -12.5t77.5 -62t-12.5 -94t-110.5 -108.5z" />
    <glyph glyph-name="four" unicode="4" horiz-adv-x="460" 
d="M404 651q8 0 24.5 -2t31.5 -8.5t23 -19t1 -34.5q-23 -65 -40 -115.5t-30 -94t-23 -83t-18.5 -83t-17 -94.5t-18.5 -117q-32 0 -56 12q-20 10 -34 34.5t-5 72.5q10 53 20.5 102.5t23.5 97.5q-26 -6 -58.5 -12.5t-64 -12t-58.5 -8t-43 0.5q-19 3 -34.5 16t-22.5 31.5
t-4 41.5t21 47q16 21 40.5 55t48.5 68t43.5 61.5t26.5 36.5q1 4 6 4q25 0 53.5 0.5t47 -3t22.5 -13t-19 -30.5l-184 -212q-3 -5 0 -10t9 -3l200 50q17 56 37 110t43 109q3 5 8 5z" />
    <glyph glyph-name="five" unicode="5" horiz-adv-x="481" 
d="M384 636q12 0 35.5 -4.5t42 -19t23.5 -41.5t-19 -72q-2 -4 -6 -4q-3 -2 -7 2q-19 16 -50 24t-64 11t-64 1.5t-50 -2.5h-17l-30 -109h11h1q58 3 112 -11t89 -45t43.5 -78t-23.5 -111q-14 -28 -34.5 -54t-45.5 -47.5t-52 -37.5t-54 -24q-72 -22 -121 -8t-74.5 46.5
t-28.5 74t16 74.5t60.5 48t104.5 -5q5 -2 5 -6q1 -5 -2 -8q-49 -49 -67.5 -81.5t-15 -49.5t24 -18t48.5 13.5t58 44t54 74.5q17 33 17 60.5t-23.5 46.5t-74 27t-134.5 1q-4 0 -7 3q-2 2 -2 7l64 270q1 5 8 7l180 2l69 -1v0z" />
    <glyph glyph-name="six" unicode="6" horiz-adv-x="442" 
d="M434 624q3 -5 2 -9t-7 -6q-34 -3 -71.5 -18.5t-75 -46t-71.5 -76t-60 -106.5q15 13 43 24q32 12 64.5 9t59 -18.5t44.5 -41.5t22 -61q3 -26 0.5 -55t-9.5 -55q-13 -50 -41.5 -84.5t-64.5 -54.5t-75.5 -24.5t-75.5 4.5t-63.5 32t-39.5 59q-16 48 -15 99.5t14.5 102.5
t35.5 98.5t48 88.5q21 32 46.5 63t53.5 56.5t58 42.5t60.5 21.5t60 -5.5t57.5 -39zM164 228q-2 -11 -8 -12.5t-13 3t-14.5 14.5t-11.5 24q-13 -58 -5.5 -93.5t26 -51.5t43.5 -12.5t48 24t39.5 57.5t17.5 88q1 46 -19 59.5t-43.5 4t-42.5 -37.5t-17 -67z" />
    <glyph glyph-name="seven" unicode="7" horiz-adv-x="363" 
d="M250 650q25 1 49 -4.5t41 -20.5t25 -40.5t1 -63.5q-7 -37 -15.5 -79.5t-18.5 -87.5t-20.5 -90t-20.5 -86q-24 -97 -49 -196q-47 3 -66.5 19t-22.5 42t5.5 60t17.5 73q2 9 8.5 32t15 54t18 67t18 71t15.5 66.5t10 54.5q3 22 -9.5 32t-33 9t-46.5 -12t-51.5 -29.5
t-46.5 -43.5t-31 -55q-2 -5 -6 -6q-5 0 -8 3q-16 18 -23 40t-6 44t10 42.5t25 36.5q16 15 45 27.5t61.5 21t62 13.5t46.5 6z" />
    <glyph glyph-name="eight" unicode="8" horiz-adv-x="431" 
d="M420 449q-15 -53 -50.5 -84t-80.5 -44q51 -20 70.5 -55t15.5 -75.5t-28 -81t-59 -70.5q-28 -24 -63 -33t-70.5 -5t-67 20t-53.5 42t-30.5 60.5t3.5 76.5q14 53 50 84t81 44q-52 19 -71.5 54.5t-15.5 76t28 81t59 70.5q28 24 63 33t70.5 5t67.5 -20t54 -42t30.5 -60.5
t-3.5 -76.5zM250 136q18 47 15.5 77t-18 44t-38.5 14t-45.5 -14t-39.5 -41t-19 -65q-2 -36 10.5 -62t42.5 -25q14 0 22.5 7.5t13.5 19.5t7.5 27t3.5 30q0 3 1 6t8 -2q20 -16 28 -33q0 1 4 9zM321 498q2 36 -10.5 62t-42.5 25q-14 0 -22 -7.5t-13.5 -19t-8 -26t-3.5 -29.5
q0 -5 -1 -8t-8 2q-9 8 -15.5 16t-11.5 17q-1 -1 -5 -9l-4 -8q-19 -47 -16 -77t18.5 -44t38.5 -14t45.5 14t39 41t19.5 65z" />
    <glyph glyph-name="nine" unicode="9" horiz-adv-x="451" 
d="M423 550q16 -48 15 -100t-14.5 -103t-36 -99t-48.5 -89q-21 -32 -46.5 -63t-53.5 -56.5t-58.5 -42.5t-60.5 -21.5t-60 5.5t-58 39q-4 5 -1 9q1 6 7 6q34 3 72 19t75 46.5t71.5 75.5t60.5 107q-9 -7 -19.5 -12.5t-24.5 -10.5q-34 -13 -67 -10t-59.5 19t-44 44t-20.5 64
q-2 26 0.5 53t9.5 52q13 50 41.5 85t64.5 54.5t76 24.5t75.5 -4.5t63.5 -32.5t40 -59zM321 388q12 56 5.5 91.5t-24 52.5t-41.5 15.5t-47 -19.5t-40.5 -51.5t-21.5 -80.5q-1 -11 -1 -24t2.5 -24.5t9 -21t18.5 -14.5q19 -7 36 1t30 24.5t20 38t6 41.5q0 1 1 2q2 10 8 11.5
t13 -3.5t14 -15.5t12 -23.5z" />
    <glyph glyph-name="A" unicode="A" horiz-adv-x="741" 
d="M769 676q13 -10 16.5 -22t1.5 -25.5t-7.5 -27.5t-10.5 -27q-20 -55 -39.5 -123t-33.5 -139q18 -13 25.5 -39t1.5 -63q0 -3 -3 -6q-2 -1 -7 -1q-16 4 -35 6q-7 -48 -10 -92.5t-0.5 -80.5t11.5 -62.5t25 -38.5q5 -3 3 -8q-1 -5 -6 -7q-23 -3 -45 -4t-41.5 5t-35 20.5
t-25.5 43.5q-11 32 -7.5 93.5t16.5 136.5q-38 0 -77 -1.5t-79 -5.5l-93 -113l-57 -68q-12 -15 -24.5 -27t-25.5 -20q-24 -18 -47.5 -26.5t-44.5 -10.5t-39 1.5t-30 9.5q-21 10 -32.5 29.5t-13.5 43t5.5 48.5t24.5 47q24 31 61 57.5t80 48t86.5 37.5t79.5 26q13 15 25.5 30.5
t26.5 31.5l124 150q37 45 74.5 91.5t75.5 88.5q8 8 16.5 13t19.5 4q17 -2 37.5 -8t32.5 -16zM178 101q18 21 35 41t33 40q-70 -17 -118 -43q-18 -11 -32.5 -24t-22.5 -33q-5 -12 -6 -24t2.5 -19.5t13 -8.5t25.5 8q21 13 38 29t32 34zM586 325q8 36 17 71l18 70l-121 -146
q22 2 43.5 3.5t42.5 1.5z" />
    <glyph glyph-name="B" unicode="B" horiz-adv-x="583" 
d="M500 242q31 -29 43 -64.5t7.5 -71.5t-25 -70t-54 -60.5t-80 -42.5t-103.5 -15q-20 0 -46 3t-45 12q-35 16 -49.5 49t-16 72t5.5 79t15 72q11 50 24 103.5t26 108.5q-25 -12 -56 -17.5t-72 -0.5q-46 36 -62.5 72t-9.5 69t33 62.5t65 51t87.5 34t99.5 13.5q88 2 150.5 -26
t100.5 -71.5t51.5 -96.5t3 -101.5t-45 -85.5t-91.5 -50q14 -5 24.5 -12.5t19.5 -15.5zM382 11q26 24 38 58t7.5 70t-26.5 70.5t-64 58.5q-5 2 -6 5.5t7 6.5q25 9 50.5 27.5t47 44t36 55.5t18 61.5t-7.5 62.5t-41 59q-20 18 -47 26.5t-56.5 10t-59 -4t-53.5 -16.5
q-48 -21 -87.5 -60.5t-55.5 -94.5q25 1 51 14t48.5 32.5t39 43.5t21.5 49q2 6 7 6q20 2 39 0.5t32.5 -9t19.5 -22.5t1 -39q-8 -35 -17.5 -74.5t-20 -80.5t-20 -81t-17.5 -75q-5 -20 -10.5 -44t-11.5 -50q-3 -16 -4.5 -34.5t1 -35.5t10 -32t21.5 -24q28 -19 57.5 -11.5
t52.5 27.5z" />
    <glyph glyph-name="C" unicode="C" horiz-adv-x="504" 
d="M547 226q5 13 12 18.5t12.5 1.5t7 -18.5t-5.5 -39.5q-14 -58 -44.5 -106.5t-72.5 -84t-93 -56.5t-106 -23q-56 -3 -99 14.5t-74.5 49.5t-51 76.5t-27 95.5t-4.5 106.5t17 109.5q19 71 55 135t89 113q51 46 104 65t101 17q33 -2 63.5 -12t54.5 -29.5t38.5 -48t14.5 -67.5
q1 -52 -18 -92t-50.5 -62.5t-72.5 -24.5t-84 22q-9 4 -7 10q2 3 3.5 4t3.5 3q5 2 9 4.5t9 5.5q26 16 50 43.5t39.5 56t19.5 54.5t-8 40q-13 15 -46 8t-73 -34.5t-81 -77t-69 -120.5q-40 -101 -36 -176.5t36 -122t84.5 -63t108.5 0t107.5 67t83.5 137.5z" />
    <glyph glyph-name="D" unicode="D" horiz-adv-x="647" 
d="M587 540q39 -61 48.5 -132t-5 -142.5t-50.5 -136.5t-87 -114t-114.5 -76t-134.5 -20q-20 2 -39 9t-34 21q-23 21 -31 53t-7.5 67.5t7 70.5t13.5 64q11 49 24 102.5t26 108.5q-25 -11 -56.5 -17t-72.5 -1q-52 39 -66.5 79.5t-1 77.5t50.5 68.5t88 51t111 25t120 -8.5
t115 -50t96 -100zM362 15q39 33 72.5 88t55 119.5t28.5 131t-6.5 123.5t-50.5 96.5t-103 50.5q-40 6 -83 -2.5t-81 -31t-67.5 -58t-43.5 -83.5q25 1 51.5 14t49 32.5t38.5 44t21 48.5q1 3 4 6q1 0 1.5 0.5t2.5 0.5q20 2 36 0.5t27.5 -9t18.5 -22.5t9 -40q1 -11 -10.5 -57.5
t-28 -109.5t-33.5 -132.5t-28 -126.5q-4 -24 1 -50.5t20 -43.5t39.5 -17.5t59.5 28.5z" />
    <glyph glyph-name="E" unicode="E" horiz-adv-x="469" 
d="M541 242q2 -20 -8 -63t-39.5 -92t-82.5 -93.5t-136 -66.5q-44 -12 -85.5 -9t-76.5 17.5t-61 39t-39 57.5q-17 43 -12.5 87.5t25.5 84t56 70.5t78 46q-21 10 -38.5 25t-28.5 36t-14.5 47.5t3.5 59.5q7 30 32.5 69t64.5 73t88 54.5t103 13.5q55 -8 83 -38t35.5 -69t-1 -79
t-26.5 -68q-23 -37 -66 -40.5t-86 17.5q-4 4 -5 7q0 5 3 8q19 13 42.5 41t41.5 58t25 56.5t-8 35.5q-14 9 -43.5 -2t-61.5 -35t-59 -57.5t-36 -69.5q-7 -29 2.5 -58.5t37.5 -51.5q8 -6 18.5 -11.5t24.5 -10.5q6 -2 6 -7q2 -6 -4 -8q-45 -18 -79 -43.5t-55.5 -54t-30.5 -58.5
t-4 -56q7 -40 35.5 -60t65 -25t74.5 2.5t64 23.5q51 31 89.5 81t56.5 116q2 7 7 11.5t10 5.5t9.5 -3t5.5 -14z" />
    <glyph glyph-name="F" unicode="F" horiz-adv-x="416" 
d="M642 676q21 -16 23 -38t-9 -44t-31.5 -41.5t-42.5 -29.5q-5 -3 -10 2q-4 7 0 11q7 10 11.5 21t0 20.5t-21 15t-52.5 3.5q-35 -2 -86.5 -15t-108.5 -27q0 -2 -0.5 -4.5t-0.5 -4.5q-3 -16 -13 -56.5t-24 -95.5q32 7 60 9t48 -6t30 -29t7 -60q0 -5 -5 -7q-4 -3 -8 1
q-14 9 -31 11t-37.5 -1t-42.5 -9t-45 -12q-14 -59 -27 -119t-22 -111t-12.5 -89t2.5 -52q-33 -5 -57 -1t-38.5 14t-20.5 25.5t-4 34.5q1 12 7 40t14.5 66t19 83t21.5 93q-29 4 -54 20t-42 54q-3 4 1 9q3 3 8 3q24 -5 51.5 -3t57.5 7q11 47 21 89t18 77q-45 -7 -84.5 -7
t-67.5 12.5t-40.5 40.5t-4.5 76q2 6 6 7q6 0 9 -3q24 -31 70 -34.5t105 6.5t124.5 28t127.5 30.5t114.5 13t85.5 -23.5z" />
    <glyph glyph-name="G" unicode="G" horiz-adv-x="542" 
d="M329 407q38 20 66.5 49.5t45.5 60.5q20 35 24 58.5t-3.5 36t-24.5 15t-39 -5.5q-39 -14 -75 -47.5t-67 -80t-55.5 -101t-41 -110t-23.5 -107.5t-3.5 -92.5t19 -66t44.5 -28.5q32 -3 62.5 19t56 56t44 74t25.5 73q-3 2 -16.5 0t-32.5 -5.5t-39.5 -9t-36.5 -9.5q-5 -2 -9 4
q-4 5 1 10q24 24 59.5 46t75 39t79 28.5t72.5 14.5q5 0 8 -4t1 -8q-15 -32 -32.5 -74.5t-25 -93t1.5 -106.5t46 -114q2 -6 0 -9q-4 -4 -8 -4q-30 1 -52.5 9t-38 21.5t-25 30.5t-14.5 37q-42 -47 -95.5 -71.5t-104.5 -22.5q-72 3 -116 38t-64 90t-18 124t22 140.5t56 140.5
t83 123t103 88.5t118 36.5q49 2 87.5 -14t62.5 -46.5t31 -73.5t-9 -96q-13 -42 -38.5 -66t-57 -32.5t-65.5 -2.5t-65 23q-4 4 -4 8q0 5 5 7z" />
    <glyph glyph-name="H" unicode="H" horiz-adv-x="630" 
d="M659 679q11 -9 15 -22t2 -25q-2 -11 -8.5 -37.5t-15.5 -64t-20 -83t-23 -94.5q12 -15 16 -38.5t-5 -51.5q-2 -8 -8 -6q-6 1 -12 1t-13 1q-12 -54 -22.5 -106t-18 -96t-11 -77t-0.5 -50q0 -2 -2 -6q-3 -3 -6 -3q-62 -7 -88.5 15.5t-21.5 58.5q1 11 6 36.5t13 61.5t18.5 80
t21.5 92q-40 1 -79 0t-83 -6q-8 -38 -15.5 -77t-18.5 -75q-6 -21 -18.5 -47t-30 -51t-38.5 -46.5t-45 -34t-50 -13t-52 16.5q-32 21 -41.5 66t1.5 94q20 81 75.5 140t132.5 92q5 26 14.5 65.5t18 79.5t13.5 74.5t1 51.5q-6 28 -20 38.5t-29.5 6t-30 -21t-23.5 -41.5
q-9 -26 -9 -49t5.5 -42t13.5 -33t16 -23q3 -4 2 -8t-7 -6q-10 -2 -26 -2t-33.5 4t-33.5 13t-26.5 24.5t-13.5 38.5t6 56q20 73 71 111.5t111 35.5q45 -2 81.5 -31.5t48.5 -83.5q5 -22 2.5 -51t-8.5 -60t-13 -61t-12 -52q42 7 84.5 11t84.5 5q12 53 24 103.5t22 93t17.5 74.5
t10.5 47q2 7 9 7q29 -2 46.5 -7t27.5 -13zM169 113q8 29 15 60t13 61q-20 -8 -36.5 -19t-30.5 -26q-20 -20 -34 -41t-20 -50q-5 -19 -5.5 -37t4 -30.5t14 -15.5t25.5 8q16 12 31 35t24 55z" />
    <glyph glyph-name="I" unicode="I" horiz-adv-x="287" 
d="M188 699q29 -2 55 -15t45 -37t28.5 -58t4.5 -77q-2 -15 -6 -34t-9 -38.5t-10 -38.5t-9 -35q-5 -19 -13.5 -54t-18 -77.5t-19 -89t-16.5 -89t-10.5 -76.5t-0.5 -51q0 -3 -2 -7q-2 -3 -6 -3q-62 -7 -88 15.5t-21 58.5q5 43 15 91t22 97.5t24.5 97.5t22.5 91q4 21 12 53.5
t15 66t11 63t1 44.5q-6 28 -20 38.5t-29.5 6t-30 -21t-23.5 -41.5q-9 -26 -8.5 -49t5.5 -41.5t13 -32.5t16 -23q3 -4 2 -8t-7 -6q-16 -3 -42.5 -1t-50 15.5t-35.5 41.5t1 78q10 36 28.5 63.5t43 46.5t52.5 28t58 8z" />
    <glyph glyph-name="J" unicode="J" horiz-adv-x="475" 
d="M377 699q29 -1 55 -14.5t45 -37.5t28.5 -58t4.5 -77q-4 -32 -13.5 -79t-21.5 -96.5t-24.5 -95.5t-21.5 -76q-16 -54 -36 -93t-42 -66t-46 -43.5t-49 -25.5q-44 -16 -89 -18t-82 13.5t-61 49.5t-24 89q0 36 12.5 61t33.5 40t47.5 20.5t53.5 4.5q5 0 7 -5t-1 -8
q-31 -41 -44 -77.5t-11.5 -65.5t14.5 -47t34 -21t47 10.5t54 48.5q15 18 27.5 41.5t23 49t19 52.5t15.5 53q4 17 12 48t17 68t17.5 77t15.5 75t10 62t0 39q-6 29 -20 39.5t-29.5 6t-30 -21t-23.5 -41.5q-9 -26 -8.5 -49t5.5 -42t13 -33t16 -23q3 -4 2 -8t-7 -6
q-11 -2 -26.5 -2t-33 4t-33.5 13t-26.5 24.5t-13.5 38.5t6 56q20 73 71 111t111 35z" />
    <glyph glyph-name="K" unicode="K" horiz-adv-x="504" 
d="M635 664q9 -1 24 -10.5t27.5 -25t17 -35.5t-7.5 -43q-4 -8 -11 -4q-42 19 -84.5 12t-84 -34.5t-81.5 -73.5t-76 -106q4 -29 15.5 -73.5t31.5 -93t48.5 -95t64.5 -78.5t80.5 -43t96.5 11q4 1 9 0q4 -3 4 -8q-5 -38 -29 -63.5t-57 -37t-70 -9t-67 19.5q-35 20 -64 62
t-51.5 93t-38.5 104.5t-24 95.5q-21 -42 -38.5 -83t-30 -79t-20.5 -70.5t-11 -57.5q1 -5 1 -13q1 -2 -1 -6q-3 -3 -6 -3q-62 -7 -88.5 15.5t-21.5 58.5q1 13 8 45t17 76.5t22.5 98.5t25.5 110q8 29 14.5 58.5t13.5 58.5q5 22 10 45.5t9 45.5t5 40t-1 29q-7 28 -20.5 38.5
t-29 6t-30 -21t-23.5 -41.5q-9 -26 -9 -49t5 -42t13.5 -33t16.5 -23q3 -4 1 -9q-3 -5 -6 -5q-10 -2 -26 -2t-33.5 4t-33.5 12.5t-26.5 24t-13.5 39t6 56.5q10 36 28.5 64t42.5 47t52.5 28t58.5 8q29 -2 55 -15t45 -37t28.5 -58.5t4.5 -77.5q-2 -20 -7.5 -43.5t-11.5 -46.5
q27 49 62 95.5t77 81t90.5 53.5t102.5 12z" />
    <glyph glyph-name="L" unicode="L" horiz-adv-x="302" 
d="M207 -51q49 5 103 12t106 11t98.5 3t79.5 -11.5t49.5 -32.5t9.5 -60q0 -4 -4 -6q-5 -2 -8 0q-27 15 -69.5 17t-93.5 -2.5t-106 -13t-107.5 -15t-98.5 -8t-78.5 7.5t-47 32t-4.5 65q1 4 6 6q4 1 8 -2q10 -9 35 -10q8 48 20.5 104t26 114t26.5 114t24 103q5 21 12.5 52
t14 63t10 60.5t0.5 43.5q-7 29 -20.5 39.5t-29.5 6t-30.5 -21.5t-23.5 -42q-9 -27 -9.5 -50.5t5 -42.5t14 -33.5t16.5 -23.5q3 -3 1 -8t-6 -6q-16 -3 -43.5 -0.5t-51 16t-36 42t1.5 78.5q10 37 28.5 65.5t43.5 47.5t54 28t59 8q29 -1 55.5 -14.5t46 -38t29 -59t4.5 -78.5
q-3 -23 -9 -48t-12 -51q-11 -40 -20.5 -79t-18.5 -80q-8 -35 -17 -77t-17.5 -83.5t-15.5 -79t-10 -62.5z" />
    <glyph glyph-name="M" unicode="M" horiz-adv-x="718" 
d="M712 699q41 -8 57.5 -22t19 -32t-5 -38t-14.5 -39q-19 -51 -37.5 -114t-33 -129.5t-23.5 -131t-10 -119t7.5 -94.5t30.5 -56q4 -3 4 -9q-1 -4 -7 -6q-23 -4 -45.5 -5t-42 5t-35.5 21.5t-26 44.5q-7 21 -6 59.5t6.5 86t14 97.5t17.5 93q-16 -37 -33 -77.5t-34 -79.5
t-32.5 -73.5t-28.5 -59.5q-4 -8 -6 -11q-10 -15 -24.5 -22.5t-30 -8t-30.5 6t-25 18.5q-14 17 -23.5 51.5t-16 79.5t-10.5 97t-7 105q-15 -63 -29.5 -128t-25 -121t-15.5 -99.5t-2 -63.5q0 -4 -2 -6q-1 -2 -5 -4q-63 -6 -89 16t-22 59q1 13 8 46t17.5 79.5t23.5 102
t27 113.5l8 34l8 34q5 22 12 50.5t12.5 57t8 53t-0.5 38.5q-6 29 -20 39t-29.5 6t-30 -21t-23.5 -42q-9 -26 -9 -49.5t5 -42t13.5 -33t16.5 -22.5q3 -5 2 -9q-2 -5 -7 -5q-16 -3 -43 -1t-50 15.5t-35.5 41.5t1.5 78q14 51 43 85.5t71 50.5q18 7 39.5 9.5t43.5 1t42.5 -8
t37.5 -17.5q22 -14 36.5 -33.5t23.5 -40.5t13 -42t6 -38q4 -37 6 -88.5t5 -107t7.5 -110t12.5 -97.5q21 43 48.5 99.5t57.5 117t60.5 120.5t57.5 110t49.5 85t36.5 47q0 1 2 3q2 0 3 0.5t3 -0.5z" />
    <glyph glyph-name="N" unicode="N" horiz-adv-x="618" 
d="M661 673q11 -9 14.5 -22t1.5 -25q-3 -17 -15.5 -68.5t-29.5 -121.5t-35.5 -149t-33 -151t-23 -128t-4.5 -80q1 -3 -1 -7q-3 -3 -6 -3q-44 -4 -73 7q-5 2 -10 5q-16 11 -21 24q-30 38 -52 88.5t-38 106t-27 114t-18 113.5l-1 -1q-5 -20 -13.5 -56t-18.5 -79.5t-19.5 -91
t-17 -90.5t-11 -77.5t-0.5 -52.5q0 -3 -2 -7q-2 -3 -6 -3q-62 -7 -88 15.5t-21 58.5q1 14 9 50.5t19.5 87t25.5 110.5t28 122q3 11 5.5 21t4.5 20q6 23 12.5 51t11.5 55.5t7.5 50.5t-0.5 36q-6 29 -20 39t-29.5 6t-30 -20.5t-23.5 -41.5q-9 -26 -8.5 -49t5.5 -42t13 -33
t16 -23q3 -4 2 -8t-7 -6q-16 -3 -42.5 -1t-50 15.5t-35.5 41.5t1 78q12 43 38 76t61 51t76 20t83 -17q27 -12 45 -32.5t29 -43t16 -46t7 -41.5q3 -35 11 -83.5t19 -102t25 -107.5t31 -99q10 46 23 101t26.5 112t27 112t24.5 101.5t19 81.5t11 51q2 7 8 7q29 -2 47 -7t28 -13
z" />
    <glyph glyph-name="O" unicode="O" horiz-adv-x="586" 
d="M472 658q45 -37 70 -100t31 -137.5t-7 -153.5t-44 -147.5t-80 -119t-114 -69.5q-80 -23 -141 -8t-102.5 54t-63 95.5t-21.5 117.5q-1 54 5.5 113t26.5 116q13 39 33.5 79t48.5 75t62 63.5t74 43.5q11 5 23 8t25 5q48 6 91 1.5t83 -36.5zM299 5q30 16 58.5 55.5t51.5 91.5
t37.5 112.5t18 120t-6.5 113.5t-38 93q-23 33 -52 36q-30 3 -63 -19t-59 -59t-40 -82.5t-8 -88.5q3 -23 12.5 -45t29.5 -41q4 -5 2 -8t-5 -3q-32 -6 -57.5 -0.5t-45.5 19.5q-10 -31 -11 -70.5t5.5 -78.5t21 -74t36 -57t50 -28t63.5 13z" />
    <glyph glyph-name="P" unicode="P" horiz-adv-x="580" 
d="M374 686q55 -16 98.5 -44t73.5 -64t46 -77t15 -84q0 -29 -9.5 -64t-23.5 -61q-19 -37 -52.5 -70t-76.5 -53.5t-92.5 -22.5t-100.5 23q-9 -40 -16 -77t-12 -68.5t-6.5 -56t0.5 -38.5q1 -3 -1 -7l-3 -1.5l-3 -1.5q-60 -6 -86 16t-22 57q4 38 16.5 94.5t27 116.5t29 117.5
t23.5 96.5q-24 -11 -55.5 -17t-71.5 -1q-51 38 -65 79t0 78.5t51.5 69t88 50.5t109.5 23t118 -13zM497 404q4 40 -4 76.5t-26.5 66t-47.5 49.5t-67 26q-39 6 -81.5 -2.5t-80 -30.5t-67 -57t-42.5 -82q25 1 51 14.5t48.5 34t38.5 45t21 48.5q2 8 8 6q29 -1 46.5 -6t26.5 -13
q15 -13 17 -34q0 -6 -1 -17t-3 -22.5t-4.5 -22.5t-4.5 -17q-8 -38 -20.5 -79t-11.5 -79q1 -34 13 -53.5t30 -25t40.5 1t44 24.5t40 46t29.5 66q4 17 7 37z" />
    <glyph glyph-name="Q" unicode="Q" horiz-adv-x="589" 
d="M483 46q37 -38 72.5 -57t86.5 -11q17 3 23 -0.5t-3 -23.5q-21 -47 -62.5 -64t-90.5 4q-32 14 -54.5 38t-42.5 41q-52 -39 -103 -52.5t-96.5 -6.5t-84.5 32t-67 62.5t-44.5 84.5t-16.5 98q-1 54 5.5 113t26.5 117q13 39 33.5 79t48.5 75.5t62 63.5t75 44q11 5 23 8t25 5
q48 6 91.5 1t82.5 -37q48 -39 73.5 -107.5t29.5 -148.5t-13.5 -163t-54.5 -152q-4 -8 -12 -22t-13 -21zM302 20q2 1 10 7t10 7q-26 17 -48 18t-37 -5.5t-21 -17t0.5 -17.5t27 -7t58.5 15zM387 108q17 30 33 68.5t28 81.5t18.5 88.5t4.5 89.5t-13.5 84.5t-35.5 73.5
q-23 32 -53 35t-63 -19.5t-59 -59t-40 -82.5t-8 -89q3 -23 12.5 -45t29.5 -41q4 -5 2 -8t-5 -3q-32 -6 -58 -0.5t-46 19.5q-10 -32 -11 -71t6.5 -77t22.5 -71.5t38 -53.5q29 51 58.5 73.5t56.5 27t48.5 -3.5t33.5 -17z" />
    <glyph glyph-name="R" unicode="R" horiz-adv-x="583" 
d="M562 -18q6 0 8 -6t-3 -9q-43 -35 -77.5 -44.5t-62.5 -0.5t-51.5 33.5t-44.5 58t-40.5 72.5t-39.5 77q-8 -39 -15 -75.5t-11.5 -67.5t-6.5 -55t1 -37q0 -4 -2 -6q-1 -2 -6 -4q-60 -6 -86 16t-22 57q5 42 16.5 97t26 112.5t29 114t25.5 101.5q-25 -11 -56.5 -17t-70.5 -1
h-1q-51 38 -65 79.5t0 79t51.5 69t88 50.5t109.5 23t118 -13q53 -16 96 -42.5t73 -61t46.5 -74t18.5 -80.5q2 -51 -17.5 -101t-54 -89.5t-81 -65t-98.5 -27.5q21 -29 44 -58.5t48.5 -52.5t54 -37.5t58.5 -14.5zM294 307q1 -46 21.5 -65t48.5 -15.5t58 28.5t51 68
q13 26 19.5 53t6.5 56q0 35 -10.5 67t-29 57.5t-46 42.5t-61.5 23q-39 6 -81 -2.5t-79.5 -31t-67 -57.5t-42.5 -81q25 1 51 14t48 33.5t38 45t21 48.5q2 7 9 7q53 -3 73 -20q8 -7 12 -16t5 -19q0 -16 -4.5 -37.5t-7.5 -35.5q-5 -19 -11 -40t-11 -42t-8.5 -41.5t-2.5 -39.5z
" />
    <glyph glyph-name="S" unicode="S" horiz-adv-x="483" 
d="M312 429q22 11 41 28.5t33.5 38t23.5 41.5t9 39q0 25 -22 33t-54 2t-67.5 -23.5t-62.5 -42.5q-29 -28 -35.5 -52t3 -45t32 -40.5t51 -40t59.5 -41.5t58 -46t46.5 -53.5t24.5 -63.5q8 -57 -17.5 -109t-72.5 -87t-109.5 -46.5t-128.5 14.5q-31 12 -58 34.5t-44 50t-21.5 58
t10 58t49.5 49.5t97 34q4 1 8 -4q3 -5 -1 -9q-15 -18 -22 -41.5t-7.5 -48t6 -48t19.5 -41.5q17 -25 34 -32t33 -2t31 19t29 32q30 46 30.5 81t-18.5 63.5t-51.5 52.5t-68.5 47.5t-70 49t-56 57.5q-30 42 -21.5 87t41.5 84.5t84.5 71t108.5 48t113.5 13.5t99.5 -31
q29 -19 42 -51t10.5 -67t-18.5 -68t-44 -55t-68 -27.5t-89 14.5q-5 2 -5 7t5 8z" />
    <glyph glyph-name="T" unicode="T" horiz-adv-x="393" 
d="M234 628q45 8 102.5 22.5t117 25.5t115.5 15.5t97.5 -7t62.5 -43t11 -90.5q-2 -6 -6 -7q-7 0 -9 3q-17 19 -48 26.5t-71.5 6.5t-86.5 -7.5t-93 -16.5q-3 -17 -15 -64.5t-27 -109.5t-31.5 -132.5t-29.5 -135t-20 -115t-3 -73.5q0 -4 -2 -6q-2 -3 -5 -3q-62 -7 -92 12.5
t-25 56.5q1 14 8 47.5t17.5 79.5t23.5 100.5t26 109.5t25.5 107t22.5 94q-25 -6 -43 -8.5t-38 -6.5q-23 -5 -55.5 -7.5t-64.5 1t-58 17t-36 40.5q-8 21 -1.5 44t24.5 43t46 35t63 20q6 2 8 -5q3 -5 -3 -10q-12 -8 -22 -18t-14.5 -19.5t-2 -18t14.5 -13.5q10 -5 25.5 -5
t32 2.5t32.5 6.5t27 6z" />
    <glyph glyph-name="U" unicode="U" horiz-adv-x="612" 
d="M590 700q41 -8 61 -21.5t25.5 -30.5t1 -36.5t-11.5 -38.5q-19 -51 -37 -114.5t-32.5 -129.5t-23.5 -131t-10 -119.5t7.5 -95t30.5 -56.5q5 -3 3 -8q-2 -6 -7 -6q-23 -4 -45 -5t-41.5 5t-35.5 21t-26 44q-3 8 -4 16.5t-2 19.5q-20 -33 -49.5 -55.5t-62.5 -35.5t-66.5 -15
t-60.5 7q-26 8 -46.5 27.5t-32 49.5t-12.5 70.5t13 91.5q15 66 31 130.5t32 130.5q5 22 11 48.5t10.5 52t7 47t-0.5 33.5q-7 29 -20.5 39.5t-29.5 6.5t-30.5 -21t-23.5 -42q-9 -27 -9 -50t5.5 -42t13.5 -33t16 -23q3 -4 2 -8q-2 -5 -6 -6q-11 -2 -27 -2t-33.5 4t-33.5 13
t-26.5 24.5t-13.5 39t6 56.5q10 36 28.5 64.5t43 47t53 27.5t58.5 8q29 -1 55.5 -14.5t45.5 -37.5t28 -58.5t4 -77.5q-2 -22 -8 -47t-12 -49q-5 -18 -13 -48.5t-16.5 -66t-17.5 -73.5t-16.5 -73t-11.5 -64t-4 -45q1 -21 12 -34t27 -17.5t34.5 -1t35.5 15.5q22 16 42.5 43.5
t37.5 59.5t30.5 65t21.5 61q20 114 51.5 229t63.5 229q2 5 10 5z" />
    <glyph glyph-name="V" unicode="V" horiz-adv-x="554" 
d="M500 727q7 1 19 0t25.5 -6t26.5 -15.5t23.5 -27.5t15.5 -42t2 -59t-13 -82.5t-24 -104t-31.5 -114.5t-36 -113.5t-38 -102t-36.5 -80.5q-8 -14 -17 -28t-23 -23q-14 -10 -30 -11t-30 4.5t-25.5 17t-16.5 26.5q-14 45 -24 104.5t-18 123.5t-15 128t-14 118q-3 23 -7.5 48
t-9 48.5t-10.5 42t-12 27.5q-17 25 -33.5 29.5t-29.5 -5t-21 -30.5t-6 -48q1 -28 10 -50t20.5 -37.5t24.5 -25.5t24 -15q4 -4 4 -7q0 -5 -4 -8q-14 -8 -39.5 -16t-52.5 -4.5t-48.5 25.5t-27.5 73q-5 37 2 70.5t23 60t39 45.5t51 29q28 9 57.5 6.5t56 -18t48 -44t32.5 -70.5
q8 -26 12 -60.5t8 -64.5q11 -86 23 -173t27 -172q24 71 47.5 152t41 161.5t26 153.5t2.5 129q-1 7 -1.5 13.5t-2.5 12.5q0 2 -0.5 4t3.5 4q1 0 1.5 0.5t1.5 0.5z" />
    <glyph glyph-name="W" unicode="W" horiz-adv-x="729" 
d="M672 723q7 3 28 0.5t42 -17.5t35.5 -46t9.5 -85q-4 -36 -14.5 -88t-25.5 -110.5t-33.5 -120.5t-38.5 -118t-40 -103t-38 -75q-18 -30 -40 -38q-30 -17 -56 -5t-39 42q-19 45 -29.5 116.5t-12.5 151.5q-14 -32 -30 -67.5t-33 -71t-35.5 -67t-38 -55.5t-40 -37t-40.5 -11
q-21 2 -36 15.5t-25 33t-15.5 44t-7.5 49.5q-3 36 4.5 82.5t19 96t24.5 97.5t23 87q4 19 10 43t10.5 48.5t6.5 46.5t-1 37q-6 29 -20 39t-29.5 6t-30 -21t-23.5 -42q-9 -26 -9 -49.5t5 -42t13.5 -33t16.5 -22.5q3 -5 2 -9q-2 -5 -7 -5q-10 -2 -26 -2t-33.5 4t-33.5 12.5
t-26.5 24t-13.5 39t6 56.5q10 36 28.5 64.5t42.5 47t52.5 27.5t58.5 8q29 -2 55.5 -15t45.5 -37t28 -58.5t4 -77.5q-3 -29 -10 -57t-15 -57q-10 -36 -23 -84.5t-23.5 -99t-14.5 -98.5t5 -83q15 22 42 72.5t56.5 114t57 130.5t44.5 122q8 29 17.5 53t22.5 41q4 7 11 2
q29 -17 45 -34.5t8 -50.5q-10 -49 -14.5 -105.5t-4 -113t5 -109.5t13.5 -96q18 50 36 108t34 118.5t29.5 121t21 117t9 105.5t-5.5 87v4t3 3z" />
    <glyph glyph-name="X" unicode="X" horiz-adv-x="540" 
d="M613 -29q1 -4 -2 -9q-17 -15 -35.5 -28t-38.5 -18.5t-41.5 -1t-45.5 23.5q-16 13 -35 43.5t-38.5 70.5t-38 84t-34.5 85q-26 -30 -51 -68t-43.5 -77t-28.5 -76t-4 -67q1 -5 -2 -8q-4 -4 -8 -2q-35 10 -58.5 24t-35.5 34.5t-10.5 48t18.5 65.5q15 34 36.5 64.5t46 58.5
t50.5 55t50 53l-3 8q-9 27 -20 68.5t-23 83.5t-24 76.5t-23 48.5q-20 22 -37 24.5t-28.5 -8.5t-17 -32.5t-0.5 -47.5q4 -28 15 -48.5t24.5 -34.5t27.5 -23t25 -13q4 -2 5 -6q0 -5 -3 -8q-13 -10 -38 -20.5t-52 -10t-51 20t-35 69.5q-8 37 -5 70.5t16 61.5t34 49.5t48 34.5
q26 12 55.5 12.5t57.5 -12t52.5 -38.5t40.5 -66q12 -33 21 -71q5 -23 11.5 -46t12.5 -46q7 8 13 15.5t13 15.5q23 28 46 59.5t38 63t19.5 60.5t-8.5 53q-1 2 -1 3q0 2 4 2q9 -2 27.5 -7.5t35.5 -19t27.5 -36t5.5 -56.5q-3 -24 -13.5 -49t-25.5 -50.5t-33 -50t-37 -46.5
q-19 -23 -37 -41.5t-34 -33.5q23 -62 50 -120t55 -103.5t56 -73.5t55 -30q5 0 7 -6z" />
    <glyph glyph-name="Y" unicode="Y" horiz-adv-x="598" 
d="M569 698q20 2 39 0.5t32.5 -9.5t19.5 -23t0 -39q-22 -103 -44.5 -204.5t-45.5 -204.5q-6 -28 -12.5 -56t-15.5 -55.5t-22.5 -53t-32.5 -47.5q-32 -36 -74 -56.5t-86 -27.5t-85.5 -1t-72.5 21.5t-47.5 40.5t-10.5 57q8 35 36.5 56t62.5 26q16 3 17 -4t-1 -11
q-12 -56 5 -84t46.5 -32t63.5 14.5t57 56.5q13 22 20.5 39t13 33t9.5 34t10 42l2 7q-41 -33 -91.5 -43.5t-90.5 2.5q-23 7 -44 24.5t-35 43.5t-18.5 60.5t5.5 76.5q5 20 12.5 50.5t14 62t10 59.5t0.5 44q-7 28 -20.5 38.5t-29 6t-30 -21t-23.5 -41.5q-9 -26 -9 -49t5 -42
t13.5 -33t16.5 -23q3 -3 1 -8t-6 -6q-10 -2 -26 -2t-33.5 4t-33.5 13t-26.5 24.5t-13.5 38.5t6 56q10 36 28.5 64.5t42.5 47t52.5 27.5t58.5 8q29 -2 55 -15t45 -37t28.5 -58t4.5 -77q-2 -14 -4 -24t-5 -24t-7 -29t-8 -29t-9 -35t-6.5 -42t3 -39.5t21.5 -27.5
q26 -15 52.5 -8.5t51 27.5t46 52.5t38.5 66.5q17 73 33.5 145.5t33.5 145.5q0 5 7 7z" />
    <glyph glyph-name="Z" unicode="Z" horiz-adv-x="592" 
d="M680 568q-24 -38 -68.5 -84t-99 -94.5t-113 -96t-110.5 -89t-92 -74t-56 -49.5q109 22 187.5 28.5t131 1.5t82.5 -19t44 -33t15 -40.5t-5.5 -41.5t-17 -36.5t-18.5 -24.5q-4 -4 -5 1q-9 33 -43 50.5t-81.5 23.5t-103 2.5t-107.5 -10.5t-95 -16t-65 -15q-5 -2 -6 0
q-44 24 -54 52.5t-0.5 57.5t32.5 55.5t44 45.5l463 407q-44 -9 -96.5 -16.5t-104 -9.5t-98.5 4t-80.5 23t-49.5 47.5t-6 78.5q1 2 1.5 3.5t5.5 -0.5q1 -1 2 -1t2 -1q55 -19 114 -28.5t117 -11.5t112 1.5t98.5 9.5t77 14t46.5 14q3 1 5.5 2t4.5 -5q2 -10 4.5 -25.5t2.5 -32.5
t-3.5 -35t-13.5 -33z" />
    <glyph glyph-name="a" unicode="a" horiz-adv-x="433" 
d="M499 168q3 6 8.5 5.5t8.5 -7.5t2 -20t-10 -33q-11 -24 -28.5 -45.5t-39.5 -37.5t-47.5 -25t-52.5 -6q-34 4 -52.5 21.5t-26.5 45.5q-23 -31 -54.5 -48.5t-74.5 -17.5q-44 0 -74 24.5t-44 64.5q-19 52 -12.5 107.5t33.5 101t72 73t103 23.5q25 -2 46.5 -14.5t37.5 -38.5
q3 12 6 23t5 22q1 5 7 7q20 2 39 0t32.5 -9.5t19.5 -22.5t1 -39q-4 -20 -11.5 -47t-14 -55t-11.5 -55t-4 -46q1 -35 21 -46t49 9q25 17 41.5 44.5t24.5 41.5zM254 134q1 15 3 30.5t5 32.5l-18 3q-21 6 -9 25q8 13 13 31t4.5 34.5t-7 29t-22.5 15.5q-18 3 -35 -7.5t-31 -30
t-25 -45t-16.5 -52t-5.5 -51.5t8 -43q9 -22 27.5 -30t38.5 -3.5t39.5 20t30.5 41.5z" />
    <glyph glyph-name="b" unicode="b" horiz-adv-x="425" 
d="M283 394q49 -2 78.5 -28.5t40.5 -66t5 -86.5t-26.5 -89.5t-54.5 -75t-79 -43.5q-41 -11 -79 -1.5t-61 41.5l-9 -38q-1 -6 -7 -7q-15 -3 -32.5 1.5t-32 14t-22 24.5t-3.5 35q32 143 67 283t66 283q2 6 8 6q20 2 38.5 0.5t32 -9t19.5 -22.5t1 -39q-12 -54 -24.5 -106
t-25.5 -105q40 29 100 28zM188 70q22 -5 42 13.5t35 48t23.5 65t8.5 67t-10 52t-32 20.5q-17 0 -31 -11t-23.5 -27t-14 -35t-3.5 -34q2 -17 0 -20t-16 -3q-12 0 -21 3q-4 -17 -6.5 -39t0.5 -42.5t14 -36.5t34 -21z" />
    <glyph glyph-name="c" unicode="c" horiz-adv-x="349" 
d="M387 196q9 2 17.5 -1.5t4.5 -14.5q-2 -5 -5 -11t-8 -14q-8 -14 -21.5 -33.5t-24.5 -31.5q-25 -29 -57.5 -50.5t-68.5 -32t-74 -8t-74 21.5t-54.5 53t-21 74t9 82.5t35.5 78.5t59.5 61t81.5 31q32 4 61 -2.5t49 -26.5q18 -17 26.5 -42t7 -49.5t-13.5 -46.5t-34 -33
q-26 -13 -48.5 -7.5t-37 17t-17.5 23t10 11.5q23 -2 41 13.5t26 35.5q7 18 5 29.5t-10 16.5t-21 3t-27 -11q-21 -13 -40 -38t-32 -54t-17 -59t6 -53q9 -21 26 -36t39.5 -20.5t49.5 0t55 24.5q22 15 42 36.5t35 44.5q5 8 9.5 12.5t10.5 6.5z" />
    <glyph glyph-name="d" unicode="d" horiz-adv-x="445" 
d="M500 168q3 6 8.5 5t8.5 -7.5t2 -20t-10 -33.5q-11 -23 -28.5 -45t-39.5 -38t-47.5 -25t-52.5 -6q-35 4 -53 21t-26 46q-24 -31 -55.5 -48t-74.5 -17t-73 24.5t-45 63.5q-19 52 -12.5 108t33.5 102t72 73.5t103 22.5q53 -3 85 -52q17 73 34.5 145t33.5 147q2 6 8 6
q20 2 38.5 0.5t32 -9.5t19.5 -23t1 -39q-15 -70 -33 -139.5t-34 -140.5q-4 -18 -9.5 -40t-10.5 -45.5t-8 -45.5t-3 -39q1 -36 21.5 -46.5t49.5 8.5q12 8 22 20t18.5 25t14.5 24t10 18zM255 133q1 16 3 32t5 32q-5 1 -9.5 1t-9.5 2q-20 6 -8 25q8 13 13 31t4.5 34.5t-7 29
t-22.5 15.5q-18 3 -35 -7.5t-31.5 -30t-25 -45t-16.5 -52t-5.5 -51.5t8.5 -43q9 -22 27 -30t38.5 -4t39.5 19.5t31 41.5z" />
    <glyph glyph-name="e" unicode="e" horiz-adv-x="343" 
d="M402 195q5 -2 6.5 -8t-4.5 -17l-4 -8t-5 -9q-8 -16 -21 -33t-25 -31q-25 -29 -57.5 -50t-68.5 -31.5t-74 -8t-73 21.5q-36 19 -54.5 52.5t-21 73.5t8.5 82.5t35.5 78t60 60.5t80.5 31q32 4 61 -2.5t49 -26.5q25 -24 29.5 -51.5t-5.5 -54t-32.5 -49.5t-51 -39.5
t-60.5 -23.5t-62 -1q0 -32 18.5 -50.5t45 -25.5t57 -2t55.5 22q23 16 41 35t34 42q2 4 5 7.5t5 6.5q5 6 12.5 9t15.5 0zM173 304q-21 -20 -35.5 -48t-20.5 -55q22 1 43 8.5t38 19.5t29.5 27t17.5 31q5 17 0.5 27t-15.5 12.5t-26 -3t-31 -19.5z" />
    <glyph glyph-name="f" unicode="f" horiz-adv-x="211" 
d="M286 203q14 -30 4.5 -58t-28.5 -50t-40.5 -35.5t-30.5 -14.5q25 -18 34.5 -50.5t5 -69.5t-21 -74.5t-43 -64.5t-61 -39.5t-75.5 -0.5q-31 9 -46.5 33.5t-20.5 57.5t-1.5 72.5t10.5 78.5t15.5 75t14.5 63l1 4q15 64 30.5 127.5t29.5 128.5q0 6 7 6q20 2 39 0.5t32.5 -9.5
t19.5 -23t0 -39q-11 -48 -22 -95.5t-23 -95.5q-3 -11 -7.5 -28.5t-6.5 -30.5v1q21 4 46.5 10.5t50.5 20t44.5 36.5t28.5 60q2 6 3 7q2 1 6 0t5 -3zM73 -209q22 9 40.5 42t26 72t2 74t-30.5 48h-1l-2 1q-8 3 -15 -8q0 -1 -6 -19.5t-13.5 -46t-14.5 -59t-9 -56.5t2.5 -39.5
t20.5 -8.5z" />
    <glyph glyph-name="g" unicode="g" horiz-adv-x="404" 
d="M310 393q20 2 38.5 0.5t32 -9.5t19.5 -23t1 -39q-15 -70 -29.5 -140.5t-31.5 -140.5q-2 -10 -5 -21.5t-6 -23.5q-6 -27 -11.5 -48.5t-16.5 -47.5q-17 -36 -39.5 -66t-53 -51.5t-68.5 -32.5t-86 -7q-27 2 -48 12.5t-35 26t-19.5 34.5t-1.5 39q7 35 35.5 56t62.5 26
q16 3 16 -3t-2 -10l-1 -1q-13 -16 -19.5 -37.5t-1.5 -41.5t19.5 -29.5t34 -6.5t41 20t39.5 52q10 18 16 32t10 27t7 26.5t6 31.5q2 7 3 13.5t3 12.5q-36 -24 -86 -24q-43 0 -73.5 24.5t-44.5 63.5q-20 52 -13 108t34 102t72 73.5t103 23.5q24 -2 45 -14t37 -35l9 42q2 6 8 6
zM259 197q-4 0 -14 2q-20 6 -8 25q8 13 13 31t4.5 34.5t-7 29t-22.5 15.5q-18 3 -35 -7.5t-31.5 -30t-25.5 -45t-16.5 -52t-5.5 -51.5t8 -43t22.5 -26.5t31 -8.5t34 9t31.5 25z" />
    <glyph glyph-name="h" unicode="h" horiz-adv-x="440" 
d="M504 166q3 6 8.5 5.5t8.5 -7.5t2 -20t-10 -32q-11 -23 -28.5 -45t-39 -38t-46.5 -24.5t-52 -5.5q-44 5 -64 31.5t-25 69.5q-2 25 0.5 52.5t9.5 55.5q4 18 9.5 42t13.5 50q2 24 -8.5 23t-28 -19.5t-40 -51.5t-44 -73t-41 -84t-30.5 -84q-1 -5 -2 -7.5t-6 -3.5
q-15 -3 -32.5 1t-32 13.5t-22 24.5t-3.5 35q32 141 66.5 279.5t65.5 280.5q2 6 7 6q20 2 38.5 0.5t31.5 -9t19 -22.5t1 -39q-17 -79 -36.5 -157.5t-38.5 -157.5q17 39 40.5 71.5t61.5 53.5q13 7 33.5 11t41 2.5t38.5 -9.5t27 -25q11 -20 9.5 -47t-9.5 -53q-5 -14 -8.5 -28
t-7.5 -28l-2 -12t-3 -13q-4 -17 -5.5 -32t-1.5 -28q1 -35 21.5 -46t48.5 9q12 8 22.5 20t18.5 24t14 23.5t10 17.5z" />
    <glyph glyph-name="i" unicode="i" horiz-adv-x="181" 
d="M166 472q-31 1 -48.5 7t-25 14.5t-8.5 18t1 18.5q5 21 12 51t9 56q2 7 8 7q20 2 39.5 0.5t34 -9t21.5 -22.5t2 -39q-2 -10 -7 -22t-11 -24.5t-11 -25t-8 -24.5q-2 -6 -8 -6zM246 168q3 6 8.5 5.5t8.5 -7.5t2 -20t-10 -33q-11 -23 -28.5 -45t-39.5 -38t-47 -24.5t-52 -5.5
q-44 5 -62.5 32t-22.5 69q-3 30 2 67.5t13.5 75.5t18 75t16.5 67q0 6 7 6q20 2 38.5 0.5t31.5 -9t18.5 -22.5t0.5 -39q-5 -20 -11.5 -47t-13 -55t-10.5 -55t-4 -46q1 -35 21.5 -45.5t49.5 8.5q12 8 22 20t18.5 24.5t14.5 24t10 17.5z" />
    <glyph glyph-name="j" unicode="j" horiz-adv-x="182" 
d="M83 391q20 2 39 0.5t32.5 -9.5t19.5 -23t0 -39q-15 -70 -29.5 -139.5t-30.5 -140.5q-2 -10 -5 -21t-6 -23q-6 -27 -11.5 -48t-17.5 -47q-16 -36 -38.5 -66t-52.5 -51.5t-68 -32t-86 -6.5q-27 2 -48 12.5t-34.5 26t-19 34t-1.5 38.5q7 35 35 55.5t63 25.5q16 3 15.5 -3
t-2.5 -9v-1q-14 -17 -20 -38t-1 -41q4 -20 19 -29.5t34 -6.5t40.5 20t39.5 51q9 18 15 32t10 26.5t7 26l7 31.5q2 11 4 20t4 16q20 90 40 176.5t40 175.5q2 7 7 7zM131 644q20 2 40 0.5t34.5 -9t21.5 -22.5t2 -39q-2 -10 -7 -22t-11 -24.5t-11 -25t-8 -24.5q-2 -6 -8 -6
q-31 0 -48.5 6t-25 14.5t-8.5 18.5t1 19q5 21 12 51t9 56q2 7 7 7z" />
    <glyph glyph-name="k" unicode="k" horiz-adv-x="416" 
d="M439 170q3 6 8.5 5.5t8.5 -7.5t2 -20t-10 -33q-20 -44 -60 -77.5t-90 -38.5q-28 -3 -52 6.5t-44 26.5t-35 41.5t-25 51.5l-24 -58t-20 -60q-1 -4 -2.5 -6t-8.5 -3q-15 -2 -32 3t-30.5 15t-20.5 24.5t-3 33.5q32 142 67 281.5t66 281.5q1 4 2.5 6.5t9.5 2.5q19 2 37 0
t31 -10t18.5 -22.5t0.5 -38.5q-15 -67 -29 -124.5t-31 -124.5q29 48 70.5 66t82.5 13q31 -4 53 -22.5t27.5 -46t-9.5 -61t-58 -66.5q-32 -25 -59.5 -35t-38.5 -12q8 -20 22 -40t31.5 -33t38 -16t41.5 11q12 8 22 20t18.5 24.5t14.5 24t10 17.5zM183 219q1 1 15.5 7.5
t34 17.5t40.5 25t36 29q14 15 16.5 27t-4.5 18.5t-20.5 6t-31.5 -10.5q-20 -11 -36 -31t-27 -39.5t-17 -34t-6 -15.5z" />
    <glyph glyph-name="l" unicode="l" horiz-adv-x="182" 
d="M247 170q4 6 9.5 5t8.5 -7.5t2 -20t-11 -33.5q-11 -24 -28.5 -46t-39.5 -38.5t-48 -25t-53 -5.5q-45 5 -63.5 31.5t-22.5 69.5q-2 19 0 42.5t5.5 47.5t8.5 48t10 44q21 91 42.5 179t41.5 179q1 5 8 7q20 2 39 0.5t32.5 -9.5t19.5 -23.5t1 -39.5q-16 -71 -33.5 -141
t-34.5 -142q-4 -18 -9.5 -40.5t-10.5 -45.5t-8.5 -45.5t-2.5 -40.5q1 -36 21.5 -47t49.5 9q12 9 22.5 21t19 25t14.5 24t10 18z" />
    <glyph glyph-name="m" unicode="m" horiz-adv-x="674" 
d="M740 167q3 6 8.5 5t8.5 -7.5t2 -20t-10 -32.5q-11 -23 -28 -44.5t-38.5 -37.5t-46.5 -24.5t-52 -5.5q-44 5 -64.5 31.5t-24.5 68.5q-2 26 0.5 53t8.5 55q5 18 10.5 42.5t12.5 49.5q1 24 -9 23.5t-27 -18.5t-38.5 -50t-43 -71t-40.5 -82.5t-31 -83.5q-3 -10 -5.5 -13.5
t-12.5 -4.5q-15 -1 -31 3.5t-28.5 14.5t-19 24t-2.5 32q7 33 14.5 65.5t15.5 64.5q2 9 4.5 18.5t4.5 17.5q2 11 4.5 20.5t5.5 20.5q6 32 -1 39t-21.5 -5t-35 -39.5t-42 -64t-42 -79t-35.5 -83.5q-4 -11 -6.5 -20t-5.5 -19q-2 -8 -4.5 -9t-12.5 -2q-15 -1 -31 4t-28.5 15
t-19 24t-2.5 32q18 79 37.5 156t36.5 156q1 6 7 6q20 2 38.5 0.5t31.5 -9t19 -22t1 -38.5q-3 -16 -6.5 -31t-7.5 -31q17 38 40 68t58 50q11 6 27.5 10t34.5 5.5t35 0t29 -6.5q17 -7 25 -22.5t2 -42.5q-3 -15 -6.5 -30t-6.5 -31q17 38 39.5 67.5t57.5 49.5q13 8 33.5 12
t41 2.5t38.5 -9.5t27 -25q11 -20 9.5 -47t-9.5 -53q-7 -20 -11.5 -40t-9.5 -40q-3 -17 -5 -32.5t-1 -28.5q1 -35 21 -45.5t49 9.5q12 8 22 19.5t18 24t14 23.5t10 18z" />
    <glyph glyph-name="n" unicode="n" horiz-adv-x="436" 
d="M503 166q3 6 8.5 5.5t8.5 -7t1.5 -20t-10.5 -32.5q-11 -23 -28 -44.5t-38.5 -37.5t-46.5 -25t-52 -6q-43 5 -63.5 32t-24.5 69q-3 26 -0.5 53t9.5 55q4 18 9.5 42t13.5 50q1 24 -9.5 23t-28 -20t-40 -52t-44.5 -74t-40.5 -85t-29.5 -85q-2 -7 -9.5 -7.5t-12.5 -0.5
q-15 0 -30 5.5t-26 15.5t-17 23.5t-2 30.5q18 80 37.5 157t36.5 155q1 6 7 7q20 2 38.5 0.5t31.5 -9t19 -22.5t1 -39q-3 -15 -6.5 -30.5t-7.5 -30.5q17 37 40 67t58 50q17 9 39.5 13t44.5 0.5t39 -16t23 -35.5q5 -18 2.5 -39.5t-9.5 -42.5q-6 -21 -10.5 -40.5t-9.5 -40.5
q-4 -17 -5.5 -32t-1.5 -28q1 -35 21 -45.5t49 8.5q12 8 22 20t18.5 24.5t14.5 23.5t10 17z" />
    <glyph glyph-name="o" unicode="o" horiz-adv-x="384" 
d="M421 174q3 6 9.5 6t10 -6t3 -18t-10.5 -31q-12 -22 -28 -40.5t-37.5 -31.5t-50 -19.5t-65.5 -3.5q-45 -30 -93 -32t-86 20t-58.5 66.5t-11.5 107.5q5 37 18.5 73t37.5 63q10 11 23.5 21.5t29 18t31.5 10t31 -2.5q2 2 5.5 3t6.5 3q47 18 80.5 11t54 -30.5t28.5 -59
t4 -75.5q-4 -36 -17.5 -72t-34.5 -65q23 -4 41.5 3t33 20t25.5 29.5t20 31.5zM106 127q8 -31 29 -46t48 -4q-30 31 -45.5 76.5t-16.5 88.5q-13 -25 -17.5 -57t2.5 -58zM280 233q6 41 -3 66t-23.5 30.5t-29 -11t-18.5 -58.5q-4 -35 5.5 -68t29.5 -62q14 23 24 49t15 54z" />
    <glyph glyph-name="p" unicode="p" horiz-adv-x="419" 
d="M282 394q49 -2 78.5 -28.5t40.5 -66t5 -86.5t-26.5 -89.5t-54.5 -75.5t-79 -44q-42 -10 -80 -1t-61 42q-5 -19 -8.5 -37t-8.5 -37q-5 -21 -12.5 -54t-15.5 -66.5t-14.5 -61.5t-9.5 -38q-1 -5 -6 -7q-15 -3 -33 1.5t-32 14t-22 24.5t-4 35q32 143 67 283.5t67 283.5
q0 5 7 7q32 3 58 -3.5t34 -31.5q44 39 110 36zM187 70q22 -5 42 13t35 48t23.5 66t8.5 67t-10 51.5t-32 20.5q-17 0 -31 -11t-23.5 -27t-14 -35t-3.5 -34q1 -17 -0.5 -20t-15.5 -3q-12 0 -21 3q-5 -18 -7.5 -40t1 -42.5t14.5 -36t34 -20.5z" />
    <glyph glyph-name="q" unicode="q" horiz-adv-x="404" 
d="M543 1052q-2 5 1.5 13t8.5 7q2 0 2 -3.5t-1 -5.5q-2 -2 0 -2q1 0 1 -0.5t1 -0.5q-1 -2 -1 -3.5t-1 -3.5q-2 -3 -5.5 -3.5t-5.5 2.5zM312 393q19 2 36.5 0.5t30.5 -7.5t20.5 -17.5t6.5 -30.5q-1 -5 -1 -8.5t-1 -7.5q-8 -36 -21.5 -88t-26.5 -109.5t-22.5 -115.5
t-10.5 -107.5t9.5 -86t38.5 -49.5q5 -2 3 -8q-1 -5 -7 -7q-23 -3 -45 -4t-41.5 5t-35 20.5t-25.5 43.5q-11 32 -7.5 89.5t14.5 125.5q-39 -31 -95 -31q-44 0 -74 24.5t-44 63.5q-19 52 -12.5 108t33.5 101.5t72 73t103 23.5q26 -2 47 -15t38 -39q3 13 5.5 24.5t4.5 21.5
q1 5 7 7zM243 113q9 43 18 84q-8 0 -17 3q-21 4 -9 25q8 13 13 30.5t5 34t-7 29t-23 15.5q-18 3 -35 -7.5t-31 -29.5t-25 -44.5t-16.5 -52t-5.5 -51.5t8 -43q8 -20 23.5 -28t33.5 -6.5t36 12t32 29.5z" />
    <glyph glyph-name="r" unicode="r" horiz-adv-x="390" 
d="M452 163q3 6 8.5 5.5t8.5 -7t2 -19.5t-10 -32q-11 -23 -28 -44.5t-38 -37t-46 -24t-51 -5.5q-43 4 -61 30.5t-22 68.5q-4 41 5.5 91.5t21.5 100.5l3 11q-12 -5 -28.5 -11.5t-28.5 -8.5q-6 -34 -16 -63.5t-21 -53t-21 -40.5t-16 -24q-5 -9 -12 -12t-12.5 -1.5t-7.5 8
t4 17.5q14 30 30 72.5t24 99.5q-23 0 -39 16t-8 52q5 20 11.5 47.5t10.5 45.5q1 2 1.5 5t8.5 4q42 5 61 -1.5t23.5 -21.5t-0.5 -37t-11 -49q8 0 18.5 4t20.5 10.5t18 14t11 15.5q1 3 5 4q20 2 38.5 0.5t31.5 -9t18.5 -22t0.5 -38.5q-2 -8 -5 -21.5t-6 -23.5
q-5 -20 -10.5 -42.5t-10 -44t-7 -41.5t-2.5 -35q2 -35 21.5 -45.5t47.5 8.5q12 8 22 20t18 24t14 23t10 17z" />
    <glyph glyph-name="s" unicode="s" horiz-adv-x="246" 
d="M262 131q4 10 10.5 13t12 1t9 -9.5t1.5 -19.5q-4 -21 -14 -46.5t-26 -49.5t-38 -45t-50 -33q-18 -8 -41.5 -10.5t-46 1t-42 13t-29.5 25.5q-5 8 -5 15.5t4 10.5q4 5 9 4t10 -3q11 -5 17 -7.5t18 -2.5q10 0 19 3.5t14 11.5q5 7 5.5 14.5t-1.5 15.5q-10 27 -27.5 60.5
t-34.5 68t-29.5 67t-12.5 58.5q0 63 39.5 96t102.5 25q20 -2 39 -11t29 -28q13 -24 11.5 -49.5t-12 -49.5t-26 -46t-30.5 -40q20 -32 39 -68.5t24 -78.5q23 31 33 51t19 43zM126 226q4 5 10 13t11 18.5t9 22t5 22.5q1 14 -5.5 24t-15.5 12.5t-18.5 -1.5t-13.5 -17.5
t-1 -36.5t19 -57z" />
    <glyph glyph-name="t" unicode="t" horiz-adv-x="184" 
d="M201 516q24 -1 43.5 -4.5t32.5 -12t18 -23t1 -35.5q0 -4 -4 -6t-7 0q-20 8 -46.5 8.5t-56.5 -2.5l-18 -74t-18 -75q-4 -18 -9.5 -40t-10.5 -45.5t-8 -45.5t-3 -40q1 -36 21.5 -47t49.5 9q12 8 22.5 20t19 25t14.5 24t10 18q3 6 8.5 5t8.5 -7.5t2 -20t-10 -33.5
q-11 -23 -28.5 -45t-39.5 -38.5t-47.5 -25t-52.5 -5.5q-45 5 -63.5 31.5t-22.5 69.5q-2 26 0.5 53.5t8.5 55.5l2 9q4 17 7.5 34t5.5 29q9 38 18 74.5t17 73.5q-27 -2 -51 -0.5t-41 9.5t-25 24.5t-4 43.5q2 4 4 5q2 2 6 2q26 -5 60.5 -4.5t70.5 2.5q8 32 14.5 62.5t14.5 62.5
q0 7 7 7q20 2 39 0.5t32.5 -9.5t19.5 -23t1 -39q-4 -14 -7 -28.5t-6 -28.5z" />
    <glyph glyph-name="u" unicode="u" horiz-adv-x="416" 
d="M481 168q3 6 8.5 5.5t8.5 -7.5t2 -20t-10 -33q-11 -24 -28.5 -45.5t-39.5 -38t-47.5 -25t-52.5 -5.5q-35 3 -53 21t-26 47q-28 -34 -70 -53.5t-87 -14.5q-44 5 -62.5 32t-22.5 70q-3 30 2 67.5t13.5 75.5t18 75.5t16.5 67.5q2 6 7 6q20 2 39 0.5t32.5 -9.5t20 -23
t0.5 -39q-4 -20 -11.5 -47t-14 -55t-11.5 -55t-4 -46q1 -35 21 -46t49 9q20 13 36.5 37.5t24.5 56.5l6 36v2q9 46 21 91t20 82q2 6 7 6q20 2 39 0.5t32.5 -9.5t19.5 -23t1 -39q-4 -20 -11.5 -47t-14 -55t-11.5 -55t-5 -46q2 -35 22 -46t49 9q12 8 22.5 20t18.5 24.5t14.5 24
t10.5 17.5z" />
    <glyph glyph-name="v" unicode="v" horiz-adv-x="305" 
d="M281 397q22 4 38 -8.5t9 -35.5q-11 -41 -29 -86.5t-34 -86.5q-17 -45 -39.5 -85t-51.5 -66q-19 -17 -40.5 -24.5t-47.5 -5.5q-44 5 -62.5 32.5t-22.5 69.5q-3 31 2 68t13.5 75.5t18 75.5t16.5 67q2 7 7 7q20 2 39 0.5t33 -9.5t20 -23t1 -39q-4 -17 -10 -38t-12 -44
t-11 -46.5t-8 -43.5q-2 -18 -2.5 -31.5t0.5 -24.5q2 -19 9.5 -24t18.5 1t24.5 28t27 52t27 65t25 68.5t20.5 61.5t14 44q1 4 7 6z" />
    <glyph glyph-name="w" unicode="w" horiz-adv-x="513" 
d="M487 397q22 4 38.5 -8t9.5 -36q-11 -40 -29 -86t-34 -86q-18 -45 -40 -85.5t-51 -66.5q-19 -16 -40.5 -24t-47.5 -5q-36 4 -54.5 23t-26.5 51q-9 -14 -18 -25t-20 -20q-19 -16 -40.5 -24t-47.5 -5q-44 5 -62.5 32t-22.5 70q-3 30 2 67.5t13.5 75.5t18 75.5t16.5 67.5
q2 6 7 6q20 2 39 0.5t33 -9.5t20 -23t1 -39q-4 -17 -10 -38t-12 -44t-11 -46.5t-8 -43.5q-2 -18 -2.5 -31.5t0.5 -23.5q5 -38 28 -23q9 5 19.5 20.5t21.5 37.5t22 48.5t22 54.5q8 42 18.5 82t17.5 72q2 6 8 6q3 1 10 1l1 1q18 4 34 -2q26 -5 40.5 -20.5t6.5 -50.5
q-3 -17 -9 -38t-12 -44t-11.5 -46.5t-7.5 -43.5q-5 -38 -2 -55q4 -37 28 -23q11 6 24 27.5t26.5 51.5t27 65t25 68.5t21 61.5t14.5 44q2 6 6 6z" />
    <glyph glyph-name="x" unicode="x" horiz-adv-x="337" 
d="M416 169q3 7 9 6t9 -10t0 -26t-18 -42q-18 -32 -45.5 -56t-62.5 -35q-25 -8 -48 -3t-44 20t-40 38t-36 51q-29 -32 -49 -62.5t-24 -56.5q0 -2 -4 -6q-4 -2 -7 0q-40 16 -51.5 41.5t-2.5 54.5t34.5 59.5t58.5 58.5q-23 54 -38.5 103.5t-23.5 82.5q-2 3 2 7q1 3 6 3
q18 -1 35 0t30.5 -1.5t24.5 -9t17 -22.5q5 -12 13 -34.5t18 -50.5q29 30 53 58t35 53q2 4 5 5q5 0 7 -1q13 -9 24.5 -19.5t16.5 -24.5t1.5 -32t-21.5 -41q-11 -15 -34.5 -38t-51.5 -51q11 -25 23.5 -47.5t26 -39t27.5 -25t29 -5.5q27 6 50 31t46 67z" />
    <glyph glyph-name="y" unicode="y" horiz-adv-x="392" 
d="M298 393q20 2 38.5 0.5t32 -9.5t19.5 -23t1 -39l-30 -140t-31 -140q-2 -10 -5 -21.5t-6 -23.5q-6 -27 -11.5 -48t-16.5 -47q-17 -36 -39.5 -66.5t-53 -52t-68.5 -32t-86 -6.5q-27 2 -48 12.5t-34.5 26t-19 34t-1.5 38.5q7 35 35.5 56t62.5 26q16 3 16 -3t-2 -10h-1
q-14 -17 -20 -38t-1 -41q4 -20 19 -30t34 -7t40.5 20t39.5 52q10 18 16 32t10 27t7 26.5l7 31.5q2 10 3.5 19t3.5 16l3 13q-24 -23 -55 -37t-64 -11q-45 5 -63 32.5t-23 69.5q-3 31 2.5 68t13.5 75.5t18 75.5t16 67q1 5 8 7q20 2 39 0t32.5 -10t19.5 -23t1 -39
q-5 -20 -12 -46.5t-14 -54.5t-11.5 -55t-4.5 -46q1 -35 21.5 -46t49.5 8q15 11 27 26t21 30q14 63 28 125t28 125q2 6 8 6z" />
    <glyph glyph-name="z" unicode="z" horiz-adv-x="390" 
d="M160 100q39 4 80.5 9t74.5 -1t51 -29.5t9 -77.5q-2 -5 -4 -6q-4 -1 -8 0q-14 6 -38.5 6.5t-50.5 0.5q-21 0 -40 -0.5t-39 -1t-43 -0.5t-53 1q-28 1 -45 2.5t-27.5 8t-16.5 21.5t-13 44q-2 8 4.5 19t11.5 19q12 19 36 40.5t52 43t58 41t54.5 34t40.5 22.5t17 7
q-25 -2 -54.5 -6t-59 -5t-56.5 1.5t-46 13.5t-27.5 31t-1.5 54q0 4 4 6q2 1 6 1q9 -3 19 -4t22 -1h306q11 0 19.5 -8.5t10.5 -22.5q4 -27 -12.5 -49t-33.5 -38q-20 -19 -50 -38t-64 -40t-69 -46.5t-65 -57.5q11 2 20 3q8 1 14 1.5t7 1.5z" />
    </font>
</defs>
</svg>
